<svg width="243" height="306" viewBox="0 0 243 306" fill="none" xmlns="http://www.w3.org/2000/svg">
<g opacity="0.4">
<path opacity="0.45" d="M161.713 27.858H53.4699C53.4699 26.0894 53.9555 24.3548 54.8737 22.8433C55.792 21.3318 57.1076 20.1015 58.6772 19.2865C60.2467 18.4715 62.01 18.1031 63.7745 18.2215C65.5391 18.3399 67.2373 18.9406 68.6839 19.958C68.9275 15.0216 70.9135 10.3314 74.2888 6.72113C77.6642 3.11082 82.2103 0.814198 87.1191 0.239436C92.028 -0.335327 96.9817 0.849 101.1 3.58193C105.218 6.31487 108.234 10.4194 109.611 15.166C112.322 12.5965 115.917 11.1667 119.653 11.172C125.858 11.172 131.163 16.783 133.289 22.241C136.51 20.7083 140.037 19.9257 143.605 19.952C151.94 19.948 159.032 22.225 161.713 27.858Z" fill="#FC6011"/>
<g opacity="0.45">
<path d="M241.76 81.501C241.039 80.0728 239.883 78.9105 238.459 78.1816C237.035 77.4526 235.416 77.1947 233.836 77.445C233.264 75.945 230.057 69.24 220.078 74.864C219.287 72.864 214.773 63.064 204.766 69.945C204.537 68.2185 203.879 66.577 202.851 65.171C201.007 62.785 198.19 61.908 194.48 62.571C191.122 63.171 188.874 64.922 187.8 67.788C187.039 70.1077 186.899 72.5864 187.395 74.977C185.344 75.06 176.311 75.759 175.369 81.648L175.28 82.205H242.071L241.76 81.501Z" fill="#FC6011"/>
</g>
<g opacity="0.45">
<path d="M60.3879 123.009C59.8132 121.648 58.8067 120.513 57.5237 119.78C56.2408 119.047 54.7524 118.757 53.2879 118.953C52.7769 117.453 49.9039 110.748 40.9619 116.372C40.2519 114.372 36.2089 104.572 27.2429 111.453C27.0453 109.751 26.4585 108.118 25.528 106.679C23.876 104.293 21.353 103.418 18.028 104.079C16.6399 104.295 15.3414 104.9 14.2825 105.823C13.2236 106.746 12.4476 107.95 12.0439 109.296C11.361 111.631 11.2366 114.093 11.6809 116.485C9.84291 116.568 1.74994 117.267 0.905945 123.156L0.825928 123.713H60.6649L60.3879 123.009Z" fill="#FC6011"/>
</g>
</g>
<path d="M24.2909 178.947C21.6388 178.947 19.0461 178.161 16.8407 176.688C14.6354 175.215 12.9164 173.121 11.9012 170.671C10.886 168.221 10.6202 165.524 11.1374 162.923C11.6545 160.322 12.9314 157.933 14.8066 156.057C16.6818 154.182 19.0711 152.904 21.6722 152.387C24.2734 151.869 26.9696 152.135 29.4199 153.149C31.8702 154.164 33.9645 155.883 35.438 158.088C36.9114 160.293 37.6979 162.886 37.6979 165.538C37.6939 169.093 36.2803 172.501 33.7669 175.014C31.2535 177.528 27.8456 178.942 24.2909 178.947ZM24.2909 156.185C22.4411 156.185 20.6328 156.734 19.0947 157.761C17.5566 158.789 16.3578 160.25 15.6499 161.959C14.942 163.668 14.7568 165.548 15.1176 167.363C15.4785 169.177 16.3693 170.844 17.6773 172.152C18.9854 173.46 20.652 174.35 22.4663 174.711C24.2806 175.072 26.1611 174.887 27.8701 174.179C29.5792 173.471 31.0399 172.272 32.0677 170.734C33.0954 169.196 33.644 167.388 33.644 165.538C33.6413 163.058 32.6551 160.68 30.9017 158.927C29.1483 157.173 26.7709 156.186 24.2909 156.183V156.185Z" fill="#FC6011"/>
<path d="M205.648 289.238C200.507 289.238 195.482 287.714 191.208 284.857C186.933 282.001 183.602 277.942 181.634 273.193C179.667 268.443 179.152 263.217 180.155 258.175C181.158 253.133 183.634 248.502 187.269 244.867C190.904 241.232 195.535 238.756 200.577 237.753C205.619 236.75 210.845 237.265 215.595 239.232C220.344 241.2 224.403 244.531 227.259 248.806C230.115 253.08 231.64 258.105 231.64 263.246C231.632 270.137 228.891 276.744 224.018 281.616C219.146 286.489 212.539 289.23 205.648 289.238ZM205.648 241.31C201.309 241.31 197.068 242.596 193.461 245.007C189.854 247.417 187.042 250.843 185.382 254.851C183.721 258.86 183.287 263.27 184.133 267.525C184.98 271.781 187.069 275.689 190.137 278.757C193.205 281.825 197.113 283.914 201.368 284.76C205.624 285.607 210.034 285.172 214.042 283.512C218.051 281.852 221.477 279.04 223.887 275.433C226.297 271.826 227.584 267.584 227.584 263.246C227.577 257.43 225.264 251.855 221.152 247.742C217.039 243.63 211.464 241.317 205.648 241.31Z" fill="#FC6011"/>
<path d="M116.172 98.273C111.031 98.273 106.006 96.7485 101.731 93.8925C97.4571 91.0365 94.1257 86.9771 92.1584 82.2276C90.1912 77.4782 89.6764 72.2521 90.6793 67.2102C91.6822 62.1682 94.1577 57.5369 97.7928 53.9018C101.428 50.2668 106.059 47.7913 111.101 46.7884C116.143 45.7855 121.369 46.3002 126.119 48.2675C130.868 50.2347 134.927 53.5662 137.783 57.8406C140.639 62.1149 142.164 67.1402 142.164 72.281C142.156 79.172 139.415 85.7786 134.542 90.6513C129.669 95.524 123.063 98.265 116.172 98.273ZM116.172 50.3449C111.833 50.3453 107.593 51.6322 103.985 54.0428C100.378 56.4534 97.5671 59.8795 95.9071 63.8878C94.2471 67.8961 93.813 72.3066 94.6596 76.5617C95.5062 80.8167 97.5956 84.7251 100.663 87.7927C103.731 90.8603 107.64 92.9494 111.895 93.7956C116.15 94.6418 120.561 94.2073 124.569 92.547C128.577 90.8866 132.003 88.075 134.413 84.4677C136.823 80.8604 138.11 76.6194 138.11 72.281C138.104 66.4647 135.79 60.8884 131.677 56.7758C127.564 52.6632 121.988 50.351 116.172 50.3449Z" fill="#FC6011"/>
<path d="M78.715 292.218C78.715 292.218 78.8599 280.482 90.4509 280.482C90.4509 280.482 78.715 280.337 78.715 268.746C78.715 268.746 78.5699 280.482 66.9789 280.482C66.9789 280.482 78.715 280.627 78.715 292.218Z" fill="#F9CA24"/>
<path d="M33.644 72.793C33.644 72.793 33.788 61.059 45.378 61.059C45.378 61.059 33.644 60.914 33.644 49.323C33.644 49.323 33.499 61.059 21.908 61.059C21.908 61.059 33.644 61.202 33.644 72.793Z" fill="#F9CA24"/>
<path d="M50.0909 306.001C50.0909 306.001 50.176 299.109 56.983 299.109C56.983 299.109 50.0909 299.024 50.0909 292.218C50.0909 292.218 50.006 299.109 43.2 299.109C43.2 299.109 50.0909 299.195 50.0909 306.001Z" fill="#F9CA24"/>
<path d="M221.044 203.859C221.044 203.859 221.129 196.968 227.935 196.968C227.935 196.968 221.044 196.883 221.044 190.076C221.044 190.076 220.959 196.968 214.152 196.968C214.152 196.968 221.044 197.053 221.044 203.859Z" fill="#F9CA24"/>
<path d="M186.651 37.628C186.651 37.628 186.736 30.736 193.543 30.736C193.543 30.736 186.651 30.651 186.651 23.845C186.651 23.845 186.566 30.736 179.76 30.736C179.76 30.736 186.651 30.822 186.651 37.628Z" fill="#F9CA24"/>
<path d="M56.9839 98.13C56.9839 98.13 57.0689 91.239 63.8749 91.239C63.8749 91.239 56.9839 91.153 56.9839 84.347C56.9839 84.347 56.8979 91.239 50.0919 91.239C50.0919 91.239 56.9839 91.324 56.9839 98.13Z" fill="#F9CA24"/>
<path d="M105.756 226.01V215.405H96.2429V227.105L104.791 227.941L105.756 226.01Z" fill="#FFABAB"/>
<path d="M108.422 241.319H76.3049V239.684C76.3058 239.298 76.3372 238.912 76.3989 238.531C76.6144 237.155 77.2232 235.871 78.1518 234.832C79.0804 233.794 80.2893 233.047 81.6329 232.68C86.9079 231.21 94.1889 228.361 94.0969 223.888L94.1289 223.877C95.1204 223.663 96.156 223.814 97.0443 224.304C97.9327 224.794 98.6139 225.588 98.9619 226.541L106.376 225.163C107.638 229.511 108.326 234.005 108.423 238.531C108.454 239.694 108.44 240.65 108.422 241.319Z" fill="#FDC349"/>
<path d="M108.422 241.319H76.3049V239.684C76.3058 239.298 76.3372 238.912 76.3989 238.531H108.422C108.454 239.694 108.44 240.65 108.422 241.319Z" fill="#DBA941"/>
<path d="M167.185 166.173V171.747C167.185 173.123 166.914 174.486 166.388 175.757C165.861 177.029 165.089 178.184 164.116 179.157C163.143 180.13 161.988 180.902 160.716 181.429C159.445 181.955 158.082 182.226 156.706 182.226H107.496V222.526H90.9709V178.836C90.9708 177.173 91.2982 175.526 91.9344 173.99C92.5707 172.454 93.5033 171.058 94.6791 169.882C95.8549 168.706 97.2508 167.773 98.7871 167.137C100.323 166.501 101.97 166.173 103.633 166.173H167.185Z" fill="#29293D"/>
<path d="M146.308 104.436C146.11 105.05 146.071 105.703 146.196 106.336L147.579 113.29L137.413 115.329L136.1 107.342C135.277 107.542 134.425 107.719 133.545 107.927C132.707 108.127 131.87 108.305 131.06 108.458C130.671 108.535 130.271 108.525 129.887 108.428C129.503 108.332 129.145 108.151 128.839 107.9C128.825 107.9 128.825 107.9 128.812 107.886C128.644 107.686 128.476 107.494 128.295 107.286C128.281 107.272 128.268 107.257 128.268 107.244C123.479 101.505 123.813 98.782 124.833 96.603C125.503 95.18 126.341 94.062 126.341 92.428C125.532 86.507 129.748 82.166 135.124 80.796C136.496 80.4538 137.91 80.3081 139.324 80.363C140.737 80.4197 142.13 80.717 143.443 81.242H143.457C144.518 81.6601 145.519 82.2194 146.431 82.905C147.982 84.0399 149.259 85.5092 150.165 87.2041C151.072 88.8991 151.586 90.7762 151.67 92.6967C151.753 94.6171 151.403 96.5317 150.646 98.2987C149.89 100.066 148.745 101.64 147.298 102.905C146.838 103.318 146.496 103.847 146.308 104.436Z" fill="#FFA9A9"/>
<path d="M151.671 92.718C151.75 94.6334 151.398 96.5421 150.642 98.3037C149.885 100.065 148.744 101.635 147.301 102.897C146.839 103.312 146.497 103.842 146.309 104.434L141.533 100.062C141.533 100.062 143.348 97.968 141.033 94.994C139.433 92.938 137.962 94.494 137.207 95.646C137.162 95.7156 137.097 95.7695 137.02 95.8004C136.943 95.8313 136.858 95.8375 136.778 95.8183C136.697 95.7991 136.625 95.7554 136.57 95.6932C136.516 95.631 136.482 95.5533 136.473 95.471C136.001 92.8471 136.395 90.1409 137.597 87.761L135.125 80.793C136.497 80.4508 137.911 80.3051 139.325 80.36C140.738 80.4167 142.131 80.714 143.444 81.239H143.458L146.432 82.902C147.982 84.044 149.257 85.5182 150.163 87.2167C151.07 88.9151 151.585 90.7947 151.671 92.718Z" fill="black"/>
<path d="M128.156 93.888C128.156 94.247 128.039 94.537 127.894 94.537C127.749 94.537 127.632 94.247 127.632 93.888C127.632 93.529 127.75 93.241 127.894 93.241C128.038 93.241 128.156 93.532 128.156 93.888Z" fill="black"/>
<path d="M127.032 91.603C127.032 91.603 126.814 90.119 129.519 91.384" stroke="black" stroke-width="0.25" stroke-miterlimit="10" stroke-linecap="round"/>
<path d="M133.228 97.839L139.901 94.084L141.277 101.203L133.228 106.352" stroke="white" stroke-width="0.25" stroke-miterlimit="10" stroke-linecap="round"/>
<path d="M138.379 95.443C138.379 95.443 141.01 90.424 143.497 93.434C145.984 96.444 143.672 103.607 139.134 101.028" fill="#FFABAB"/>
<path d="M138.379 95.443C138.379 95.443 141.01 90.424 143.497 93.434C145.984 96.444 143.672 103.607 139.134 101.028" stroke="black" stroke-width="0.25" stroke-miterlimit="10" stroke-linecap="round"/>
<path d="M139.905 98.628C139.905 98.628 139.686 93.916 142.654 94.828" stroke="black" stroke-width="0.25" stroke-miterlimit="10" stroke-linecap="round"/>
<path d="M141.445 98.061C141.445 98.061 141.945 96.129 140.533 95.545" stroke="black" stroke-width="0.25" stroke-miterlimit="10" stroke-linecap="round"/>
<path d="M133.546 107.927C132.708 108.127 131.87 108.305 131.061 108.458C130.672 108.535 130.272 108.525 129.888 108.428C129.504 108.332 129.146 108.151 128.84 107.9C128.826 107.9 128.826 107.9 128.813 107.886C128.645 107.686 128.477 107.494 128.296 107.286C128.282 107.272 128.269 107.257 128.269 107.244C123.478 101.505 123.814 98.782 124.834 96.603C126.3 96.785 130.977 97.343 132.752 97.303C135.585 97.245 136.296 101.81 133.546 107.927Z" fill="#F9CA24"/>
<path d="M152.52 112.616C147.685 112.044 142.008 113.681 137.269 117.402H137.254C136.649 117.832 136.06 118.276 135.44 118.754C134.47 116.686 132.228 111.438 132.228 111.438L148.628 106.556C148.628 106.556 150.437 109.371 152.52 112.616Z" fill="#CC4E0E"/>
<path d="M35.7119 272.322C48.5901 272.322 59.0299 261.882 59.0299 249.004C59.0299 236.126 48.5901 225.686 35.7119 225.686C22.8337 225.686 12.3939 236.126 12.3939 249.004C12.3939 261.882 22.8337 272.322 35.7119 272.322Z" fill="black"/>
<path d="M35.7119 235.679C38.3473 235.679 40.9236 236.46 43.1149 237.925C45.3062 239.389 47.0141 241.47 48.0226 243.905C49.0311 246.34 49.295 249.019 48.7809 251.604C48.2667 254.188 46.9976 256.563 45.1341 258.426C43.2706 260.29 40.8963 261.559 38.3115 262.073C35.7267 262.587 33.0475 262.323 30.6126 261.315C28.1778 260.306 26.0967 258.598 24.6326 256.407C23.1684 254.216 22.3869 251.639 22.3869 249.004C22.3869 245.47 23.7908 242.081 26.2897 239.582C28.7886 237.083 32.1779 235.679 35.7119 235.679Z" fill="#3D3D3D"/>
<path d="M40.153 249.003C40.153 249.881 39.8925 250.74 39.4045 251.47C38.9165 252.201 38.2229 252.77 37.4114 253.106C36.6 253.442 35.707 253.53 34.8455 253.359C33.9841 253.187 33.1927 252.764 32.5717 252.143C31.9506 251.522 31.5276 250.731 31.3563 249.869C31.1849 249.008 31.2729 248.115 31.609 247.303C31.9451 246.492 32.5143 245.798 33.2446 245.31C33.9749 244.822 34.8336 244.562 35.7119 244.562C36.8897 244.562 38.0191 245.03 38.8519 245.863C39.6847 246.696 40.1527 247.825 40.153 249.003Z" fill="white"/>
<path d="M43.0019 235.679H9.60193C9.60193 235.679 19.4089 209.386 51.8769 209.386L43.0019 235.679Z" fill="#29293D"/>
<path d="M150.91 103.741C150.563 104.15 150.132 104.479 149.645 104.705C149.159 104.931 148.629 105.049 148.093 105.05H139.056C137.82 105.05 136.635 104.559 135.762 103.685C134.888 102.812 134.397 101.627 134.397 100.391V87.203H149.152L150.91 103.741Z" fill="#BA7F17"/>
<path opacity="0.2" d="M120.67 87.204C120.67 87.204 117.27 96.342 124.205 106.812L138.761 101.047L136.242 85.939L120.67 87.204Z" fill="url(#paint0_linear_1_1160)"/>
<path d="M152.603 81.431C151.055 79.4682 149.083 77.8818 146.834 76.791C144.585 75.7003 142.118 75.1336 139.618 75.1336C137.119 75.1336 134.652 75.7003 132.403 76.791C130.154 77.8818 128.181 79.4682 126.634 81.431C125.234 83.1374 124.175 85.0974 123.516 87.204H135.285V100.388C135.285 101 135.405 101.606 135.638 102.171C135.872 102.737 136.215 103.251 136.648 103.684C137.08 104.117 137.594 104.46 138.159 104.694C138.724 104.929 139.33 105.05 139.942 105.05H148.979C149.515 105.049 150.045 104.931 150.531 104.705C151.018 104.479 151.449 104.15 151.796 103.741C154.354 100.735 156.596 96.914 156.596 92.757C156.613 88.6337 155.202 84.6316 152.603 81.431Z" fill="#E87658"/>
<path d="M135.285 81.431V87.204H119.795C119.609 87.2012 119.43 87.1352 119.288 87.0168C119.145 86.8983 119.047 86.7347 119.009 86.5529C118.972 86.371 118.998 86.182 119.083 86.0171C119.169 85.8521 119.307 85.7212 119.477 85.646L125.477 83.005L125.577 81.432L135.285 81.431Z" fill="#3C427F"/>
<path d="M135.285 81.431V86.231C132.398 84.2228 128.987 83.1009 125.472 83.003L125.572 81.43L135.285 81.431Z" fill="#30336B"/>
<path d="M133.824 83.235C133.824 83.3537 133.789 83.4697 133.723 83.5683C133.657 83.667 133.563 83.7439 133.454 83.7893C133.344 83.8347 133.223 83.8466 133.107 83.8235C132.99 83.8003 132.884 83.7432 132.8 83.6593C132.716 83.5754 132.659 83.4684 132.635 83.3521C132.612 83.2357 132.624 83.115 132.67 83.0054C132.715 82.8958 132.792 82.802 132.891 82.7361C132.989 82.6702 133.105 82.635 133.224 82.635C133.383 82.635 133.536 82.6982 133.648 82.8107C133.761 82.9233 133.824 83.0759 133.824 83.235Z" fill="white"/>
<path d="M66.031 144.559V160.998C64.2073 160.532 62.591 159.472 61.4379 157.984C60.2849 156.497 59.661 154.667 59.6649 152.785V152.771C59.6612 150.889 60.2852 149.06 61.4383 147.572C62.5913 146.085 64.2075 145.024 66.031 144.559Z" fill="#F9CA24"/>
<path d="M87.4219 150.372C85.5479 153.426 83.4059 157.108 81.1469 161.28H68.1569C67.9769 161.284 67.7967 161.276 67.6179 161.254C67.0798 161.227 66.5462 161.141 66.0269 160.997V144.558C66.5461 144.413 67.0797 144.327 67.6179 144.301C67.7968 144.281 67.9769 144.273 68.1569 144.277H83.9799C84.6926 144.275 85.393 144.463 86.0089 144.822C86.6249 145.18 87.1342 145.697 87.4847 146.317C87.8351 146.938 88.014 147.64 88.003 148.353C87.992 149.066 87.7914 149.763 87.4219 150.372Z" fill="#3E394F"/>
<path d="M81.1439 161.279C80.4119 162.615 79.6809 164.014 78.9339 165.445H71.8889C72.7319 164.061 73.5889 162.678 74.4649 161.279H81.1439Z" fill="#29293D"/>
<path d="M86.0599 169.755C78.7139 180.474 61.2039 209.755 64.3219 241.318C64.4959 243.13 64.7519 244.944 65.0689 246.756H43.5689C42.5559 246.758 41.5569 246.519 40.654 246.06C39.7511 245.601 38.9702 244.933 38.3754 244.113C37.7807 243.293 37.3891 242.344 37.2329 241.343C37.0767 240.342 37.1603 239.318 37.4769 238.356C41.8489 225.136 52.2409 197.648 71.8889 165.449H83.7839C84.2842 165.451 84.7748 165.588 85.203 165.847C85.6311 166.106 85.9809 166.476 86.2147 166.919C86.4485 167.361 86.5576 167.859 86.5303 168.358C86.5031 168.858 86.3404 169.341 86.0599 169.755Z" fill="#3E394F"/>
<path d="M66.0299 142.891H67.6209V162.666H66.0299V142.891Z" fill="#3E394F"/>
<path d="M167.039 180.092C152.154 176.339 136.87 165.954 136.87 165.954L138.27 163.363C135.152 161.663 136.998 157.908 136.87 150.751C136.76 143.596 135.996 137.33 135.996 137.33L135.981 137.345C121.763 145.567 89.8809 152.345 89.8809 152.345L88.0199 145.681C98.4275 141.909 108.493 137.253 118.107 131.765C125.82 127.249 130.989 122.271 135.441 118.757C136.061 118.279 136.65 117.834 137.255 117.405H137.27C137.78 117.005 138.305 116.623 138.845 116.26H138.862C142.852 113.492 147.683 112.205 152.522 112.619C153.731 114.495 155.035 116.519 156.131 118.201C157.071 119.632 157.85 120.826 158.331 121.493C158.34 121.501 158.346 121.513 158.348 121.525C164.876 129.711 170.14 146.553 167.039 180.092Z" fill="#FC6011"/>
<path d="M75.074 152.419C75.0303 152.419 74.9867 152.414 74.944 152.405C74.7895 152.37 74.6551 152.276 74.5701 152.142C74.485 152.008 74.4562 151.847 74.4899 151.692L78.7729 132.392C78.8201 132.251 78.9176 132.133 79.0467 132.06C79.1758 131.987 79.3273 131.965 79.472 131.997C79.6168 132.029 79.7445 132.114 79.8306 132.235C79.9166 132.355 79.9549 132.504 79.938 132.651L75.655 151.951C75.6252 152.083 75.5515 152.201 75.446 152.286C75.3406 152.371 75.2094 152.418 75.074 152.419Z" fill="#3E394F"/>
<path d="M78.8489 155.781C78.8978 156.097 78.8737 156.421 78.7786 156.726C78.6835 157.032 78.5198 157.311 78.3 157.544C78.0802 157.777 77.8102 157.956 77.5105 158.068C77.2108 158.181 76.8894 158.223 76.5709 158.192C74.6999 157.992 72.4189 156.876 71.8919 152.782C70.9629 145.575 80.5739 144.716 84.1499 147.232L89.7499 145.444L90.9749 150.878L85.4079 152.344C85.4079 152.344 82.3949 157.704 79.7609 155.781C77.1269 153.858 78.8489 155.781 78.8489 155.781Z" fill="#FFA9A9"/>
<path d="M77.5609 156.503C79.6182 156.503 81.2859 154.835 81.2859 152.778C81.2859 150.721 79.6182 149.053 77.5609 149.053C75.5037 149.053 73.8359 150.721 73.8359 152.778C73.8359 154.835 75.5037 156.503 77.5609 156.503Z" fill="#3E394F"/>
<path d="M135.996 137.33L135.981 137.345C121.763 145.567 89.8809 152.345 89.8809 152.345L88.0199 145.681C98.4275 141.909 108.493 137.253 118.107 131.765C125.82 127.249 130.989 122.271 135.441 118.757C136.061 118.279 136.65 117.834 137.255 117.405H137.27C137.78 117.005 138.305 116.623 138.845 116.26H138.862C147.272 122.142 145.71 132.017 135.996 137.33Z" fill="#CC4E0E"/>
<path d="M80.0069 125.63H81.8869V136.497H80.0069C79.1622 136.497 78.3521 136.161 77.7548 135.564C77.1575 134.967 76.8219 134.157 76.8219 133.312V128.812C76.8227 127.968 77.1586 127.158 77.7559 126.562C78.3531 125.965 79.1627 125.63 80.0069 125.63Z" fill="#3E394F"/>
<path d="M173.326 272.322C186.204 272.322 196.644 261.882 196.644 249.004C196.644 236.126 186.204 225.686 173.326 225.686C160.448 225.686 150.008 236.126 150.008 249.004C150.008 261.882 160.448 272.322 173.326 272.322Z" fill="black"/>
<path d="M173.326 262.329C180.685 262.329 186.651 256.363 186.651 249.004C186.651 241.645 180.685 235.679 173.326 235.679C165.967 235.679 160.001 241.645 160.001 249.004C160.001 256.363 165.967 262.329 173.326 262.329Z" fill="#3D3D3D"/>
<path d="M173.326 253.446C175.779 253.446 177.768 251.457 177.768 249.004C177.768 246.551 175.779 244.562 173.326 244.562C170.873 244.562 168.884 246.551 168.884 249.004C168.884 251.457 170.873 253.446 173.326 253.446Z" fill="white"/>
<path d="M219.047 246.76H65.069C64.751 244.948 64.496 243.134 64.322 241.322H116.345C116.345 241.322 123.131 192.292 139.325 192.292H176.241C214.409 192.289 219.047 246.76 219.047 246.76Z" fill="#3E394F"/>
<path d="M207.66 246.757H138.987C139.554 238.037 143.418 229.859 149.794 223.883C156.171 217.908 164.583 214.582 173.321 214.582C182.06 214.582 190.472 217.908 196.848 223.883C203.225 229.859 207.089 238.037 207.656 246.757H207.66Z" fill="#29293D"/>
<path d="M149.571 192.289H136.201C135.79 192.289 135.383 192.208 135.003 192.051C134.623 191.894 134.278 191.663 133.987 191.372C133.697 191.082 133.466 190.737 133.309 190.357C133.152 189.977 133.071 189.57 133.071 189.159C133.071 187.011 133.924 184.95 135.443 183.431C136.962 181.912 139.023 181.059 141.171 181.059H153.843C167.659 181.059 161.794 176.486 171.436 176.486H179.236C180.224 176.486 181.172 176.879 181.871 177.578C182.57 178.277 182.963 179.225 182.963 180.213C182.963 183.416 181.691 186.487 179.426 188.752C177.161 191.017 174.09 192.289 170.887 192.289H149.571Z" fill="#29293D"/>
<path d="M182.729 106.811H218.829C220.332 106.811 221.773 107.408 222.836 108.471C223.899 109.534 224.496 110.975 224.496 112.478V171.483H175.316C174.374 171.483 173.442 171.297 172.572 170.937C171.702 170.577 170.911 170.048 170.245 169.382C169.579 168.716 169.051 167.926 168.691 167.055C168.331 166.185 168.146 165.253 168.146 164.311V121.394C168.146 117.526 169.682 113.817 172.417 111.082C175.152 108.347 178.861 106.811 182.729 106.811Z" fill="#FC6011"/>
<path d="M174.883 195.313H151.683C151.428 195.313 151.183 195.212 151.003 195.031C150.822 194.851 150.721 194.606 150.721 194.351C150.721 194.096 150.822 193.851 151.003 193.671C151.183 193.49 151.428 193.389 151.683 193.389H172.96V185.189C172.964 182.142 174.176 179.221 176.331 177.066C178.485 174.912 181.407 173.7 184.454 173.697H223.854C224.109 173.697 224.354 173.798 224.534 173.979C224.715 174.159 224.816 174.404 224.816 174.659C224.816 174.914 224.715 175.159 224.534 175.339C224.354 175.52 224.109 175.621 223.854 175.621H184.454C181.917 175.624 179.485 176.633 177.692 178.427C175.898 180.22 174.889 182.652 174.886 185.189L174.883 195.313Z" fill="#29293D"/>
<path d="M207.265 150.094C213.311 144.048 213.311 134.246 207.265 128.2C201.219 122.155 191.417 122.155 185.372 128.2C179.326 134.246 179.326 144.048 185.372 150.094C191.417 156.139 201.219 156.139 207.265 150.094Z" fill="white"/>
<path d="M178.112 158.636H179.25L180.452 161.568H180.503L181.705 158.636H182.842V163H181.947V160.16H181.911L180.782 162.979H180.173L179.043 160.149H179.007V163H178.112V158.636ZM185.077 163.064C184.74 163.064 184.45 162.996 184.208 162.859C183.966 162.722 183.78 162.527 183.649 162.276C183.519 162.023 183.453 161.724 183.453 161.379C183.453 161.042 183.519 160.746 183.649 160.492C183.78 160.238 183.964 160.04 184.201 159.898C184.44 159.756 184.72 159.685 185.041 159.685C185.257 159.685 185.458 159.719 185.644 159.789C185.831 159.857 185.994 159.96 186.134 160.098C186.274 160.236 186.384 160.409 186.462 160.618C186.54 160.825 186.579 161.068 186.579 161.347V161.596H183.815V161.033H185.725C185.725 160.903 185.696 160.787 185.639 160.686C185.583 160.585 185.504 160.506 185.403 160.45C185.303 160.391 185.188 160.362 185.056 160.362C184.918 160.362 184.796 160.394 184.689 160.458C184.584 160.521 184.502 160.605 184.442 160.712C184.382 160.817 184.352 160.934 184.35 161.063V161.598C184.35 161.76 184.38 161.9 184.44 162.018C184.501 162.136 184.587 162.227 184.698 162.29C184.808 162.354 184.94 162.386 185.092 162.386C185.193 162.386 185.285 162.372 185.369 162.344C185.453 162.315 185.524 162.273 185.584 162.216C185.644 162.159 185.689 162.089 185.72 162.007L186.56 162.062C186.517 162.264 186.43 162.44 186.298 162.591C186.167 162.74 185.998 162.857 185.791 162.94C185.585 163.023 185.347 163.064 185.077 163.064ZM188.105 163.062C187.896 163.062 187.71 163.026 187.546 162.953C187.383 162.879 187.254 162.771 187.159 162.627C187.065 162.482 187.018 162.302 187.018 162.086C187.018 161.904 187.051 161.751 187.118 161.628C187.185 161.504 187.276 161.405 187.391 161.33C187.506 161.254 187.636 161.197 187.783 161.159C187.931 161.121 188.085 161.094 188.247 161.078C188.438 161.058 188.591 161.04 188.708 161.023C188.824 161.004 188.909 160.977 188.961 160.942C189.014 160.906 189.04 160.854 189.04 160.784V160.771C189.04 160.636 188.997 160.532 188.912 160.458C188.828 160.384 188.709 160.347 188.554 160.347C188.391 160.347 188.261 160.384 188.164 160.456C188.068 160.527 188.004 160.616 187.972 160.724L187.133 160.656C187.176 160.457 187.259 160.286 187.384 160.141C187.509 159.994 187.671 159.882 187.868 159.804C188.067 159.724 188.297 159.685 188.558 159.685C188.74 159.685 188.914 159.706 189.08 159.749C189.248 159.791 189.396 159.857 189.526 159.947C189.656 160.036 189.759 160.151 189.835 160.292C189.91 160.431 189.948 160.598 189.948 160.793V163H189.087V162.546H189.061C189.009 162.648 188.938 162.739 188.85 162.817C188.762 162.893 188.656 162.954 188.533 162.998C188.409 163.04 188.266 163.062 188.105 163.062ZM188.364 162.435C188.498 162.435 188.616 162.409 188.718 162.357C188.82 162.303 188.901 162.23 188.959 162.139C189.017 162.048 189.046 161.945 189.046 161.83V161.483C189.018 161.501 188.979 161.518 188.929 161.534C188.881 161.548 188.826 161.562 188.765 161.575C188.704 161.586 188.643 161.597 188.582 161.607C188.521 161.615 188.465 161.623 188.416 161.63C188.309 161.646 188.216 161.67 188.136 161.705C188.057 161.739 187.995 161.785 187.951 161.843C187.907 161.9 187.885 161.971 187.885 162.056C187.885 162.18 187.93 162.274 188.019 162.339C188.11 162.403 188.225 162.435 188.364 162.435ZM191.559 158.636V163H190.652V158.636H191.559Z" fill="white"/>
<path d="M192.477 158.636H193.615L194.817 161.568H194.868L196.069 158.636H197.207V163H196.312V160.16H196.276L195.147 162.979H194.538L193.408 160.149H193.372V163H192.477V158.636ZM199.429 163.064C199.098 163.064 198.812 162.994 198.57 162.853C198.33 162.711 198.145 162.513 198.014 162.261C197.884 162.006 197.818 161.712 197.818 161.376C197.818 161.038 197.884 160.743 198.014 160.49C198.145 160.236 198.33 160.038 198.57 159.898C198.812 159.756 199.098 159.685 199.429 159.685C199.76 159.685 200.046 159.756 200.286 159.898C200.527 160.038 200.713 160.236 200.844 160.49C200.974 160.743 201.04 161.038 201.04 161.376C201.04 161.712 200.974 162.006 200.844 162.261C200.713 162.513 200.527 162.711 200.286 162.853C200.046 162.994 199.76 163.064 199.429 163.064ZM199.433 162.361C199.584 162.361 199.71 162.318 199.81 162.233C199.911 162.146 199.987 162.028 200.038 161.879C200.091 161.73 200.117 161.56 200.117 161.37C200.117 161.18 200.091 161.01 200.038 160.861C199.987 160.712 199.911 160.594 199.81 160.507C199.71 160.42 199.584 160.377 199.433 160.377C199.281 160.377 199.153 160.42 199.05 160.507C198.948 160.594 198.87 160.712 198.818 160.861C198.766 161.01 198.741 161.18 198.741 161.37C198.741 161.56 198.766 161.73 198.818 161.879C198.87 162.028 198.948 162.146 199.05 162.233C199.153 162.318 199.281 162.361 199.433 162.361ZM202.538 161.108V163H201.63V159.727H202.495V160.305H202.533C202.606 160.114 202.727 159.964 202.898 159.853C203.068 159.741 203.275 159.685 203.518 159.685C203.745 159.685 203.943 159.734 204.112 159.834C204.281 159.933 204.413 160.075 204.506 160.26C204.6 160.443 204.647 160.662 204.647 160.916V163H203.739V161.078C203.741 160.878 203.69 160.722 203.586 160.609C203.482 160.496 203.34 160.439 203.158 160.439C203.036 160.439 202.928 160.465 202.834 160.518C202.742 160.57 202.669 160.647 202.617 160.748C202.565 160.847 202.539 160.967 202.538 161.108ZM206.185 162.058L206.187 160.969H206.319L207.367 159.727H208.409L207.001 161.372H206.786L206.185 162.058ZM205.362 163V158.636H206.27V163H205.362ZM207.408 163L206.445 161.575L207.05 160.933L208.471 163H207.408ZM210.211 163.064C209.875 163.064 209.585 162.996 209.342 162.859C209.101 162.722 208.914 162.527 208.784 162.276C208.653 162.023 208.588 161.724 208.588 161.379C208.588 161.042 208.653 160.746 208.784 160.492C208.914 160.238 209.098 160.04 209.336 159.898C209.574 159.756 209.854 159.685 210.175 159.685C210.391 159.685 210.592 159.719 210.778 159.789C210.966 159.857 211.129 159.96 211.268 160.098C211.409 160.236 211.518 160.409 211.596 160.618C211.674 160.825 211.713 161.068 211.713 161.347V161.596H208.95V161.033H210.859C210.859 160.903 210.831 160.787 210.774 160.686C210.717 160.585 210.638 160.506 210.537 160.45C210.438 160.391 210.322 160.362 210.19 160.362C210.052 160.362 209.93 160.394 209.824 160.458C209.718 160.521 209.636 160.605 209.576 160.712C209.517 160.817 209.486 160.934 209.485 161.063V161.598C209.485 161.76 209.515 161.9 209.574 162.018C209.635 162.136 209.721 162.227 209.832 162.29C209.943 162.354 210.074 162.386 210.226 162.386C210.327 162.386 210.419 162.372 210.503 162.344C210.587 162.315 210.659 162.273 210.718 162.216C210.778 162.159 210.824 162.089 210.855 162.007L211.694 162.062C211.652 162.264 211.564 162.44 211.432 162.591C211.302 162.74 211.133 162.857 210.925 162.94C210.719 163.023 210.481 163.064 210.211 163.064ZM212.778 164.227C212.663 164.227 212.555 164.218 212.454 164.2C212.355 164.183 212.273 164.161 212.207 164.134L212.412 163.456C212.518 163.489 212.614 163.506 212.699 163.509C212.786 163.512 212.861 163.492 212.923 163.45C212.987 163.407 213.039 163.335 213.079 163.232L213.132 163.094L211.958 159.727H212.913L213.59 162.131H213.624L214.308 159.727H215.269L213.997 163.354C213.936 163.53 213.853 163.683 213.748 163.814C213.644 163.946 213.513 164.048 213.354 164.119C213.194 164.191 213.003 164.227 212.778 164.227Z" fill="white"/>
<defs>
<linearGradient id="paint0_linear_1_1160" x1="125.646" y1="99.6943" x2="134.048" y2="90.2304" gradientUnits="userSpaceOnUse">
<stop/>
<stop offset="1" stop-opacity="0"/>
</linearGradient>
</defs>
</svg>
