<svg width="375" height="498" viewBox="0 0 375 498" fill="none" xmlns="http://www.w3.org/2000/svg">
<path d="M177.587 359.572C177.587 358.63 177.308 357.709 176.784 356.926C176.261 356.143 175.517 355.532 174.647 355.172C173.776 354.811 172.819 354.717 171.895 354.9C170.971 355.084 170.122 355.538 169.456 356.204C168.79 356.87 168.336 357.719 168.153 358.643C167.969 359.567 168.063 360.524 168.424 361.395C168.784 362.265 169.395 363.009 170.178 363.532C170.961 364.056 171.882 364.335 172.824 364.335C174.087 364.335 175.299 363.833 176.192 362.94C177.085 362.047 177.587 360.835 177.587 359.572ZM171.287 360.44C170.855 360.44 170.433 360.312 170.074 360.072C169.715 359.832 169.435 359.491 169.27 359.092C169.105 358.693 169.062 358.255 169.146 357.831C169.23 357.408 169.438 357.019 169.743 356.713C170.049 356.408 170.438 356.2 170.861 356.116C171.285 356.032 171.724 356.075 172.122 356.24C172.521 356.405 172.862 356.685 173.102 357.044C173.342 357.403 173.47 357.825 173.47 358.257C173.47 358.544 173.414 358.828 173.304 359.092C173.195 359.357 173.034 359.598 172.831 359.801C172.629 360.004 172.388 360.165 172.123 360.274C171.859 360.384 171.575 360.441 171.288 360.441L171.287 360.44Z" fill="#4A4B4D"/>
<path d="M202.282 354.809C201.34 354.809 200.419 355.088 199.636 355.612C198.853 356.135 198.242 356.879 197.882 357.749C197.521 358.62 197.427 359.577 197.611 360.501C197.794 361.425 198.248 362.274 198.914 362.94C199.58 363.606 200.429 364.06 201.353 364.243C202.277 364.427 203.234 364.333 204.105 363.972C204.975 363.612 205.719 363.001 206.242 362.218C206.766 361.435 207.045 360.514 207.045 359.572C207.045 358.309 206.543 357.097 205.65 356.204C204.757 355.311 203.545 354.809 202.282 354.809ZM200.746 360.441C200.314 360.441 199.892 360.313 199.533 360.073C199.174 359.833 198.894 359.492 198.729 359.093C198.564 358.694 198.521 358.256 198.605 357.832C198.689 357.409 198.897 357.02 199.202 356.714C199.508 356.409 199.897 356.201 200.32 356.117C200.744 356.033 201.183 356.076 201.581 356.241C201.98 356.406 202.321 356.686 202.561 357.045C202.801 357.404 202.929 357.826 202.929 358.258C202.929 358.837 202.699 359.392 202.29 359.802C201.88 360.211 201.325 360.441 200.746 360.441Z" fill="#4A4B4D"/>
<path d="M194.265 385.834C194.265 382.127 191.26 376.734 187.553 376.734C183.846 376.734 180.841 382.128 180.841 385.834C180.841 389.54 183.841 389.689 187.553 389.689C191.265 389.689 194.265 389.541 194.265 385.834Z" fill="#4A4B4D"/>
<path d="M188.282 406.388C199.361 406.388 208.342 401.631 208.342 395.762C208.342 393.503 207.008 391.41 204.742 389.689C205.57 390.777 206.03 392.101 206.056 393.468C206.056 399.336 197.075 404.093 185.995 404.093C179.181 404.093 173.164 402.293 169.538 399.541C172.415 403.545 179.72 406.388 188.282 406.388Z" fill="#4A4B4D"/>
<path d="M152.687 359.404C153.087 363.237 154.387 366.175 156.081 366.749C158.282 367.399 160.565 367.736 162.86 367.749C162.536 367.013 162.261 366.257 162.036 365.486C160.336 359.626 161.722 353.738 165.16 350.073C163.683 349.939 162.191 349.864 160.737 349.864C158.976 349.729 157.206 349.944 155.529 350.496C155.03 350.771 154.6 351.156 154.272 351.622C154.942 351.869 155.569 352.217 156.134 352.654C156.093 352.728 156.047 352.798 156.002 352.873C154.767 354.982 153.66 357.162 152.687 359.404Z" fill="#4A4B4D"/>
<path d="M212.938 365.156C212.691 366.045 212.376 366.914 211.998 367.756C214.375 367.757 216.74 367.416 219.021 366.745C220.709 366.171 222.011 363.245 222.413 359.413C221.397 357.106 220.239 354.863 218.946 352.699C219.522 352.254 220.156 351.89 220.831 351.617C220.502 351.151 220.072 350.765 219.573 350.489C217.895 349.938 216.125 349.723 214.365 349.858C212.897 349.858 211.392 349.935 209.903 350.071C213.188 353.716 214.521 359.436 212.938 365.156Z" fill="#4A4B4D"/>
<path d="M237.842 357.55C236.784 354.461 235.043 351.652 232.748 349.33C232.695 349.567 232.628 349.801 232.548 350.03C232.122 351.072 231.32 351.915 230.301 352.392C229.613 352.786 229.521 352.862 229.451 353.292L229.37 353.792C230.981 355.3 232.196 357.181 232.908 359.27C234.948 365.112 232.908 371.143 228.345 372.734C227.803 372.923 227.239 373.044 226.667 373.093C226.651 373.01 226.639 372.928 226.622 372.841C226.303 371.135 225.901 369.427 225.422 367.729C224.475 369.494 222.929 370.863 221.062 371.588C217.547 372.652 213.886 373.158 210.214 373.088C209.58 373.088 208.948 373.074 208.321 373.05C208.266 373.103 208.216 373.16 208.161 373.212C214.261 377.454 218.108 383.571 218.154 390.398C218.236 403.334 204.654 413.908 187.805 414.02C170.956 414.132 157.238 403.73 157.151 390.794C157.11 383.967 160.874 377.801 166.917 373.481C166.771 373.346 166.632 373.2 166.49 373.059C165.96 373.077 165.427 373.089 164.89 373.089C161.218 373.159 157.558 372.653 154.043 371.589C152.193 370.872 150.657 369.521 149.71 367.778C149.201 369.629 148.777 371.492 148.454 373.353C148.07 375.527 147.823 377.723 147.716 379.928C147.666 380.823 147.65 381.713 147.654 382.595C147.802 405.577 164.854 419.242 187.835 419.095C210.816 418.948 227.686 405.059 227.535 382.076C227.535 381.276 227.502 380.476 227.453 379.665C228.51 379.612 229.554 379.408 230.553 379.059C237.837 376.517 241.102 366.887 237.842 357.55Z" fill="#4A4B4D"/>
<path d="M179.036 347.049C179.493 347.213 179.941 347.402 180.377 347.616C184.869 348.49 189.484 348.529 193.99 347.73C195.087 347.124 196.266 346.68 197.49 346.412C201.92 344.623 206.549 343.374 211.277 342.693C211.126 342.54 210.977 342.383 210.826 342.232C208.759 340.185 200.71 333.888 199.841 333.132C196.83 330.514 188.741 323.905 186.848 314C185.249 316.061 184.37 318.591 184.348 321.2C184.314 323.955 184.962 326.675 186.235 329.118C184.053 327.829 180.235 321.363 179.435 316.743C176.677 320.757 177.511 329.243 178.686 331.608C175.472 330.275 172.872 324.521 172.817 322.131C171.203 324.156 169.299 330.886 172.255 335.931C169.118 337.785 166.246 340.054 163.717 342.678C169.003 343.408 174.161 344.879 179.036 347.049Z" fill="#4A4B4D"/>
<path d="M148.469 373.099C147.887 373.052 147.313 372.93 146.762 372.737C142.199 371.146 140.162 365.115 142.199 359.273C142.911 357.184 144.126 355.303 145.737 353.795L145.657 353.295C145.587 352.864 145.495 352.789 144.807 352.395C143.788 351.918 142.986 351.075 142.56 350.033C142.479 349.804 142.413 349.57 142.36 349.333C140.065 351.654 138.323 354.464 137.266 357.553C134.005 366.89 137.266 376.52 144.554 379.064C145.565 379.418 146.621 379.623 147.691 379.674C147.812 377.468 148.072 375.272 148.469 373.099Z" fill="#4A4B4D"/>
<path d="M229.701 343.836C227.001 342.825 214.539 344.168 214.539 344.168C207.377 344.798 199.757 347.089 195.745 349.294C195.563 349.33 195.352 349.373 195.095 349.422C190.092 350.399 184.947 350.399 179.944 349.422C179.732 349.381 179.544 349.345 179.388 349.313C175.388 347.103 167.744 344.8 160.561 344.169C160.561 344.169 148.103 342.826 145.398 343.837C143.626 344.5 143.823 348.111 144.298 349.395C144.905 351.051 147.098 350.633 147.484 352.995C148.264 357.782 149.606 368.122 154.64 369.835C157.963 370.834 161.421 371.308 164.89 371.24C169.156 371.307 173.403 370.657 177.453 369.315C182.953 367.265 184.294 361.477 184.208 357.143C184.201 356.698 184.351 356.264 184.633 355.919C184.914 355.574 185.308 355.34 185.746 355.258C186.329 355.131 186.923 355.059 187.519 355.043C188.136 355.061 188.749 355.137 189.351 355.271C189.789 355.353 190.184 355.587 190.466 355.932C190.748 356.277 190.898 356.711 190.891 357.156C190.808 361.489 192.147 367.268 197.647 369.316C201.697 370.658 205.945 371.308 210.211 371.241C213.68 371.309 217.138 370.835 220.461 369.836C225.495 368.123 226.836 357.782 227.617 352.996C228.002 350.631 230.196 351.05 230.803 349.396C231.276 348.11 231.474 344.499 229.701 343.836ZM176.568 367.843C170.93 369.792 160.837 370.326 155.483 368.504C152.383 367.45 150.702 362.529 150.702 356.904C150.702 352.779 152.988 349.587 154.778 348.796C156.689 348.126 158.717 347.857 160.736 348.006C167.307 348.006 175.05 349.426 178.73 351.688C179.539 352.132 180.234 352.757 180.762 353.514C181.289 354.271 181.634 355.14 181.769 356.053C181.95 358.675 182.286 365.866 176.568 367.843ZM219.622 368.504C214.269 370.325 204.175 369.791 198.537 367.843C192.819 365.866 193.155 358.675 193.337 356.056C193.473 355.143 193.818 354.274 194.345 353.517C194.872 352.76 195.567 352.135 196.376 351.691C200.056 349.429 207.799 348.009 214.37 348.009C216.389 347.86 218.418 348.129 220.328 348.799C222.118 349.59 224.403 352.782 224.403 356.907C224.403 362.53 222.722 367.45 219.622 368.504Z" fill="#FC6011"/>
<path d="M80.9702 444.273H87.4176L94.2273 460.886H94.5171L101.327 444.273H107.774V469H102.703V452.906H102.498L96.0987 468.879H92.6456L86.2465 452.845H86.0412V469H80.9702V444.273ZM120.437 469.362C118.529 469.362 116.887 468.976 115.51 468.203C114.142 467.422 113.088 466.32 112.347 464.895C111.607 463.462 111.236 461.768 111.236 459.812C111.236 457.904 111.607 456.23 112.347 454.789C113.088 453.348 114.13 452.225 115.474 451.42C116.827 450.616 118.412 450.213 120.231 450.213C121.455 450.213 122.594 450.41 123.648 450.805C124.711 451.191 125.636 451.775 126.425 452.555C127.222 453.336 127.842 454.318 128.285 455.501C128.727 456.677 128.949 458.053 128.949 459.631V461.043H113.289V457.856H124.107C124.107 457.115 123.946 456.459 123.624 455.888C123.302 455.316 122.855 454.87 122.284 454.548C121.72 454.218 121.064 454.053 120.316 454.053C119.535 454.053 118.843 454.234 118.239 454.596C117.644 454.95 117.177 455.429 116.839 456.033C116.501 456.628 116.327 457.292 116.319 458.025V461.055C116.319 461.973 116.488 462.766 116.827 463.434C117.173 464.102 117.66 464.617 118.287 464.979C118.915 465.342 119.66 465.523 120.521 465.523C121.093 465.523 121.616 465.442 122.091 465.281C122.566 465.12 122.972 464.879 123.31 464.557C123.648 464.235 123.906 463.84 124.083 463.374L128.84 463.688C128.599 464.83 128.104 465.829 127.355 466.682C126.614 467.527 125.657 468.187 124.481 468.662C123.314 469.129 121.966 469.362 120.437 469.362ZM137.594 469.35C136.41 469.35 135.356 469.145 134.43 468.734C133.505 468.316 132.772 467.7 132.233 466.887C131.702 466.066 131.436 465.044 131.436 463.82C131.436 462.79 131.625 461.925 132.003 461.224C132.382 460.524 132.897 459.961 133.549 459.534C134.201 459.107 134.941 458.786 135.77 458.568C136.608 458.351 137.485 458.198 138.403 458.109C139.481 457.997 140.35 457.892 141.01 457.795C141.671 457.691 142.149 457.538 142.447 457.337C142.745 457.135 142.894 456.838 142.894 456.443V456.371C142.894 455.606 142.653 455.014 142.17 454.596C141.695 454.177 141.019 453.968 140.141 453.968C139.216 453.968 138.479 454.173 137.932 454.584C137.384 454.986 137.022 455.493 136.845 456.105L132.088 455.719C132.329 454.592 132.804 453.618 133.513 452.797C134.221 451.968 135.135 451.332 136.253 450.889C137.38 450.438 138.684 450.213 140.165 450.213C141.196 450.213 142.182 450.334 143.123 450.575C144.073 450.817 144.914 451.191 145.647 451.698C146.387 452.205 146.971 452.857 147.398 453.654C147.824 454.443 148.037 455.389 148.037 456.491V469H143.16V466.428H143.015C142.717 467.008 142.319 467.519 141.819 467.962C141.32 468.396 140.721 468.738 140.02 468.988C139.32 469.229 138.511 469.35 137.594 469.35ZM139.067 465.8C139.823 465.8 140.491 465.652 141.071 465.354C141.65 465.048 142.105 464.637 142.435 464.122C142.765 463.607 142.93 463.023 142.93 462.371V460.403C142.769 460.508 142.548 460.605 142.266 460.693C141.993 460.774 141.683 460.85 141.336 460.923C140.99 460.987 140.644 461.047 140.298 461.104C139.952 461.152 139.638 461.196 139.356 461.237C138.753 461.325 138.225 461.466 137.775 461.659C137.324 461.852 136.974 462.114 136.724 462.444C136.475 462.766 136.35 463.168 136.35 463.651C136.35 464.352 136.604 464.887 137.111 465.257C137.626 465.619 138.278 465.8 139.067 465.8ZM157.171 444.273V469H152.028V444.273H157.171Z" fill="#FC6011"/>
<path d="M164.704 444.273H171.152L177.961 460.886H178.251L185.061 444.273H191.508V469H186.437V452.906H186.232L179.833 468.879H176.38L169.98 452.845H169.775V469H164.704V444.273ZM204.098 469.362C202.223 469.362 200.601 468.964 199.232 468.167C197.872 467.362 196.822 466.243 196.081 464.81C195.341 463.37 194.97 461.699 194.97 459.8C194.97 457.884 195.341 456.21 196.081 454.777C196.822 453.336 197.872 452.217 199.232 451.42C200.601 450.616 202.223 450.213 204.098 450.213C205.974 450.213 207.591 450.616 208.952 451.42C210.32 452.217 211.375 453.336 212.115 454.777C212.856 456.21 213.226 457.884 213.226 459.8C213.226 461.699 212.856 463.37 212.115 464.81C211.375 466.243 210.32 467.362 208.952 468.167C207.591 468.964 205.974 469.362 204.098 469.362ZM204.122 465.378C204.975 465.378 205.688 465.136 206.259 464.653C206.831 464.162 207.261 463.494 207.551 462.649C207.849 461.804 207.998 460.842 207.998 459.763C207.998 458.685 207.849 457.723 207.551 456.878C207.261 456.033 206.831 455.365 206.259 454.874C205.688 454.383 204.975 454.137 204.122 454.137C203.261 454.137 202.537 454.383 201.949 454.874C201.369 455.365 200.931 456.033 200.633 456.878C200.343 457.723 200.198 458.685 200.198 459.763C200.198 460.842 200.343 461.804 200.633 462.649C200.931 463.494 201.369 464.162 201.949 464.653C202.537 465.136 203.261 465.378 204.122 465.378ZM221.714 458.278V469H216.57V450.455H221.472V453.727H221.69C222.1 452.648 222.788 451.795 223.754 451.167C224.72 450.531 225.891 450.213 227.268 450.213C228.556 450.213 229.679 450.495 230.636 451.058C231.594 451.622 232.339 452.427 232.87 453.473C233.401 454.511 233.667 455.751 233.667 457.192V469H228.524V458.109C228.532 456.974 228.242 456.089 227.654 455.453C227.067 454.809 226.258 454.487 225.227 454.487C224.535 454.487 223.923 454.636 223.392 454.934C222.869 455.232 222.458 455.666 222.161 456.238C221.871 456.801 221.722 457.482 221.714 458.278ZM242.381 463.663L242.393 457.494H243.142L249.082 450.455H254.986L247.006 459.776H245.786L242.381 463.663ZM237.721 469V444.273H242.864V469H237.721ZM249.312 469L243.854 460.923L247.283 457.288L255.337 469H249.312ZM265.198 469.362C263.29 469.362 261.648 468.976 260.272 468.203C258.903 467.422 257.849 466.32 257.108 464.895C256.368 463.462 255.998 461.768 255.998 459.812C255.998 457.904 256.368 456.23 257.108 454.789C257.849 453.348 258.891 452.225 260.236 451.42C261.588 450.616 263.173 450.213 264.993 450.213C266.216 450.213 267.355 450.41 268.41 450.805C269.472 451.191 270.398 451.775 271.187 452.555C271.983 453.336 272.603 454.318 273.046 455.501C273.489 456.677 273.71 458.053 273.71 459.631V461.043H258.05V457.856H268.868C268.868 457.115 268.707 456.459 268.385 455.888C268.063 455.316 267.617 454.87 267.045 454.548C266.482 454.218 265.826 454.053 265.077 454.053C264.296 454.053 263.604 454.234 263 454.596C262.405 454.95 261.938 455.429 261.6 456.033C261.262 456.628 261.089 457.292 261.081 458.025V461.055C261.081 461.973 261.25 462.766 261.588 463.434C261.934 464.102 262.421 464.617 263.049 464.979C263.677 465.342 264.421 465.523 265.282 465.523C265.854 465.523 266.377 465.442 266.852 465.281C267.327 465.12 267.733 464.879 268.071 464.557C268.41 464.235 268.667 463.84 268.844 463.374L273.601 463.688C273.36 464.83 272.865 465.829 272.116 466.682C271.376 467.527 270.418 468.187 269.243 468.662C268.075 469.129 266.727 469.362 265.198 469.362ZM279.744 475.955C279.092 475.955 278.48 475.902 277.909 475.798C277.345 475.701 276.878 475.576 276.508 475.423L277.667 471.584C278.271 471.769 278.814 471.87 279.297 471.886C279.788 471.902 280.211 471.789 280.565 471.548C280.927 471.306 281.221 470.896 281.446 470.316L281.748 469.531L275.095 450.455H280.505L284.344 464.074H284.537L288.413 450.455H293.858L286.65 471.004C286.304 472.002 285.833 472.872 285.237 473.612C284.65 474.361 283.905 474.936 283.004 475.339C282.102 475.749 281.016 475.955 279.744 475.955Z" fill="#4A4B4D"/>
<path d="M133.852 496V488.727H138.212V489.509H134.732V491.966H137.886V492.747H134.732V496H133.852ZM145.857 492.364C145.857 493.131 145.719 493.794 145.442 494.352C145.165 494.911 144.785 495.342 144.302 495.645C143.819 495.948 143.267 496.099 142.647 496.099C142.027 496.099 141.475 495.948 140.992 495.645C140.509 495.342 140.129 494.911 139.852 494.352C139.575 493.794 139.437 493.131 139.437 492.364C139.437 491.597 139.575 490.934 139.852 490.375C140.129 489.816 140.509 489.385 140.992 489.082C141.475 488.779 142.027 488.628 142.647 488.628C143.267 488.628 143.819 488.779 144.302 489.082C144.785 489.385 145.165 489.816 145.442 490.375C145.719 490.934 145.857 491.597 145.857 492.364ZM145.005 492.364C145.005 491.734 144.9 491.202 144.689 490.769C144.48 490.336 144.198 490.008 143.84 489.786C143.485 489.563 143.087 489.452 142.647 489.452C142.207 489.452 141.808 489.563 141.45 489.786C141.095 490.008 140.812 490.336 140.601 490.769C140.393 491.202 140.289 491.734 140.289 492.364C140.289 492.993 140.393 493.525 140.601 493.958C140.812 494.391 141.095 494.719 141.45 494.942C141.808 495.164 142.207 495.276 142.647 495.276C143.087 495.276 143.485 495.164 143.84 494.942C144.198 494.719 144.48 494.391 144.689 493.958C144.9 493.525 145.005 492.993 145.005 492.364ZM153.474 492.364C153.474 493.131 153.336 493.794 153.059 494.352C152.782 494.911 152.402 495.342 151.919 495.645C151.436 495.948 150.884 496.099 150.264 496.099C149.644 496.099 149.092 495.948 148.609 495.645C148.126 495.342 147.746 494.911 147.469 494.352C147.192 493.794 147.054 493.131 147.054 492.364C147.054 491.597 147.192 490.934 147.469 490.375C147.746 489.816 148.126 489.385 148.609 489.082C149.092 488.779 149.644 488.628 150.264 488.628C150.884 488.628 151.436 488.779 151.919 489.082C152.402 489.385 152.782 489.816 153.059 490.375C153.336 490.934 153.474 491.597 153.474 492.364ZM152.622 492.364C152.622 491.734 152.517 491.202 152.306 490.769C152.098 490.336 151.815 490.008 151.457 489.786C151.102 489.563 150.704 489.452 150.264 489.452C149.824 489.452 149.425 489.563 149.067 489.786C148.712 490.008 148.429 490.336 148.219 490.769C148.01 491.202 147.906 491.734 147.906 492.364C147.906 492.993 148.01 493.525 148.219 493.958C148.429 494.391 148.712 494.719 149.067 494.942C149.425 495.164 149.824 495.276 150.264 495.276C150.704 495.276 151.102 495.164 151.457 494.942C151.815 494.719 152.098 494.391 152.306 493.958C152.517 493.525 152.622 492.993 152.622 492.364ZM157.199 496H154.955V488.727H157.299C158.004 488.727 158.608 488.873 159.11 489.164C159.612 489.453 159.997 489.868 160.264 490.411C160.532 490.95 160.665 491.597 160.665 492.349C160.665 493.107 160.53 493.759 160.261 494.306C159.991 494.851 159.598 495.27 159.082 495.563C158.565 495.854 157.938 496 157.199 496ZM155.836 495.219H157.143C157.744 495.219 158.242 495.103 158.638 494.871C159.033 494.639 159.328 494.308 159.522 493.88C159.716 493.451 159.813 492.941 159.813 492.349C159.813 491.762 159.717 491.257 159.525 490.833C159.334 490.407 159.047 490.08 158.666 489.853C158.285 489.623 157.81 489.509 157.242 489.509H155.836V495.219ZM167.199 496H164.955V488.727H167.299C168.004 488.727 168.608 488.873 169.11 489.164C169.612 489.453 169.997 489.868 170.264 490.411C170.532 490.95 170.665 491.597 170.665 492.349C170.665 493.107 170.53 493.759 170.261 494.306C169.991 494.851 169.598 495.27 169.082 495.563C168.565 495.854 167.938 496 167.199 496ZM165.836 495.219H167.143C167.744 495.219 168.242 495.103 168.638 494.871C169.033 494.639 169.328 494.308 169.522 493.88C169.716 493.451 169.813 492.941 169.813 492.349C169.813 491.762 169.717 491.257 169.525 490.833C169.334 490.407 169.047 490.08 168.666 489.853C168.285 489.623 167.81 489.509 167.242 489.509H165.836V495.219ZM172.143 496V488.727H176.532V489.509H173.023V491.966H176.305V492.747H173.023V495.219H176.589V496H172.143ZM178.119 496V488.727H179V495.219H182.381V496H178.119ZM184.625 488.727V496H183.744V488.727H184.625ZM186.689 488.727L188.848 494.849H188.933L191.092 488.727H192.016L189.345 496H188.436L185.766 488.727H186.689ZM193.149 496V488.727H197.538V489.509H194.029V491.966H197.31V492.747H194.029V495.219H197.595V496H193.149ZM199.125 496V488.727H201.582C202.151 488.727 202.617 488.824 202.982 489.018C203.346 489.21 203.616 489.474 203.791 489.81C203.966 490.147 204.054 490.529 204.054 490.957C204.054 491.386 203.966 491.766 203.791 492.097C203.616 492.429 203.347 492.689 202.985 492.879C202.623 493.066 202.16 493.159 201.597 493.159H199.608V492.364H201.568C201.957 492.364 202.269 492.307 202.506 492.193C202.745 492.08 202.918 491.919 203.024 491.71C203.133 491.5 203.188 491.249 203.188 490.957C203.188 490.666 203.133 490.412 203.024 490.194C202.915 489.976 202.741 489.808 202.502 489.69C202.263 489.569 201.947 489.509 201.554 489.509H200.006V496H199.125ZM202.548 492.733L204.338 496H203.315L201.554 492.733H202.548ZM204.652 488.727H205.661L207.678 492.122H207.763L209.78 488.727H210.789L208.161 493.003V496H207.28V493.003L204.652 488.727Z" fill="#4A4B4D"/>
<path opacity="0.28" d="M358 406H291C286.837 406.002 282.817 404.476 279.705 401.711C276.593 398.946 274.604 395.135 274.116 391H273.899C270.695 370.385 260.226 351.594 244.382 338.022C228.537 324.449 208.362 316.989 187.499 316.989C166.636 316.989 146.461 324.449 130.616 338.022C114.772 351.594 104.303 370.385 101.099 391H100.88C100.393 395.134 98.4046 398.946 95.293 401.711C92.1813 404.476 88.1627 406.002 84 406H17C12.8366 406.003 8.81719 404.477 5.70459 401.712C2.59199 398.946 0.603102 395.135 0.115234 391H0V24H375V391H374.882C374.395 395.134 372.407 398.946 369.294 401.711C366.182 404.476 362.163 406.003 358 406Z" fill="#4A4B4D"/>
<path d="M358 382H291C286.837 382.002 282.817 380.476 279.705 377.711C276.593 374.946 274.604 371.135 274.116 367H273.899C270.695 346.385 260.226 327.594 244.382 314.022C228.537 300.449 208.362 292.989 187.499 292.989C166.636 292.989 146.461 300.449 130.616 314.022C114.772 327.594 104.303 346.385 101.099 367H100.88C100.393 371.134 98.4046 374.946 95.293 377.711C92.1813 380.476 88.1627 382.002 84 382H17C12.8366 382.003 8.81719 380.477 5.70459 377.712C2.59199 374.946 0.603102 371.135 0.115234 367H0V0H375V367H374.882C374.395 371.134 372.407 374.946 369.294 377.711C366.182 380.476 362.163 382.003 358 382Z" fill="#FC6011"/>
<mask id="mask0_55_39" style="mask-type:luminance" maskUnits="userSpaceOnUse" x="0" y="0" width="375" height="382">
<path d="M358 382H291C286.837 382.002 282.817 380.476 279.705 377.711C276.593 374.946 274.604 371.135 274.116 367H273.899C270.695 346.385 260.226 327.594 244.382 314.022C228.537 300.449 208.362 292.989 187.499 292.989C166.636 292.989 146.461 300.449 130.616 314.022C114.772 327.594 104.303 346.385 101.099 367H100.88C100.393 371.134 98.4046 374.946 95.293 377.711C92.1813 380.476 88.1627 382.002 84 382H17C12.8366 382.003 8.81719 380.477 5.70459 377.712C2.59199 374.946 0.603102 371.135 0.115234 367H0V0H375V367H374.882C374.395 371.134 372.407 374.946 369.294 377.711C366.182 380.476 362.163 382.003 358 382Z" fill="white"/>
</mask>
<g mask="url(#mask0_55_39)">
<path opacity="0.14" d="M28 123C77.1534 123 117 83.1534 117 34C117 -15.1533 77.1534 -55 28 -55C-21.1533 -55 -61 -15.1533 -61 34C-61 83.1534 -21.1533 123 28 123Z" fill="white"/>
<path opacity="0.14" d="M310.5 130C390.305 130 455 65.3051 455 -14.5C455 -94.3051 390.305 -159 310.5 -159C230.695 -159 166 -94.3051 166 -14.5C166 65.3051 230.695 130 310.5 130Z" fill="white"/>
<path opacity="0.14" d="M73.5 182C102.495 182 126 158.495 126 129.5C126 100.505 102.495 77 73.5 77C44.5051 77 21 100.505 21 129.5C21 158.495 44.5051 182 73.5 182Z" fill="white"/>
<path opacity="0.21" d="M160 136C164.971 136 169 131.971 169 127C169 122.029 164.971 118 160 118C155.029 118 151 122.029 151 127C151 131.971 155.029 136 160 136Z" fill="white"/>
<path opacity="0.21" d="M159.5 232C163.09 232 166 229.09 166 225.5C166 221.91 163.09 219 159.5 219C155.91 219 153 221.91 153 225.5C153 229.09 155.91 232 159.5 232Z" fill="white"/>
<path opacity="0.21" d="M371.5 349C377.299 349 382 344.299 382 338.5C382 332.701 377.299 328 371.5 328C365.701 328 361 332.701 361 338.5C361 344.299 365.701 349 371.5 349Z" fill="white"/>
<path opacity="0.21" d="M238.5 159C246.508 159 253 152.508 253 144.5C253 136.492 246.508 130 238.5 130C230.492 130 224 136.492 224 144.5C224 152.508 230.492 159 238.5 159Z" fill="white"/>
<path opacity="0.14" d="M28 451C92.065 451 144 399.065 144 335C144 270.935 92.065 219 28 219C-36.065 219 -88 270.935 -88 335C-88 399.065 -36.065 451 28 451Z" fill="white"/>
<g opacity="0.18">
<path d="M424.12 256.176C424.12 260.348 420.408 263.753 415.879 263.753H232.241C227.712 263.753 224 260.348 224 256.176C224 252.021 227.712 248.633 232.241 248.633H415.879C420.408 248.629 424.12 252.017 424.12 256.176ZM333.672 161.161C333.558 158.695 332.5 156.367 330.717 154.66C328.933 152.952 326.562 151.997 324.093 151.99C321.624 151.983 319.247 152.927 317.455 154.625C315.663 156.322 314.592 158.644 314.465 161.11C320.844 160.321 327.297 160.339 333.672 161.161ZM408.489 241.938H239.631C241.306 220.695 250.927 200.864 266.576 186.4C282.225 171.936 302.751 163.904 324.06 163.904C345.369 163.904 365.895 171.936 381.544 186.4C397.193 200.864 406.814 220.695 408.489 241.938ZM314.397 171.326C314.397 171.326 267.062 181.644 252.929 234.054H270.829C270.829 234.054 280.734 190.345 314.397 171.326Z" fill="white"/>
</g>
</g>
</svg>
