<svg width="375" height="498" viewBox="0 0 375 498" fill="none" xmlns="http://www.w3.org/2000/svg">
<path d="M177.587 359.572C177.587 358.63 177.308 357.709 176.784 356.926C176.261 356.143 175.517 355.532 174.647 355.172C173.776 354.811 172.819 354.717 171.895 354.9C170.971 355.084 170.122 355.538 169.456 356.204C168.79 356.87 168.336 357.719 168.153 358.643C167.969 359.567 168.063 360.524 168.424 361.395C168.784 362.265 169.395 363.009 170.178 363.532C170.961 364.056 171.882 364.335 172.824 364.335C174.087 364.335 175.299 363.833 176.192 362.94C177.085 362.047 177.587 360.835 177.587 359.572ZM171.287 360.44C170.855 360.44 170.433 360.312 170.074 360.072C169.715 359.832 169.435 359.491 169.27 359.092C169.105 358.693 169.062 358.255 169.146 357.831C169.23 357.408 169.438 357.019 169.743 356.713C170.049 356.408 170.438 356.2 170.861 356.116C171.285 356.032 171.724 356.075 172.122 356.24C172.521 356.405 172.862 356.685 173.102 357.044C173.342 357.403 173.47 357.825 173.47 358.257C173.47 358.544 173.414 358.828 173.304 359.092C173.195 359.357 173.034 359.598 172.831 359.801C172.629 360.004 172.388 360.165 172.123 360.274C171.859 360.384 171.575 360.441 171.288 360.441L171.287 360.44Z" fill="#4A4B4D"/>
<path d="M202.282 354.809C201.34 354.809 200.419 355.088 199.636 355.612C198.853 356.135 198.242 356.879 197.882 357.749C197.521 358.62 197.427 359.577 197.611 360.501C197.794 361.425 198.248 362.274 198.914 362.94C199.58 363.606 200.429 364.06 201.353 364.243C202.277 364.427 203.234 364.333 204.105 363.972C204.975 363.612 205.719 363.001 206.242 362.218C206.766 361.435 207.045 360.514 207.045 359.572C207.045 358.309 206.543 357.097 205.65 356.204C204.757 355.311 203.545 354.809 202.282 354.809ZM200.746 360.441C200.314 360.441 199.892 360.313 199.533 360.073C199.174 359.833 198.894 359.492 198.729 359.093C198.564 358.694 198.521 358.256 198.605 357.832C198.689 357.409 198.897 357.02 199.202 356.714C199.508 356.409 199.897 356.201 200.32 356.117C200.744 356.033 201.183 356.076 201.581 356.241C201.98 356.406 202.321 356.686 202.561 357.045C202.801 357.404 202.929 357.826 202.929 358.258C202.929 358.837 202.699 359.392 202.29 359.802C201.88 360.211 201.325 360.441 200.746 360.441Z" fill="#4A4B4D"/>
<path d="M194.265 385.834C194.265 382.127 191.26 376.734 187.553 376.734C183.846 376.734 180.841 382.128 180.841 385.834C180.841 389.54 183.841 389.689 187.553 389.689C191.265 389.689 194.265 389.541 194.265 385.834Z" fill="#4A4B4D"/>
<path d="M188.282 406.388C199.361 406.388 208.342 401.631 208.342 395.762C208.342 393.503 207.008 391.41 204.742 389.689C205.57 390.777 206.03 392.101 206.056 393.468C206.056 399.336 197.075 404.093 185.995 404.093C179.181 404.093 173.164 402.293 169.538 399.541C172.415 403.545 179.72 406.388 188.282 406.388Z" fill="#4A4B4D"/>
<path d="M152.687 359.404C153.087 363.237 154.387 366.175 156.081 366.749C158.282 367.399 160.565 367.736 162.86 367.749C162.536 367.013 162.261 366.257 162.036 365.486C160.336 359.626 161.722 353.738 165.16 350.073C163.683 349.939 162.191 349.864 160.737 349.864C158.976 349.729 157.206 349.944 155.529 350.496C155.03 350.771 154.6 351.156 154.272 351.622C154.942 351.869 155.569 352.217 156.134 352.654C156.093 352.728 156.047 352.798 156.002 352.873C154.767 354.982 153.66 357.162 152.687 359.404Z" fill="#4A4B4D"/>
<path d="M212.938 365.156C212.691 366.045 212.377 366.914 211.998 367.756C214.375 367.757 216.74 367.416 219.021 366.745C220.709 366.171 222.011 363.245 222.413 359.413C221.397 357.106 220.239 354.863 218.946 352.699C219.522 352.254 220.156 351.89 220.831 351.617C220.503 351.151 220.072 350.765 219.573 350.489C217.896 349.938 216.126 349.723 214.365 349.858C212.897 349.858 211.392 349.935 209.903 350.071C213.188 353.716 214.521 359.436 212.938 365.156Z" fill="#4A4B4D"/>
<path d="M237.842 357.55C236.784 354.461 235.043 351.652 232.748 349.33C232.695 349.567 232.628 349.801 232.548 350.03C232.122 351.072 231.32 351.915 230.301 352.392C229.613 352.786 229.521 352.862 229.451 353.292L229.37 353.792C230.981 355.3 232.196 357.181 232.908 359.27C234.948 365.112 232.908 371.143 228.345 372.734C227.803 372.923 227.239 373.044 226.667 373.093C226.651 373.01 226.639 372.928 226.622 372.841C226.303 371.135 225.901 369.427 225.422 367.729C224.475 369.494 222.929 370.863 221.062 371.588C217.547 372.652 213.886 373.158 210.214 373.088C209.58 373.088 208.948 373.074 208.321 373.05C208.266 373.103 208.216 373.16 208.161 373.212C214.261 377.454 218.108 383.571 218.154 390.398C218.236 403.334 204.654 413.908 187.805 414.02C170.956 414.132 157.238 403.73 157.151 390.794C157.11 383.967 160.874 377.801 166.917 373.481C166.771 373.346 166.632 373.2 166.49 373.059C165.96 373.077 165.427 373.089 164.89 373.089C161.218 373.159 157.558 372.653 154.043 371.589C152.193 370.872 150.657 369.521 149.71 367.778C149.201 369.629 148.777 371.492 148.454 373.353C148.07 375.527 147.823 377.723 147.716 379.928C147.666 380.823 147.65 381.713 147.654 382.595C147.802 405.577 164.854 419.242 187.835 419.095C210.816 418.948 227.686 405.059 227.535 382.076C227.535 381.276 227.502 380.476 227.453 379.665C228.51 379.612 229.554 379.408 230.553 379.059C237.837 376.517 241.102 366.887 237.842 357.55Z" fill="#4A4B4D"/>
<path d="M179.036 347.049C179.493 347.213 179.941 347.402 180.377 347.616C184.869 348.49 189.484 348.529 193.99 347.73C195.087 347.124 196.266 346.68 197.49 346.412C201.92 344.623 206.549 343.374 211.277 342.693C211.126 342.54 210.977 342.383 210.826 342.232C208.759 340.185 200.71 333.888 199.841 333.132C196.83 330.514 188.741 323.905 186.848 314C185.249 316.061 184.37 318.591 184.348 321.2C184.314 323.955 184.962 326.675 186.235 329.118C184.053 327.829 180.235 321.363 179.435 316.743C176.677 320.757 177.511 329.243 178.686 331.608C175.472 330.275 172.872 324.521 172.817 322.131C171.203 324.156 169.299 330.886 172.255 335.931C169.118 337.785 166.246 340.054 163.717 342.678C169.003 343.408 174.161 344.879 179.036 347.049Z" fill="#4A4B4D"/>
<path d="M148.469 373.099C147.887 373.052 147.313 372.93 146.762 372.737C142.199 371.146 140.162 365.115 142.199 359.273C142.911 357.184 144.126 355.303 145.737 353.795L145.657 353.295C145.587 352.864 145.495 352.789 144.807 352.395C143.788 351.918 142.986 351.075 142.56 350.033C142.48 349.804 142.413 349.57 142.36 349.333C140.065 351.654 138.323 354.464 137.266 357.553C134.005 366.89 137.266 376.52 144.554 379.064C145.565 379.418 146.621 379.624 147.691 379.674C147.812 377.468 148.072 375.272 148.469 373.099Z" fill="#4A4B4D"/>
<path d="M229.701 343.836C227.001 342.825 214.539 344.168 214.539 344.168C207.377 344.798 199.757 347.089 195.745 349.294C195.563 349.33 195.352 349.373 195.095 349.422C190.092 350.399 184.947 350.399 179.944 349.422C179.732 349.381 179.544 349.345 179.388 349.313C175.388 347.103 167.744 344.8 160.561 344.169C160.561 344.169 148.103 342.826 145.398 343.837C143.626 344.5 143.823 348.111 144.298 349.395C144.905 351.051 147.098 350.633 147.484 352.995C148.264 357.782 149.606 368.122 154.64 369.835C157.963 370.834 161.421 371.308 164.89 371.24C169.156 371.307 173.403 370.657 177.453 369.315C182.953 367.265 184.294 361.477 184.208 357.143C184.201 356.698 184.351 356.264 184.633 355.919C184.914 355.574 185.308 355.34 185.746 355.258C186.329 355.131 186.923 355.059 187.519 355.043C188.136 355.061 188.749 355.137 189.351 355.271C189.789 355.353 190.184 355.587 190.466 355.932C190.748 356.277 190.898 356.711 190.891 357.156C190.808 361.489 192.147 367.268 197.647 369.316C201.697 370.658 205.945 371.308 210.211 371.241C213.68 371.309 217.138 370.835 220.461 369.836C225.495 368.123 226.836 357.782 227.617 352.996C228.002 350.631 230.196 351.05 230.803 349.396C231.276 348.11 231.474 344.499 229.701 343.836ZM176.568 367.843C170.93 369.792 160.837 370.326 155.483 368.504C152.383 367.45 150.702 362.529 150.702 356.904C150.702 352.779 152.988 349.587 154.778 348.796C156.689 348.126 158.717 347.857 160.736 348.006C167.307 348.006 175.05 349.426 178.73 351.688C179.539 352.132 180.234 352.757 180.762 353.514C181.289 354.271 181.634 355.14 181.769 356.053C181.95 358.675 182.286 365.866 176.568 367.843ZM219.622 368.504C214.269 370.325 204.175 369.791 198.537 367.843C192.819 365.866 193.155 358.675 193.337 356.056C193.473 355.143 193.818 354.274 194.345 353.517C194.872 352.76 195.567 352.135 196.376 351.691C200.056 349.429 207.799 348.009 214.37 348.009C216.389 347.86 218.418 348.129 220.328 348.799C222.118 349.59 224.403 352.782 224.403 356.907C224.403 362.53 222.722 367.45 219.622 368.504Z" fill="#FC6011"/>
<path d="M84.3832 451.384C84.2866 450.41 83.8721 449.654 83.1396 449.114C82.4071 448.575 81.413 448.305 80.1574 448.305C79.3041 448.305 78.5837 448.426 77.9961 448.668C77.4085 448.901 76.9578 449.227 76.6439 449.646C76.338 450.064 76.1851 450.539 76.1851 451.07C76.169 451.513 76.2615 451.899 76.4628 452.229C76.672 452.559 76.9578 452.845 77.32 453.087C77.6822 453.32 78.1008 453.525 78.5757 453.702C79.0506 453.871 79.5577 454.016 80.097 454.137L82.3186 454.668C83.3972 454.91 84.3872 455.232 85.2888 455.634C86.1903 456.037 86.971 456.532 87.6311 457.119C88.2911 457.707 88.8023 458.399 89.1645 459.196C89.5347 459.993 89.7239 460.906 89.7319 461.937C89.7239 463.45 89.3375 464.762 88.5728 465.873C87.8162 466.976 86.7215 467.833 85.2888 468.445C83.864 469.048 82.1455 469.35 80.1332 469.35C78.137 469.35 76.3984 469.044 74.9173 468.433C73.4443 467.821 72.2933 466.915 71.4642 465.716C70.6432 464.509 70.2125 463.015 70.1723 461.237H75.2312C75.2876 462.066 75.525 462.758 75.9436 463.313C76.3702 463.861 76.9377 464.275 77.646 464.557C78.3624 464.83 79.1713 464.967 80.0728 464.967C80.9583 464.967 81.727 464.839 82.379 464.581C83.039 464.323 83.5501 463.965 83.9123 463.506C84.2746 463.048 84.4557 462.52 84.4557 461.925C84.4557 461.369 84.2907 460.902 83.9606 460.524C83.6387 460.146 83.1638 459.824 82.5359 459.558C81.9161 459.293 81.1555 459.051 80.254 458.834L77.5615 458.158C75.4767 457.651 73.8307 456.858 72.6233 455.779C71.4159 454.701 70.8162 453.248 70.8243 451.42C70.8162 449.923 71.2147 448.615 72.0196 447.496C72.8326 446.378 73.9474 445.504 75.364 444.876C76.7807 444.249 78.3906 443.935 80.1936 443.935C82.0288 443.935 83.6306 444.249 84.999 444.876C86.3754 445.504 87.446 446.378 88.2106 447.496C88.9753 448.615 89.3697 449.911 89.3939 451.384H84.3832ZM98.2953 458.278V469H93.1519V444.273H98.1504V453.727H98.3678C98.7863 452.632 99.4625 451.775 100.396 451.155C101.33 450.527 102.501 450.213 103.91 450.213C105.198 450.213 106.32 450.495 107.278 451.058C108.244 451.614 108.993 452.415 109.524 453.461C110.063 454.499 110.329 455.743 110.321 457.192V469H105.177V458.109C105.185 456.966 104.896 456.077 104.308 455.441C103.729 454.805 102.916 454.487 101.869 454.487C101.169 454.487 100.549 454.636 100.01 454.934C99.4786 455.232 99.06 455.666 98.7541 456.238C98.4563 456.801 98.3034 457.482 98.2953 458.278ZM114.369 469V450.455H119.512V469H114.369ZM116.952 448.064C116.188 448.064 115.532 447.81 114.984 447.303C114.445 446.788 114.175 446.172 114.175 445.456C114.175 444.748 114.445 444.14 114.984 443.633C115.532 443.118 116.188 442.86 116.952 442.86C117.717 442.86 118.369 443.118 118.908 443.633C119.456 444.14 119.729 444.748 119.729 445.456C119.729 446.172 119.456 446.788 118.908 447.303C118.369 447.81 117.717 448.064 116.952 448.064ZM123.729 469V444.273H128.872V453.57H129.029C129.255 453.071 129.581 452.563 130.007 452.048C130.442 451.525 131.005 451.09 131.698 450.744C132.398 450.39 133.267 450.213 134.306 450.213C135.658 450.213 136.906 450.567 138.049 451.276C139.192 451.976 140.105 453.034 140.789 454.451C141.473 455.86 141.816 457.626 141.816 459.751C141.816 461.82 141.482 463.567 140.813 464.991C140.153 466.408 139.252 467.483 138.109 468.215C136.974 468.94 135.702 469.302 134.294 469.302C133.295 469.302 132.446 469.137 131.746 468.807C131.054 468.477 130.486 468.062 130.044 467.563C129.601 467.056 129.263 466.545 129.029 466.03H128.8V469H123.729ZM128.764 459.727C128.764 460.83 128.917 461.792 129.223 462.613C129.528 463.434 129.971 464.074 130.551 464.533C131.13 464.983 131.835 465.209 132.664 465.209C133.501 465.209 134.209 464.979 134.789 464.521C135.368 464.054 135.807 463.41 136.105 462.589C136.411 461.76 136.563 460.806 136.563 459.727C136.563 458.657 136.415 457.715 136.117 456.902C135.819 456.089 135.38 455.453 134.801 454.994C134.221 454.536 133.509 454.306 132.664 454.306C131.826 454.306 131.118 454.527 130.539 454.97C129.967 455.413 129.528 456.041 129.223 456.854C128.917 457.667 128.764 458.625 128.764 459.727ZM145.248 469V450.455H150.234V453.69H150.427C150.765 452.539 151.333 451.67 152.13 451.082C152.927 450.487 153.844 450.189 154.883 450.189C155.14 450.189 155.418 450.205 155.716 450.237C156.013 450.269 156.275 450.314 156.5 450.37V454.934C156.259 454.862 155.925 454.797 155.498 454.741C155.072 454.684 154.681 454.656 154.327 454.656C153.57 454.656 152.894 454.821 152.299 455.151C151.711 455.473 151.244 455.924 150.898 456.504C150.56 457.083 150.391 457.751 150.391 458.508V469H145.248ZM163.917 469.35C162.734 469.35 161.679 469.145 160.753 468.734C159.828 468.316 159.095 467.7 158.556 466.887C158.025 466.066 157.759 465.044 157.759 463.82C157.759 462.79 157.948 461.925 158.327 461.224C158.705 460.524 159.22 459.961 159.872 459.534C160.524 459.107 161.265 458.786 162.094 458.568C162.931 458.351 163.808 458.198 164.726 458.109C165.804 457.997 166.674 457.892 167.334 457.795C167.994 457.691 168.473 457.538 168.77 457.337C169.068 457.135 169.217 456.838 169.217 456.443V456.371C169.217 455.606 168.976 455.014 168.493 454.596C168.018 454.177 167.342 453.968 166.464 453.968C165.539 453.968 164.802 454.173 164.255 454.584C163.707 454.986 163.345 455.493 163.168 456.105L158.411 455.719C158.653 454.592 159.127 453.618 159.836 452.797C160.544 451.968 161.458 451.332 162.577 450.889C163.703 450.438 165.007 450.213 166.489 450.213C167.519 450.213 168.505 450.334 169.447 450.575C170.396 450.817 171.238 451.191 171.97 451.698C172.711 452.205 173.294 452.857 173.721 453.654C174.147 454.443 174.361 455.389 174.361 456.491V469H169.483V466.428H169.338C169.04 467.008 168.642 467.519 168.143 467.962C167.644 468.396 167.044 468.738 166.344 468.988C165.643 469.229 164.834 469.35 163.917 469.35ZM165.39 465.8C166.146 465.8 166.815 465.652 167.394 465.354C167.974 465.048 168.428 464.637 168.758 464.122C169.088 463.607 169.253 463.023 169.253 462.371V460.403C169.092 460.508 168.871 460.605 168.589 460.693C168.316 460.774 168.006 460.85 167.66 460.923C167.314 460.987 166.967 461.047 166.621 461.104C166.275 461.152 165.961 461.196 165.68 461.237C165.076 461.325 164.549 461.466 164.098 461.659C163.647 461.852 163.297 462.114 163.047 462.444C162.798 462.766 162.673 463.168 162.673 463.651C162.673 464.352 162.927 464.887 163.434 465.257C163.949 465.619 164.601 465.8 165.39 465.8ZM182.009 469L176.963 450.455H182.166L185.04 462.915H185.209L188.203 450.455H193.311L196.353 462.842H196.51L199.335 450.455H204.527L199.492 469H194.047L190.86 457.337H190.63L187.443 469H182.009ZM207.271 469V450.455H212.414V469H207.271ZM209.855 448.064C209.09 448.064 208.434 447.81 207.887 447.303C207.347 446.788 207.078 446.172 207.078 445.456C207.078 444.748 207.347 444.14 207.887 443.633C208.434 443.118 209.09 442.86 209.855 442.86C210.619 442.86 211.271 443.118 211.811 443.633C212.358 444.14 212.632 444.748 212.632 445.456C212.632 446.172 212.358 446.788 211.811 447.303C211.271 447.81 210.619 448.064 209.855 448.064Z" fill="#FC6011"/>
<path d="M238.123 451.384C238.027 450.41 237.612 449.654 236.88 449.114C236.147 448.575 235.153 448.305 233.897 448.305C233.044 448.305 232.324 448.426 231.736 448.668C231.149 448.901 230.698 449.227 230.384 449.646C230.078 450.064 229.925 450.539 229.925 451.07C229.909 451.513 230.002 451.899 230.203 452.229C230.412 452.559 230.698 452.845 231.06 453.087C231.422 453.32 231.841 453.525 232.316 453.702C232.791 453.871 233.298 454.016 233.837 454.137L236.059 454.668C237.137 454.91 238.127 455.232 239.029 455.634C239.93 456.037 240.711 456.532 241.371 457.119C242.031 457.707 242.542 458.399 242.904 459.196C243.275 459.993 243.464 460.906 243.472 461.937C243.464 463.45 243.078 464.762 242.313 465.873C241.556 466.976 240.462 467.833 239.029 468.445C237.604 469.048 235.886 469.35 233.873 469.35C231.877 469.35 230.138 469.044 228.657 468.433C227.184 467.821 226.033 466.915 225.204 465.716C224.383 464.509 223.953 463.015 223.912 461.237H228.971C229.028 462.066 229.265 462.758 229.684 463.313C230.11 463.861 230.678 464.275 231.386 464.557C232.102 464.83 232.911 464.967 233.813 464.967C234.698 464.967 235.467 464.839 236.119 464.581C236.779 464.323 237.29 463.965 237.652 463.506C238.015 463.048 238.196 462.52 238.196 461.925C238.196 461.369 238.031 460.902 237.701 460.524C237.379 460.146 236.904 459.824 236.276 459.558C235.656 459.293 234.895 459.051 233.994 458.834L231.301 458.158C229.217 457.651 227.571 456.858 226.363 455.779C225.156 454.701 224.556 453.248 224.564 451.42C224.556 449.923 224.955 448.615 225.76 447.496C226.573 446.378 227.687 445.504 229.104 444.876C230.521 444.249 232.131 443.935 233.934 443.935C235.769 443.935 237.371 444.249 238.739 444.876C240.115 445.504 241.186 446.378 241.951 447.496C242.715 448.615 243.11 449.911 243.134 451.384H238.123ZM252.035 458.278V469H246.892V444.273H251.89V453.727H252.108C252.526 452.632 253.202 451.775 254.136 451.155C255.07 450.527 256.241 450.213 257.65 450.213C258.938 450.213 260.06 450.495 261.018 451.058C261.984 451.614 262.733 452.415 263.264 453.461C263.803 454.499 264.069 455.743 264.061 457.192V469H258.917V458.109C258.925 456.966 258.636 456.077 258.048 455.441C257.469 454.805 256.656 454.487 255.609 454.487C254.909 454.487 254.289 454.636 253.75 454.934C253.219 455.232 252.8 455.666 252.494 456.238C252.196 456.801 252.043 457.482 252.035 458.278ZM276.488 469.362C274.612 469.362 272.991 468.964 271.622 468.167C270.262 467.362 269.211 466.243 268.471 464.81C267.73 463.37 267.36 461.699 267.36 459.8C267.36 457.884 267.73 456.21 268.471 454.777C269.211 453.336 270.262 452.217 271.622 451.42C272.991 450.616 274.612 450.213 276.488 450.213C278.363 450.213 279.981 450.616 281.342 451.42C282.71 452.217 283.764 453.336 284.505 454.777C285.245 456.21 285.616 457.884 285.616 459.8C285.616 461.699 285.245 463.37 284.505 464.81C283.764 466.243 282.71 467.362 281.342 468.167C279.981 468.964 278.363 469.362 276.488 469.362ZM276.512 465.378C277.365 465.378 278.078 465.136 278.649 464.653C279.221 464.162 279.651 463.494 279.941 462.649C280.239 461.804 280.388 460.842 280.388 459.763C280.388 458.685 280.239 457.723 279.941 456.878C279.651 456.033 279.221 455.365 278.649 454.874C278.078 454.383 277.365 454.137 276.512 454.137C275.651 454.137 274.926 454.383 274.339 454.874C273.759 455.365 273.321 456.033 273.023 456.878C272.733 457.723 272.588 458.685 272.588 459.763C272.588 460.842 272.733 461.804 273.023 462.649C273.321 463.494 273.759 464.162 274.339 464.653C274.926 465.136 275.651 465.378 276.512 465.378ZM288.96 475.955V450.455H294.031V453.57H294.261C294.486 453.071 294.812 452.563 295.239 452.048C295.673 451.525 296.237 451.09 296.929 450.744C297.629 450.39 298.499 450.213 299.537 450.213C300.889 450.213 302.137 450.567 303.28 451.276C304.423 451.976 305.336 453.034 306.021 454.451C306.705 455.86 307.047 457.626 307.047 459.751C307.047 461.82 306.713 463.567 306.045 464.991C305.385 466.408 304.483 467.483 303.34 468.215C302.205 468.94 300.933 469.302 299.525 469.302C298.527 469.302 297.678 469.137 296.977 468.807C296.285 468.477 295.718 468.062 295.275 467.563C294.832 467.056 294.494 466.545 294.261 466.03H294.104V475.955H288.96ZM293.995 459.727C293.995 460.83 294.148 461.792 294.454 462.613C294.76 463.434 295.202 464.074 295.782 464.533C296.361 464.983 297.066 465.209 297.895 465.209C298.732 465.209 299.44 464.979 300.02 464.521C300.599 464.054 301.038 463.41 301.336 462.589C301.642 461.76 301.795 460.806 301.795 459.727C301.795 458.657 301.646 457.715 301.348 456.902C301.05 456.089 300.611 455.453 300.032 454.994C299.452 454.536 298.74 454.306 297.895 454.306C297.058 454.306 296.349 454.527 295.77 454.97C295.198 455.413 294.76 456.041 294.454 456.854C294.148 457.667 293.995 458.625 293.995 459.727Z" fill="#4A4B4D"/>
<path d="M152.851 496V488.727H157.211V489.509H153.731V491.966H156.885V492.747H153.731V496H152.851ZM164.856 492.364C164.856 493.131 164.718 493.794 164.441 494.352C164.164 494.911 163.784 495.342 163.301 495.645C162.818 495.948 162.266 496.099 161.646 496.099C161.026 496.099 160.474 495.948 159.991 495.645C159.508 495.342 159.128 494.911 158.851 494.352C158.574 493.794 158.436 493.131 158.436 492.364C158.436 491.597 158.574 490.934 158.851 490.375C159.128 489.816 159.508 489.385 159.991 489.082C160.474 488.779 161.026 488.628 161.646 488.628C162.266 488.628 162.818 488.779 163.301 489.082C163.784 489.385 164.164 489.816 164.441 490.375C164.718 490.934 164.856 491.597 164.856 492.364ZM164.004 492.364C164.004 491.734 163.899 491.202 163.688 490.769C163.48 490.336 163.197 490.008 162.839 489.786C162.484 489.563 162.086 489.452 161.646 489.452C161.206 489.452 160.807 489.563 160.449 489.786C160.094 490.008 159.811 490.336 159.601 490.769C159.392 491.202 159.288 491.734 159.288 492.364C159.288 492.993 159.392 493.525 159.601 493.958C159.811 494.391 160.094 494.719 160.449 494.942C160.807 495.164 161.206 495.276 161.646 495.276C162.086 495.276 162.484 495.164 162.839 494.942C163.197 494.719 163.48 494.391 163.688 493.958C163.899 493.525 164.004 492.993 164.004 492.364ZM172.473 492.364C172.473 493.131 172.335 493.794 172.058 494.352C171.781 494.911 171.401 495.342 170.918 495.645C170.435 495.948 169.883 496.099 169.263 496.099C168.643 496.099 168.091 495.948 167.608 495.645C167.125 495.342 166.745 494.911 166.468 494.352C166.191 493.794 166.053 493.131 166.053 492.364C166.053 491.597 166.191 490.934 166.468 490.375C166.745 489.816 167.125 489.385 167.608 489.082C168.091 488.779 168.643 488.628 169.263 488.628C169.883 488.628 170.435 488.779 170.918 489.082C171.401 489.385 171.781 489.816 172.058 490.375C172.335 490.934 172.473 491.597 172.473 492.364ZM171.621 492.364C171.621 491.734 171.516 491.202 171.305 490.769C171.097 490.336 170.814 490.008 170.456 489.786C170.101 489.563 169.703 489.452 169.263 489.452C168.823 489.452 168.424 489.563 168.066 489.786C167.711 490.008 167.428 490.336 167.218 490.769C167.009 491.202 166.905 491.734 166.905 492.364C166.905 492.993 167.009 493.525 167.218 493.958C167.428 494.391 167.711 494.719 168.066 494.942C168.424 495.164 168.823 495.276 169.263 495.276C169.703 495.276 170.101 495.164 170.456 494.942C170.814 494.719 171.097 494.391 171.305 493.958C171.516 493.525 171.621 492.993 171.621 492.364ZM176.199 496H173.954V488.727H176.298C177.003 488.727 177.607 488.873 178.109 489.164C178.611 489.453 178.996 489.868 179.263 490.411C179.531 490.95 179.664 491.597 179.664 492.349C179.664 493.107 179.529 493.759 179.26 494.306C178.99 494.851 178.597 495.27 178.081 495.563C177.565 495.854 176.937 496 176.199 496ZM174.835 495.219H176.142C176.743 495.219 177.241 495.103 177.637 494.871C178.032 494.639 178.327 494.308 178.521 493.88C178.715 493.451 178.812 492.941 178.812 492.349C178.812 491.762 178.716 491.257 178.525 490.833C178.333 490.407 178.046 490.08 177.665 489.853C177.284 489.623 176.809 489.509 176.241 489.509H174.835V495.219ZM186.199 496H183.954V488.727H186.298C187.003 488.727 187.607 488.873 188.109 489.164C188.611 489.453 188.996 489.868 189.263 490.411C189.531 490.95 189.664 491.597 189.664 492.349C189.664 493.107 189.529 493.759 189.26 494.306C188.99 494.851 188.597 495.27 188.081 495.563C187.565 495.854 186.937 496 186.199 496ZM184.835 495.219H186.142C186.743 495.219 187.241 495.103 187.637 494.871C188.032 494.639 188.327 494.308 188.521 493.88C188.715 493.451 188.812 492.941 188.812 492.349C188.812 491.762 188.716 491.257 188.525 490.833C188.333 490.407 188.046 490.08 187.665 489.853C187.284 489.623 186.809 489.509 186.241 489.509H184.835V495.219ZM191.142 496V488.727H195.531V489.509H192.022V491.966H195.304V492.747H192.022V495.219H195.588V496H191.142ZM197.118 496V488.727H197.999V495.219H201.38V496H197.118ZM203.624 488.727V496H202.743V488.727H203.624ZM205.688 488.727L207.847 494.849H207.932L210.091 488.727H211.015L208.344 496H207.435L204.765 488.727H205.688ZM212.148 496V488.727H216.537V489.509H213.028V491.966H216.309V492.747H213.028V495.219H216.594V496H212.148ZM218.124 496V488.727H220.582C221.15 488.727 221.616 488.824 221.981 489.018C222.345 489.21 222.615 489.474 222.79 489.81C222.966 490.147 223.053 490.529 223.053 490.957C223.053 491.386 222.966 491.766 222.79 492.097C222.615 492.429 222.346 492.689 221.984 492.879C221.622 493.066 221.159 493.159 220.596 493.159H218.607V492.364H220.567C220.956 492.364 221.268 492.307 221.505 492.193C221.744 492.08 221.917 491.919 222.023 491.71C222.132 491.5 222.187 491.249 222.187 490.957C222.187 490.666 222.132 490.412 222.023 490.194C221.914 489.976 221.74 489.808 221.501 489.69C221.262 489.569 220.946 489.509 220.553 489.509H219.005V496H218.124ZM221.547 492.733L223.337 496H222.314L220.553 492.733H221.547ZM223.651 488.727H224.66L226.677 492.122H226.762L228.779 488.727H229.788L227.16 493.003V496H226.279V493.003L223.651 488.727Z" fill="#4A4B4D"/>
<path opacity="0.28" d="M358 406H291C286.837 406.002 282.817 404.476 279.705 401.711C276.593 398.946 274.604 395.135 274.116 391H273.899C270.695 370.385 260.226 351.594 244.382 338.022C228.537 324.449 208.362 316.989 187.499 316.989C166.636 316.989 146.461 324.449 130.616 338.022C114.772 351.594 104.303 370.385 101.099 391H100.88C100.393 395.134 98.4046 398.946 95.293 401.711C92.1813 404.476 88.1627 406.002 84 406H17C12.8366 406.003 8.81719 404.477 5.70459 401.712C2.59199 398.946 0.603102 395.135 0.115234 391H0V24H375V391H374.882C374.395 395.134 372.407 398.946 369.294 401.711C366.182 404.476 362.163 406.003 358 406Z" fill="#4A4B4D"/>
<path d="M358 382H291C286.837 382.002 282.817 380.476 279.705 377.711C276.593 374.946 274.604 371.135 274.116 367H273.899C270.695 346.385 260.226 327.594 244.382 314.022C228.537 300.449 208.362 292.989 187.499 292.989C166.636 292.989 146.461 300.449 130.616 314.022C114.772 327.594 104.303 346.385 101.099 367H100.88C100.393 371.134 98.4046 374.946 95.293 377.711C92.1813 380.476 88.1627 382.002 84 382H17C12.8366 382.003 8.81719 380.477 5.70459 377.712C2.59199 374.946 0.603102 371.135 0.115234 367H0V0H375V367H374.882C374.395 371.134 372.407 374.946 369.294 377.711C366.182 380.476 362.163 382.003 358 382Z" fill="#FC6011"/>
<mask id="mask0_180_4630" style="mask-type:luminance" maskUnits="userSpaceOnUse" x="0" y="0" width="375" height="391">
<path d="M358 391H291C286.837 391.003 282.817 389.44 279.705 386.61C276.593 383.78 274.604 379.879 274.116 375.647H273.899C270.695 354.545 260.226 335.312 244.382 321.42C228.537 307.528 208.362 299.892 187.499 299.892C166.636 299.892 146.461 307.528 130.616 321.42C114.772 335.312 104.303 354.545 101.099 375.647H100.88C100.393 379.878 98.4046 383.779 95.293 386.61C92.1813 389.44 88.1627 391.002 84 391H17C12.8366 391.003 8.81719 389.441 5.70459 386.611C2.59199 383.78 0.603102 379.879 0.115234 375.647H0V0H375V375.647H374.882C374.395 379.878 372.407 383.78 369.294 386.61C366.182 389.441 362.163 391.003 358 391Z" fill="white"/>
</mask>
<g mask="url(#mask0_180_4630)">
<path opacity="0.14" d="M28 123C77.1534 123 117 83.1534 117 34C117 -15.1533 77.1534 -55 28 -55C-21.1533 -55 -61 -15.1533 -61 34C-61 83.1534 -21.1533 123 28 123Z" fill="white"/>
<path opacity="0.14" d="M310.5 130C390.305 130 455 65.3051 455 -14.5C455 -94.3051 390.305 -159 310.5 -159C230.695 -159 166 -94.3051 166 -14.5C166 65.3051 230.695 130 310.5 130Z" fill="white"/>
<path opacity="0.14" d="M73.5 182C102.495 182 126 158.495 126 129.5C126 100.505 102.495 77 73.5 77C44.5051 77 21 100.505 21 129.5C21 158.495 44.5051 182 73.5 182Z" fill="white"/>
<path opacity="0.21" d="M160 136C164.971 136 169 131.971 169 127C169 122.029 164.971 118 160 118C155.029 118 151 122.029 151 127C151 131.971 155.029 136 160 136Z" fill="white"/>
<path opacity="0.21" d="M159.5 232C163.09 232 166 229.09 166 225.5C166 221.91 163.09 219 159.5 219C155.91 219 153 221.91 153 225.5C153 229.09 155.91 232 159.5 232Z" fill="white"/>
<path opacity="0.21" d="M371.5 349C377.299 349 382 344.299 382 338.5C382 332.701 377.299 328 371.5 328C365.701 328 361 332.701 361 338.5C361 344.299 365.701 349 371.5 349Z" fill="white"/>
<path opacity="0.21" d="M238.5 159C246.508 159 253 152.508 253 144.5C253 136.492 246.508 130 238.5 130C230.492 130 224 136.492 224 144.5C224 152.508 230.492 159 238.5 159Z" fill="white"/>
<path opacity="0.14" d="M28 451C92.065 451 144 399.065 144 335C144 270.935 92.065 219 28 219C-36.065 219 -88 270.935 -88 335C-88 399.065 -36.065 451 28 451Z" fill="white"/>
<g opacity="0.18">
<path d="M424.12 256.176C424.12 260.348 420.408 263.753 415.879 263.753H232.241C227.712 263.753 224 260.348 224 256.176C224 252.021 227.712 248.633 232.241 248.633H415.879C420.408 248.629 424.12 252.017 424.12 256.176ZM333.672 161.161C333.558 158.695 332.5 156.367 330.717 154.66C328.933 152.953 326.562 151.997 324.093 151.99C321.624 151.983 319.247 152.927 317.455 154.625C315.663 156.322 314.592 158.645 314.465 161.11C320.844 160.321 327.297 160.339 333.672 161.161ZM408.489 241.938H239.631C241.306 220.695 250.927 200.864 266.576 186.4C282.225 171.937 302.751 163.904 324.06 163.904C345.369 163.904 365.895 171.937 381.544 186.4C397.193 200.864 406.814 220.695 408.489 241.938ZM314.397 171.326C314.397 171.326 267.062 181.644 252.929 234.054H270.829C270.829 234.054 280.734 190.345 314.397 171.326Z" fill="white"/>
</g>
</g>
</svg>
