<svg width="17" height="14" viewBox="0 0 17 14" fill="none" xmlns="http://www.w3.org/2000/svg">
<path d="M4.04512 9.876H10.2561C10.3307 9.87603 10.4033 9.85173 10.4628 9.8068C10.5224 9.76187 10.5657 9.69874 10.5861 9.627L11.9611 4.814C11.9758 4.76289 11.9785 4.70905 11.9688 4.65674C11.9592 4.60443 11.9375 4.55508 11.9055 4.5126C11.8735 4.47012 11.832 4.43566 11.7844 4.41195C11.7368 4.38824 11.6843 4.37594 11.6311 4.376H3.25612L3.01012 3.269C2.99306 3.19263 2.95047 3.12436 2.88939 3.07546C2.8283 3.02655 2.75237 2.99994 2.67412 3H0.589117C0.497883 3 0.410385 3.03624 0.345872 3.10076C0.28136 3.16527 0.245117 3.25277 0.245117 3.344C0.245117 3.43523 0.28136 3.52273 0.345872 3.58724C0.410385 3.65176 0.497883 3.688 0.589117 3.688H2.39912L3.64012 9.274C3.42295 9.3681 3.24477 9.53405 3.1355 9.74398C3.02622 9.95392 2.9925 10.1951 3.04 10.4269C3.0875 10.6588 3.21332 10.8672 3.39634 11.0173C3.57937 11.1674 3.80845 11.2499 4.04512 11.251H10.2561C10.3474 11.251 10.4348 11.2148 10.4994 11.1502C10.5639 11.0857 10.6001 10.9982 10.6001 10.907C10.6001 10.8158 10.5639 10.7283 10.4994 10.6638C10.4348 10.5992 10.3474 10.563 10.2561 10.563H4.04512C3.99994 10.563 3.95521 10.5541 3.91347 10.5368C3.87174 10.5195 3.83382 10.4942 3.80187 10.4622C3.76993 10.4303 3.74459 10.3924 3.7273 10.3506C3.71001 10.3089 3.70112 10.2642 3.70112 10.219C3.70112 10.1738 3.71001 10.1291 3.7273 10.0874C3.74459 10.0456 3.76993 10.0077 3.80187 9.97576C3.83382 9.94381 3.87174 9.91847 3.91347 9.90119C3.95521 9.8839 3.99994 9.876 4.04512 9.876Z" fill="white"/>
<path d="M3.70606 12.282C3.70685 12.4857 3.76798 12.6846 3.88175 12.8536C3.99551 13.0227 4.15682 13.1542 4.34528 13.2316C4.53374 13.309 4.7409 13.3289 4.94063 13.2886C5.14036 13.2484 5.3237 13.1499 5.46749 13.0056C5.61127 12.8612 5.70906 12.6775 5.74852 12.4776C5.78798 12.2777 5.76733 12.0706 5.68918 11.8825C5.61103 11.6943 5.47889 11.5336 5.30943 11.4204C5.13998 11.3073 4.9408 11.2469 4.73706 11.2469C4.60141 11.2472 4.46712 11.2742 4.34189 11.3264C4.21666 11.3785 4.10294 11.4548 4.0072 11.5509C3.91147 11.647 3.83559 11.761 3.78392 11.8865C3.73225 12.0119 3.70579 12.1463 3.70606 12.282Z" fill="white"/>
<path d="M8.53809 12.282C8.53888 12.4855 8.59991 12.6843 8.71351 12.8532C8.8271 13.0222 8.98817 13.1537 9.1764 13.2312C9.36462 13.3088 9.57159 13.3289 9.77121 13.2889C9.97084 13.249 10.1542 13.1509 10.2981 13.007C10.442 12.863 10.5402 12.6797 10.5801 12.4801C10.62 12.2805 10.5999 12.0735 10.5224 11.8853C10.4448 11.697 10.3133 11.536 10.1444 11.4224C9.97545 11.3088 9.77666 11.2477 9.57309 11.247C9.43706 11.2466 9.3023 11.2731 9.17655 11.3249C9.0508 11.3768 8.93655 11.453 8.84037 11.5492C8.74418 11.6454 8.66794 11.7597 8.61606 11.8854C8.56419 12.0112 8.53769 12.1459 8.53809 12.282Z" fill="white"/>
<path d="M12.5 8C14.433 8 16 6.433 16 4.5C16 2.567 14.433 1 12.5 1C10.567 1 9 2.567 9 4.5C9 6.433 10.567 8 12.5 8Z" fill="white" stroke="#FC6011"/>
<path d="M12.5 3.5V5.5" stroke="#FC6011" stroke-linecap="round"/>
<path d="M13.5 4.5H11.5" stroke="#FC6011" stroke-linecap="round"/>
</svg>
