<svg width="211" height="315" viewBox="0 0 211 315" fill="none" xmlns="http://www.w3.org/2000/svg">
<path d="M181.011 122.673C179.483 124.05 178.285 125.755 177.507 127.659C176.73 129.564 176.392 131.62 176.52 133.673L181.829 217.178C181.829 217.178 183.403 230.048 172.107 230.048C160.811 230.048 162.384 217.178 162.384 217.178L167.677 133.673C167.806 131.62 167.469 129.563 166.691 127.659C165.914 125.754 164.715 124.049 163.186 122.673L161.986 121.593C160.342 120.112 159.083 118.254 158.316 116.178C157.55 114.103 157.299 111.872 157.586 109.678L163.064 67.4389C163.114 67.0893 163.288 66.7694 163.554 66.5371C163.82 66.3048 164.161 66.1756 164.514 66.173C164.898 66.1711 165.267 66.3207 165.542 66.5893C165.816 66.8579 165.974 67.224 165.98 67.6079L166.649 107.374C166.656 107.787 166.824 108.18 167.118 108.47C167.413 108.76 167.809 108.922 168.222 108.922H168.958C169.376 108.922 169.776 108.756 170.071 108.461C170.367 108.166 170.533 107.765 170.533 107.348V67.7479C170.528 67.538 170.565 67.3291 170.641 67.1335C170.718 66.938 170.833 66.7598 170.98 66.6094C171.126 66.459 171.301 66.3395 171.495 66.2579C171.689 66.1763 171.896 66.1343 172.106 66.1343C172.317 66.1343 172.524 66.1763 172.718 66.2579C172.912 66.3395 173.087 66.459 173.233 66.6094C173.38 66.7598 173.495 66.938 173.572 67.1335C173.649 67.3291 173.685 67.538 173.68 67.7479V107.348C173.68 107.765 173.846 108.166 174.141 108.461C174.436 108.756 174.837 108.922 175.254 108.922H175.991C176.404 108.922 176.8 108.759 177.094 108.47C177.389 108.18 177.557 107.787 177.564 107.374L178.233 67.6079C178.237 67.2394 178.381 66.8861 178.636 66.6195C178.89 66.3529 179.236 66.1927 179.604 66.1712C179.972 66.1498 180.335 66.2687 180.618 66.504C180.902 66.7392 181.086 67.0734 181.133 67.4389L186.628 109.678C186.909 111.873 186.655 114.103 185.886 116.178C185.117 118.253 183.857 120.111 182.214 121.593L181.011 122.673Z" fill="#FC6011"/>
<path d="M154.78 34.71L156.862 36.796L155.162 38.496L153.075 36.415L150.999 38.496L149.299 36.796L151.381 34.71L149.281 32.61L150.981 30.91L153.081 33.01L155.168 30.928L156.868 32.628L154.78 34.71Z" fill="#FC6011"/>
<path d="M164.377 21.061C163.457 21.0612 162.558 20.7887 161.794 20.2779C161.029 19.767 160.433 19.0409 160.081 18.1913C159.729 17.3417 159.637 16.4068 159.816 15.5049C159.996 14.603 160.439 13.7745 161.089 13.1243C161.739 12.4741 162.568 12.0314 163.47 11.8522C164.372 11.6729 165.307 11.7652 166.156 12.1174C167.006 12.4695 167.732 13.0657 168.242 13.8305C168.753 14.5953 169.025 15.4944 169.025 16.414C169.024 17.6462 168.534 18.8276 167.662 19.6988C166.791 20.57 165.609 21.0599 164.377 21.061ZM161.464 16.414C161.464 16.9898 161.635 17.5526 161.956 18.0312C162.276 18.5098 162.731 18.8827 163.263 19.1028C163.795 19.3229 164.38 19.3804 164.945 19.2679C165.51 19.1554 166.028 18.878 166.435 18.4707C166.843 18.0635 167.12 17.5447 167.232 16.98C167.344 16.4152 167.287 15.8299 167.066 15.2979C166.846 14.7659 166.473 14.3111 165.994 13.9911C165.516 13.6711 164.953 13.5002 164.377 13.5C163.994 13.5 163.615 13.5754 163.262 13.7218C162.909 13.8683 162.587 14.083 162.317 14.3536C162.046 14.6242 161.832 14.9454 161.685 15.2989C161.539 15.6525 161.464 16.0314 161.464 16.414Z" fill="#FC6011"/>
<path d="M175.842 26.412L172.162 31.742L177.492 35.4221L181.172 30.0921L175.842 26.412Z" fill="#FECFB7"/>
<path d="M163.335 45.489C163.335 44.7078 163.567 43.9441 164.001 43.2945C164.435 42.6449 165.052 42.1386 165.773 41.8397C166.495 41.5407 167.289 41.4625 168.056 41.6149C168.822 41.7673 169.526 42.1435 170.078 42.6959C170.631 43.2484 171.007 43.9522 171.159 44.7184C171.311 45.4846 171.233 46.2788 170.934 47.0006C170.635 47.7224 170.129 48.3393 169.48 48.7733C168.83 49.2073 168.066 49.439 167.285 49.439C166.766 49.439 166.253 49.3368 165.773 49.1383C165.294 48.9398 164.859 48.6489 164.492 48.2821C164.125 47.9153 163.834 47.4798 163.636 47.0006C163.437 46.5214 163.335 46.0077 163.335 45.489Z" fill="#FECFB7"/>
<path d="M189.526 41.659C189.526 41.125 189.684 40.603 189.981 40.1589C190.278 39.7149 190.699 39.3689 191.193 39.1645C191.686 38.9602 192.229 38.9067 192.753 39.0109C193.276 39.115 193.758 39.3722 194.135 39.7498C194.513 40.1274 194.77 40.6085 194.874 41.1322C194.978 41.656 194.925 42.1989 194.72 42.6922C194.516 43.1856 194.17 43.6073 193.726 43.904C193.282 44.2006 192.76 44.359 192.226 44.359C191.871 44.359 191.52 44.2891 191.193 44.1535C190.865 44.0178 190.568 43.8189 190.317 43.5682C190.066 43.3175 189.867 43.0198 189.731 42.6922C189.596 42.3647 189.526 42.0136 189.526 41.659Z" fill="#FC6011"/>
<path d="M13.7979 164.826C13.7979 164.316 13.9491 163.818 14.2323 163.394C14.5154 162.97 14.9179 162.64 15.3888 162.445C15.8596 162.25 16.3778 162.199 16.8777 162.298C17.3776 162.398 17.8368 162.643 18.1972 163.004C18.5576 163.364 18.803 163.823 18.9024 164.323C19.0019 164.823 18.9508 165.341 18.7558 165.812C18.5607 166.283 18.2305 166.685 17.8067 166.969C17.3829 167.252 16.8847 167.403 16.375 167.403C15.6915 167.403 15.036 167.131 14.5527 166.648C14.0694 166.165 13.7979 165.509 13.7979 164.826Z" fill="#FECFB7"/>
<path d="M13.6634 145.397L8.57895 148.906L12.0881 153.99L17.1725 150.481L13.6634 145.397Z" fill="#FC6011"/>
<path d="M-3.05176e-05 163.718C-3.05176e-05 163.164 0.164164 162.623 0.471832 162.162C0.7795 161.702 1.21685 161.343 1.72849 161.131C2.24012 160.919 2.80308 160.864 3.34622 160.972C3.88937 161.08 4.38829 161.346 4.77988 161.738C5.17146 162.13 5.43813 162.629 5.54617 163.172C5.65421 163.715 5.59874 164.278 5.38681 164.789C5.17488 165.301 4.81602 165.738 4.35556 166.046C3.8951 166.354 3.35374 166.518 2.79996 166.518C2.05776 166.517 1.34632 166.221 0.821503 165.696C0.296687 165.172 0.0012913 164.46 -3.05176e-05 163.718Z" fill="#FC6011"/>
<path d="M186.748 131.39L190.885 235.329C190.948 236.906 191.908 238.15 193.029 238.106C193.978 238.068 194.765 237.106 194.92 235.796L200.837 186.106C201.224 182.863 200.037 179.588 197.931 178.054C196.937 177.205 196.151 176.138 195.635 174.937C195.118 173.736 194.885 172.432 194.953 171.126L195.337 131.47C195.371 127.97 193.286 125.08 190.799 125.179C188.428 125.273 186.615 128.054 186.748 131.39Z" fill="#FC6011"/>
<path d="M130.742 48.424H63.635C60.1999 48.4369 56.9093 49.8076 54.4809 52.2371C52.0525 54.6666 50.6833 57.9579 50.672 61.393V228.816C50.6815 232.251 52.0502 235.543 54.4792 237.972C56.9081 240.401 60.1998 241.77 63.635 241.78H130.742C134.178 241.772 137.471 240.403 139.902 237.974C142.332 235.545 143.701 232.252 143.711 228.816V61.393C143.699 57.9569 142.329 54.6649 139.9 52.2353C137.47 49.8056 134.178 48.4355 130.742 48.424ZM131 54.097C133.01 54.1033 134.935 54.905 136.356 56.3269C137.777 57.7487 138.576 59.6751 138.581 61.685V222.16C138.576 224.169 137.776 226.094 136.355 227.515C134.934 228.936 133.009 229.736 131 229.741H63.6809C61.6707 229.738 59.7435 228.938 58.3214 227.517C56.8992 226.097 56.0979 224.17 56.0929 222.16V61.684C56.0987 59.6733 56.9 57.7466 58.3218 56.3248C59.7436 54.9031 61.6703 54.1018 63.6809 54.096L131 54.097Z" fill="#29293D"/>
<path d="M130.741 48.106H63.635C60.1133 48.1113 56.7376 49.513 54.248 52.0039C51.7585 54.4947 50.3584 57.8713 50.355 61.393V228.816C50.3603 232.336 51.7611 235.711 54.2505 238.2C56.7398 240.69 60.1145 242.091 63.635 242.096H130.741C134.261 242.091 137.636 240.69 140.126 238.2C142.615 235.711 144.016 232.336 144.021 228.816V61.393C144.018 57.8713 142.618 54.4947 140.128 52.0039C137.638 49.513 134.263 48.1113 130.741 48.106ZM143.394 228.816C143.389 232.169 142.054 235.384 139.682 237.755C137.31 240.125 134.095 241.459 130.741 241.462H63.635C60.2822 241.458 57.0678 240.125 54.697 237.754C52.3262 235.383 50.9927 232.169 50.989 228.816V61.393C50.9924 58.0394 52.3257 54.8242 54.6963 52.4522C57.067 50.0803 60.2815 48.7452 63.635 48.74H130.741C134.095 48.745 137.311 50.0797 139.682 52.4515C142.054 54.8233 143.389 58.0387 143.394 61.393V228.816Z" fill="#CCCCCC"/>
<path d="M138.581 61.685V222.161C138.576 224.17 137.775 226.095 136.355 227.516C134.934 228.937 133.009 229.737 131 229.742H63.6808C61.6709 229.738 59.7445 228.938 58.3226 227.517C56.9007 226.096 56.0991 224.171 56.0927 222.161V61.685C56.0988 59.6744 56.9002 57.7479 58.3219 56.3262C59.7436 54.9045 61.6702 54.1031 63.6808 54.097H131.001C133.01 54.1036 134.936 54.9054 136.356 56.3272C137.777 57.749 138.577 59.6752 138.582 61.685" fill="#FECFB7"/>
<path d="M90.192 55.2599C90.582 55.2596 90.9633 55.3748 91.2878 55.5911C91.6123 55.8074 91.8654 56.1151 92.015 56.4752C92.1647 56.8353 92.2042 57.2318 92.1286 57.6143C92.0529 57.9969 91.8656 58.3485 91.5902 58.6246C91.3148 58.9007 90.9637 59.089 90.5813 59.1655C90.1989 59.2421 89.8024 59.2036 89.4419 59.0549C89.0814 58.9062 88.7731 58.6539 88.5559 58.3299C88.3388 58.006 88.2226 57.6249 88.222 57.235C88.222 56.712 88.4294 56.2104 88.7987 55.8402C89.168 55.4699 89.6691 55.2613 90.192 55.2599Z" fill="#3B414B"/>
<path d="M106.089 57.046C106.106 57.3989 106.017 57.7489 105.833 58.0508C105.65 58.3527 105.38 58.5927 105.059 58.7397C104.737 58.8867 104.379 58.9341 104.031 58.8756C103.682 58.8172 103.359 58.6556 103.103 58.4119C102.847 58.1681 102.671 57.8532 102.595 57.5079C102.52 57.1626 102.55 56.8027 102.682 56.4747C102.813 56.1466 103.04 55.8655 103.333 55.6675C103.625 55.4695 103.971 55.3638 104.324 55.364C104.781 55.3537 105.223 55.525 105.554 55.8403C105.885 56.1556 106.077 56.5891 106.089 57.046Z" fill="#515760"/>
<path d="M100.259 56.242V57.242C100.259 57.3706 100.234 57.4981 100.185 57.617C100.136 57.7359 100.064 57.8439 99.973 57.9348C99.882 58.0257 99.7739 58.0977 99.655 58.1466C99.536 58.1956 99.4086 58.2205 99.2799 58.22H95.412C95.1525 58.22 94.9036 58.117 94.7201 57.9336C94.5365 57.7502 94.4332 57.5015 94.433 57.242V56.242C94.4345 55.9828 94.5381 55.7347 94.7214 55.5515C94.9047 55.3682 95.1528 55.2646 95.412 55.263H99.2799C99.5395 55.2633 99.7884 55.3665 99.9719 55.55C100.155 55.7336 100.259 55.9824 100.259 56.242Z" fill="#1A1F29"/>
<path d="M92.168 57.238C92.1686 56.8478 92.0534 56.4662 91.8371 56.1414C91.6208 55.8166 91.3131 55.5632 90.9528 55.4133C90.5925 55.2635 90.1959 55.2238 89.813 55.2993C89.4302 55.3749 89.0783 55.5623 88.802 55.8378C88.5256 56.1133 88.3372 56.4645 88.2605 56.8472C88.1838 57.2298 88.2223 57.6265 88.3711 57.9873C88.5198 58.348 88.7722 58.6565 89.0963 58.8738C89.4205 59.0911 89.8018 59.2074 90.192 59.208C90.715 59.208 91.2167 59.0007 91.5871 58.6314C91.9575 58.2621 92.1664 57.761 92.168 57.238ZM99.28 55.262H95.412C95.1528 55.2633 94.9045 55.3669 94.7212 55.5502C94.5378 55.7335 94.4343 55.9818 94.433 56.241V57.241C94.4333 57.5005 94.5365 57.7492 94.7201 57.9326C94.9036 58.116 95.1525 58.219 95.412 58.219H99.28C99.4086 58.2195 99.5361 58.1946 99.6551 58.1457C99.774 58.0967 99.8821 58.0247 99.9731 57.9338C100.064 57.8429 100.136 57.7349 100.185 57.616C100.234 57.4971 100.259 57.3696 100.259 57.241V56.241C100.259 55.9814 100.155 55.7326 99.972 55.549C99.7884 55.3655 99.5396 55.2623 99.28 55.262ZM82.504 54.101H112.295C112.295 54.101 109.088 54.657 109.063 57.667C109.038 60.677 106.507 61.183 104.242 61.183H90.557C88.291 61.183 85.766 60.672 85.734 57.667C85.702 54.662 82.504 54.101 82.504 54.101ZM104.322 55.37C103.994 55.387 103.678 55.4999 103.413 55.6948C103.148 55.8896 102.946 56.1578 102.832 56.4662C102.718 56.7746 102.697 57.1096 102.772 57.4298C102.846 57.75 103.013 58.0413 103.251 58.2677C103.49 58.4941 103.789 58.6456 104.113 58.7035C104.437 58.7614 104.77 58.7231 105.072 58.5934C105.374 58.4637 105.632 58.2483 105.813 57.9738C105.993 57.6993 106.09 57.3778 106.09 57.049C106.078 56.5921 105.885 56.1587 105.553 55.8439C105.222 55.5292 104.779 55.3587 104.322 55.37Z" fill="#3E394F"/>
<path d="M140.464 60.999V222.16H138.581V61.684C138.577 59.6741 137.777 57.7477 136.356 56.3259C134.936 54.904 133.01 54.1023 131 54.096H63.6812C61.6704 54.1018 59.7437 54.903 58.3217 56.3248C56.8998 57.7465 56.0983 59.6732 56.0922 61.684V222.16H54.3232V60.999C54.3319 58.3115 55.4033 55.7367 57.3036 53.8364C59.2039 51.9361 61.7788 50.8647 64.4662 50.856H130.323C133.011 50.8623 135.588 51.933 137.488 53.8338C139.389 55.7346 140.46 58.3108 140.466 60.999" fill="#3E394F"/>
<path d="M140.464 222.16V229.192C140.457 231.879 139.386 234.454 137.486 236.355C135.585 238.255 133.011 239.326 130.323 239.334H64.4692C61.7819 239.325 59.2071 238.253 57.3065 236.354C55.4059 234.454 54.3335 231.879 54.3232 229.192V222.16H56.0892C56.0958 224.17 56.8977 226.096 58.3197 227.516C59.7417 228.937 61.6682 229.736 63.6782 229.741H130.997C133.006 229.736 134.932 228.936 136.352 227.515C137.773 226.094 138.573 224.169 138.578 222.16H140.464Z" fill="#3E394F"/>
<path d="M129.761 274.052C129.761 274.052 103.837 212.233 142.089 177.243C142.089 177.243 131.936 118.687 142.089 110.529C152.242 102.371 159.129 131.739 175.446 224.74L210.568 272.601L210.613 314.262H147.472L129.761 274.052Z" fill="#FFA9A9"/>
<path d="M50.448 165.823H41.206C39.0179 165.823 36.9195 164.954 35.3723 163.407C33.8252 161.859 32.956 159.761 32.956 157.573C32.956 155.385 33.8252 153.287 35.3723 151.739C36.9195 150.192 39.0179 149.323 41.206 149.323H50.4519C52.64 149.323 54.7384 150.192 56.2856 151.739C57.8328 153.287 58.7019 155.385 58.7019 157.573C58.7019 159.761 57.8328 161.859 56.2856 163.407C54.7384 164.954 52.64 165.823 50.4519 165.823" fill="#FFA9A9"/>
<path d="M48.68 185.13H39.8869C37.3267 185.13 34.8713 184.113 33.0609 182.303C31.2505 180.492 30.2334 178.037 30.2334 175.476C30.2334 172.916 31.2505 170.461 33.0609 168.65C34.8713 166.84 37.3267 165.823 39.8869 165.823H48.68C51.2402 165.823 53.6956 166.84 55.506 168.65C57.3164 170.461 58.3335 172.916 58.3335 175.476C58.3335 178.037 57.3164 180.492 55.506 182.303C53.6956 184.113 51.2402 185.13 48.68 185.13Z" fill="#FFA9A9"/>
<path d="M49.043 204.438H40.25C37.6896 204.438 35.234 203.421 33.4236 201.61C31.6131 199.8 30.596 197.344 30.596 194.784C30.596 192.224 31.6131 189.768 33.4236 187.958C35.234 186.147 37.6896 185.13 40.25 185.13H49.043C51.6034 185.13 54.0589 186.147 55.8694 187.958C57.6799 189.768 58.697 192.224 58.697 194.784C58.697 197.344 57.6799 199.8 55.8694 201.61C54.0589 203.421 51.6034 204.438 49.043 204.438Z" fill="#FFA9A9"/>
<path d="M50.8549 220.934H41.61C39.4219 220.934 37.3235 220.065 35.7763 218.518C34.2292 216.97 33.36 214.872 33.36 212.684C33.36 210.496 34.2292 208.398 35.7763 206.85C37.3235 205.303 39.4219 204.434 41.61 204.434H50.8549C53.043 204.434 55.1415 205.303 56.6886 206.85C58.2358 208.398 59.1049 210.496 59.1049 212.684C59.1049 214.872 58.2358 216.97 56.6886 218.518C55.1415 220.065 53.043 220.934 50.8549 220.934Z" fill="#FFA9A9"/>
<g style="mix-blend-mode:multiply">
<mask id="mask0_1_1282" style="mask-type:luminance" maskUnits="userSpaceOnUse" x="39" y="71" width="40" height="39">
<path d="M78.288 71.451H39.979V109.76H78.288V71.451Z" fill="white"/>
</mask>
<g mask="url(#mask0_1_1282)">
<path d="M70.928 109.76H47.336C45.386 109.754 43.5176 108.977 42.1388 107.598C40.7599 106.219 39.9828 104.351 39.977 102.401V78.811C39.9828 76.861 40.7599 74.9924 42.1387 73.6134C43.5175 72.2345 45.3859 71.4571 47.336 71.451H70.927C72.8771 71.4568 74.7456 72.2341 76.1245 73.6132C77.5033 74.9922 78.2804 76.8609 78.286 78.811V102.401C78.2804 104.351 77.5033 106.22 76.1244 107.598C74.7455 108.977 72.878 109.754 70.928 109.76Z" fill="#FC6011"/>
</g>
</g>
<g style="mix-blend-mode:multiply">
<mask id="mask1_1_1282" style="mask-type:luminance" maskUnits="userSpaceOnUse" x="82" y="70" width="39" height="39">
<path d="M120.662 70.657H82.353V108.966H120.662V70.657Z" fill="white"/>
</mask>
<g mask="url(#mask1_1_1282)">
<path d="M113.303 108.966H89.712C87.7621 108.96 85.8936 108.183 84.5148 106.804C83.136 105.425 82.3588 103.557 82.353 101.607V78.016C82.3588 76.066 83.1359 74.1974 84.5147 72.8185C85.8935 71.4395 87.762 70.6621 89.712 70.656H113.303C115.253 70.6618 117.122 71.4391 118.501 72.8182C119.879 74.1972 120.656 76.0659 120.662 78.016V101.607C120.656 103.557 119.879 105.425 118.5 106.804C117.121 108.183 115.253 108.96 113.303 108.966Z" fill="#FC6011"/>
</g>
</g>
<g style="mix-blend-mode:multiply">
<mask id="mask2_1_1282" style="mask-type:luminance" maskUnits="userSpaceOnUse" x="39" y="118" width="39" height="40">
<path d="M77.412 118.885H39.103V157.194H77.412V118.885Z" fill="white"/>
</mask>
<g mask="url(#mask2_1_1282)">
<path d="M70.057 157.194H46.462C44.512 157.188 42.6434 156.411 41.2644 155.032C39.8855 153.653 39.108 151.785 39.102 149.835V126.249C39.108 124.299 39.8855 122.431 41.2644 121.052C42.6434 119.673 44.512 118.896 46.462 118.89H70.057C72.0068 118.896 73.8752 119.673 75.2538 121.052C76.6325 122.431 77.4095 124.299 77.415 126.249V149.84C77.4095 151.79 76.6325 153.658 75.2538 155.037C73.8752 156.416 72.0068 157.193 70.057 157.199" fill="#FC6011"/>
</g>
</g>
<g style="mix-blend-mode:multiply">
<mask id="mask3_1_1282" style="mask-type:luminance" maskUnits="userSpaceOnUse" x="81" y="118" width="39" height="39">
<path d="M119.787 118.09H81.477V156.399H119.787V118.09Z" fill="white"/>
</mask>
<g mask="url(#mask3_1_1282)">
<path d="M112.428 156.399H88.837C86.8868 156.393 85.0182 155.616 83.6391 154.238C82.2601 152.859 81.4828 150.99 81.477 149.04V125.45C81.4828 123.5 82.2601 121.631 83.6391 120.252C85.0181 118.873 86.8867 118.096 88.837 118.09H112.428C114.378 118.096 116.247 118.873 117.626 120.252C119.004 121.631 119.781 123.5 119.787 125.45V149.04C119.781 150.99 119.004 152.859 117.625 154.237C116.247 155.616 114.378 156.393 112.428 156.399Z" fill="#FC6011"/>
</g>
</g>
<g style="mix-blend-mode:multiply">
<mask id="mask4_1_1282" style="mask-type:luminance" maskUnits="userSpaceOnUse" x="81" y="164" width="39" height="39">
<path d="M119.787 164.66H81.477V202.97H119.787V164.66Z" fill="white"/>
</mask>
<g mask="url(#mask4_1_1282)">
<path d="M112.428 202.97H88.837C86.8869 202.964 85.0184 202.187 83.6394 200.808C82.2605 199.429 81.483 197.561 81.477 195.611V172.02C81.483 170.07 82.2604 168.201 83.6394 166.822C85.0183 165.443 86.8868 164.666 88.837 164.66H112.428C114.378 164.666 116.246 165.443 117.625 166.822C119.004 168.201 119.781 170.07 119.787 172.02V195.611C119.781 197.561 119.004 199.429 117.625 200.808C116.246 202.187 114.378 202.964 112.428 202.97Z" fill="#FC6011"/>
</g>
</g>
<path d="M114.796 191.017H85.543V193.167H114.796V191.017Z" fill="white"/>
<path d="M97.4619 172.651C97.4614 172.179 97.6008 171.717 97.8627 171.324C98.1246 170.931 98.4971 170.624 98.9331 170.443C99.3692 170.262 99.8492 170.214 100.313 170.305C100.776 170.397 101.202 170.624 101.536 170.957C101.87 171.29 102.099 171.716 102.191 172.179C102.284 172.642 102.238 173.122 102.058 173.558C101.878 173.995 101.572 174.368 101.18 174.631C100.788 174.894 100.326 175.035 99.854 175.036C99.2209 175.035 98.6139 174.784 98.1656 174.337C97.7173 173.89 97.4643 173.284 97.4619 172.651Z" fill="white"/>
<path d="M114.224 189.453H86.495C86.495 189.453 85.378 176.018 100.172 176.424C109.067 176.667 112.349 181.309 113.544 184.983C114.026 186.423 114.256 187.935 114.224 189.453Z" fill="white"/>
<path d="M114.164 17.742C114.364 30.628 97.432 44.742 97.432 44.742C78.739 28.067 80.69 17.742 80.69 17.742C80.6729 15.5332 81.0932 13.3429 81.9266 11.2974C82.7601 9.25184 83.9902 7.39149 85.546 5.82359C87.1018 4.2557 88.9526 3.01127 90.9916 2.16204C93.0307 1.31282 95.2177 0.87561 97.4265 0.87561C99.6353 0.87561 101.822 1.31282 103.861 2.16204C105.9 3.01127 107.751 4.2557 109.307 5.82359C110.863 7.39149 112.093 9.25184 112.926 11.2974C113.76 13.3429 114.181 15.5332 114.164 17.742ZM105.87 17.742C105.871 16.0729 105.377 14.441 104.45 13.0527C103.524 11.6644 102.206 10.5821 100.665 9.94272C99.1228 9.3033 97.426 9.13549 95.7889 9.46051C94.1517 9.78552 92.6478 10.5888 91.4672 11.7686C90.2866 12.9485 89.4825 14.452 89.1565 16.089C88.8305 17.7259 88.9973 19.4228 89.6358 20.9649C90.2743 22.507 91.3558 23.8252 92.7436 24.7526C94.1313 25.68 95.7629 26.175 97.432 26.175C99.6685 26.1753 101.814 25.2876 103.396 23.7071C104.978 22.1266 105.869 19.9825 105.871 17.746" fill="#EDAC4A"/>
<path d="M98.964 96.716C98.964 105.163 96.459 113.421 91.7659 120.445C87.0727 127.469 80.4022 132.943 72.5978 136.176C64.7934 139.409 56.2056 140.254 47.9205 138.606C39.6353 136.958 32.025 132.89 26.0518 126.917C20.0785 120.944 16.0107 113.334 14.3627 105.049C12.7147 96.7634 13.5605 88.1756 16.7931 80.3712C20.0258 72.5668 25.5003 65.8963 32.524 61.2031C39.5478 56.51 47.8055 54.005 56.253 54.005V96.716H98.964Z" fill="#FFE1A4"/>
<path d="M92.809 96.716C92.8092 103.947 90.6651 111.016 86.6479 117.028C82.6307 123.04 76.9208 127.727 70.2403 130.494C63.5598 133.261 56.2088 133.985 49.1167 132.575C42.0247 131.164 35.5102 127.682 30.3971 122.569C25.2841 117.456 21.802 110.941 20.3914 103.849C18.9807 96.7572 19.7049 89.4061 22.4721 82.7256C25.2394 76.0451 29.9255 70.3352 35.938 66.318C41.9504 62.3009 49.019 60.1568 56.25 60.157V96.716H92.809Z" fill="#EDAC4A"/>
<path d="M48.9327 77.231C48.9329 78.4595 48.5688 79.6604 47.8865 80.6819C47.2041 81.7034 46.2341 82.4997 45.0992 82.9699C43.9644 83.4402 42.7155 83.5633 41.5106 83.3238C40.3057 83.0842 39.199 82.4928 38.3303 81.6242C37.4615 80.7556 36.8699 79.6489 36.6301 78.4441C36.3904 77.2392 36.5133 75.9904 36.9834 74.8554C37.4535 73.7204 38.2496 72.7503 39.271 72.0678C40.2924 71.3853 41.4933 71.021 42.7217 71.021C44.3688 71.021 45.9485 71.6752 47.1132 72.8398C48.278 74.0044 48.9325 75.5839 48.9327 77.231Z" fill="#F25C5C"/>
<path d="M41.275 110.24C41.275 111.376 40.9382 112.486 40.3071 113.431C39.6761 114.375 38.7791 115.111 37.7297 115.546C36.6803 115.98 35.5256 116.094 34.4116 115.873C33.2976 115.651 32.2742 115.104 31.471 114.301C30.6679 113.498 30.1209 112.474 29.8993 111.36C29.6777 110.246 29.7914 109.092 30.2261 108.042C30.6608 106.993 31.3969 106.096 32.3413 105.465C33.2858 104.834 34.3961 104.497 35.532 104.497C36.2861 104.497 37.0329 104.645 37.7297 104.934C38.4265 105.223 39.0596 105.646 39.5929 106.179C40.1262 106.712 40.5492 107.345 40.8378 108.042C41.1264 108.739 41.275 109.486 41.275 110.24Z" fill="#F25C5C"/>
<path d="M48.2087 100.732C48.2087 101.275 48.0477 101.805 47.7462 102.257C47.4446 102.708 47.016 103.06 46.5145 103.267C46.0131 103.475 45.4613 103.529 44.929 103.423C44.3967 103.317 43.9077 103.056 43.524 102.672C43.1403 102.288 42.879 101.799 42.7733 101.267C42.6675 100.734 42.722 100.183 42.9298 99.6812C43.1377 99.1798 43.4896 98.7513 43.9409 98.4499C44.3923 98.1485 44.9229 97.9878 45.4657 97.988C46.1932 97.9882 46.891 98.2775 47.4054 98.792C47.9197 99.3066 48.2087 100.004 48.2087 100.732Z" fill="#F25C5C"/>
<path d="M52.3777 117.45C52.3777 118.22 52.1495 118.972 51.7218 119.612C51.2942 120.252 50.6863 120.751 49.9751 121.046C49.264 121.34 48.4814 121.417 47.7264 121.267C46.9714 121.117 46.278 120.746 45.7337 120.202C45.1894 119.658 44.8187 118.964 44.6685 118.209C44.5183 117.454 44.5954 116.672 44.89 115.961C45.1846 115.249 45.6834 114.642 46.3235 114.214C46.9635 113.786 47.716 113.558 48.4858 113.558C49.518 113.558 50.5079 113.968 51.2378 114.698C51.9677 115.428 52.3777 116.418 52.3777 117.45Z" fill="#F25C5C"/>
<path d="M69.606 107.305C69.606 108.062 69.3815 108.802 68.9608 109.432C68.5401 110.061 67.9422 110.552 67.2427 110.842C66.5432 111.131 65.7734 111.207 65.0309 111.059C64.2883 110.912 63.6062 110.547 63.0708 110.011C62.5355 109.476 62.171 108.794 62.0234 108.051C61.8758 107.309 61.9518 106.539 62.2417 105.839C62.5316 105.14 63.0224 104.542 63.652 104.122C64.2817 103.701 65.0219 103.477 65.779 103.477C66.7941 103.477 67.7675 103.881 68.4851 104.599C69.2028 105.316 69.606 106.29 69.606 107.305Z" fill="#F25C5C"/>
<path d="M81.6019 110.175C81.6019 110.844 81.4036 111.498 81.0319 112.054C80.6603 112.61 80.132 113.044 79.514 113.3C78.896 113.556 78.2159 113.622 77.5598 113.492C76.9038 113.361 76.3011 113.039 75.8282 112.566C75.3553 112.093 75.0332 111.49 74.9028 110.834C74.7725 110.178 74.8396 109.498 75.0957 108.88C75.3518 108.262 75.7854 107.734 76.3417 107.362C76.898 106.991 77.552 106.793 78.221 106.793C79.1177 106.793 79.9777 107.15 80.6118 107.784C81.2458 108.418 81.6019 109.278 81.6019 110.175Z" fill="#F25C5C"/>
<path d="M95.383 93.934H59.653V58.206C64.3454 58.2049 68.992 59.1284 73.3275 60.9236C77.6629 62.7189 81.6022 65.3507 84.9203 68.6687C88.2383 71.9868 90.8701 75.926 92.6653 80.2615C94.4605 84.5969 95.384 89.2436 95.383 93.936" fill="#FFE1A4"/>
<path d="M90.238 93.933H59.653V63.349C63.6697 63.3479 67.6472 64.1383 71.3584 65.6749C75.0695 67.2115 78.4416 69.4643 81.2818 72.3044C84.1221 75.1446 86.375 78.5166 87.9117 82.2277C89.4484 85.9388 90.2389 89.9163 90.238 93.933Z" fill="#EDAC4A"/>
<path d="M76.3072 75.567C76.3072 76.4966 76.0315 77.4053 75.5151 78.1782C74.9986 78.9511 74.2646 79.5535 73.4058 79.9092C72.547 80.265 71.602 80.358 70.6903 80.1767C69.7785 79.9953 68.9411 79.5477 68.2838 78.8904C67.6265 78.2331 67.1789 77.3956 66.9975 76.4839C66.8162 75.5722 66.9092 74.6272 67.265 73.7684C67.6207 72.9096 68.2231 72.1755 68.996 71.6591C69.769 71.1427 70.6776 70.867 71.6072 70.867C72.2244 70.867 72.8356 70.9886 73.4058 71.2248C73.9761 71.461 74.4942 71.8072 74.9306 72.2436C75.367 72.68 75.7132 73.1982 75.9494 73.7684C76.1856 74.3386 76.3072 74.9498 76.3072 75.567Z" fill="#F25C5C"/>
<path d="M69.617 86.315C69.6172 87.0049 69.4128 87.6794 69.0297 88.2531C68.6465 88.8268 68.1019 89.2741 67.4645 89.5382C66.8272 89.8024 66.1258 89.8716 65.4491 89.7371C64.7725 89.6026 64.1509 89.2705 63.663 88.7827C63.175 88.295 62.8428 87.6735 62.7081 86.9968C62.5735 86.3202 62.6425 85.6188 62.9064 84.9814C63.1704 84.344 63.6175 83.7992 64.1911 83.4159C64.7647 83.0326 65.4391 82.828 66.129 82.828C67.0538 82.8283 67.9407 83.1957 68.5948 83.8496C69.2488 84.5034 69.6165 85.3902 69.617 86.315Z" fill="#F25C5C"/>
<path d="M82.7117 89.807C82.7117 90.3212 82.5592 90.8239 82.2735 91.2514C81.9878 91.679 81.5818 92.0123 81.1067 92.2091C80.6316 92.4058 80.1088 92.4573 79.6045 92.357C79.1001 92.2567 78.6368 92.0091 78.2732 91.6454C77.9096 91.2818 77.662 90.8186 77.5616 90.3142C77.4613 89.8099 77.5128 89.2871 77.7096 88.812C77.9064 88.3369 78.2397 87.9308 78.6672 87.6451C79.0948 87.3595 79.5975 87.207 80.1117 87.207C80.8013 87.207 81.4626 87.4809 81.9502 87.9685C82.4378 88.4561 82.7117 89.1174 82.7117 89.807Z" fill="#F25C5C"/>
<path d="M35.819 89.295C34.001 87.409 32.1836 85.5223 30.367 83.635C30.1129 83.4227 29.785 83.3197 29.4552 83.3486C29.1253 83.3774 28.8204 83.5358 28.607 83.789C28.4026 84.0463 28.3046 84.3721 28.333 84.6994C28.3615 85.0268 28.5143 85.3308 28.76 85.549C30.5773 87.435 32.3947 89.3216 34.212 91.209C34.4662 91.421 34.794 91.5238 35.1238 91.4949C35.4535 91.4661 35.7585 91.3079 35.972 91.055C36.1761 90.7976 36.274 90.4718 36.2455 90.1445C36.2171 89.8173 36.0645 89.5133 35.819 89.295Z" fill="#FFE1A4"/>
<path d="M31.909 95.437C31.7134 95.1722 31.4231 94.9932 31.0988 94.9373C30.7744 94.8814 30.4409 94.9529 30.168 95.137L25.18 98.3619C24.9112 98.5545 24.7291 98.8451 24.673 99.1709C24.6168 99.4967 24.6912 99.8316 24.88 100.103C25.0754 100.368 25.3655 100.547 25.6898 100.603C26.014 100.658 26.3472 100.587 26.62 100.403L31.608 97.178C31.8763 96.9851 32.0581 96.6945 32.1143 96.3688C32.1704 96.0432 32.0973 95.7085 31.909 95.437Z" fill="#FFE1A4"/>
<path d="M42.035 86.117C41.7104 86.064 41.378 86.1385 41.1071 86.3248C40.8361 86.5112 40.6476 86.795 40.581 87.117C40.157 89.2397 39.7333 91.3617 39.31 93.483C39.2528 93.8083 39.3255 94.1431 39.5124 94.4153C39.6994 94.6876 39.9858 94.8756 40.31 94.939C40.6345 94.992 40.967 94.9175 41.2379 94.7312C41.5089 94.5448 41.6973 94.261 41.764 93.939C42.188 91.8163 42.6116 89.694 43.035 87.572C43.0911 87.2471 43.0179 86.9131 42.8311 86.6414C42.6442 86.3697 42.3585 86.1809 42.035 86.117Z" fill="#FFE1A4"/>
<path d="M52.762 90.603C52.639 90.2982 52.4038 90.0521 52.1049 89.9154C51.806 89.7787 51.4661 89.7617 51.155 89.868L45.829 91.2529C45.5195 91.3695 45.2685 91.6038 45.131 91.9047C44.9935 92.2056 44.9806 92.5486 45.095 92.859C45.2175 93.164 45.4523 93.4104 45.7512 93.5474C46.05 93.6843 46.39 93.7014 46.701 93.595L52.027 92.2099C52.3367 92.0931 52.5876 91.8587 52.7253 91.5577C52.8629 91.2568 52.8762 90.9136 52.762 90.603Z" fill="#FFE1A4"/>
<path d="M53.1809 71.833C53.1497 71.5041 52.9904 71.2007 52.7375 70.9882C52.4846 70.7757 52.1583 70.6711 51.8289 70.697C51.5016 70.7326 51.2007 70.8932 50.9889 71.1453C50.7771 71.3973 50.6707 71.7214 50.692 72.05L50.924 77.143C50.9555 77.4719 51.1149 77.7753 51.368 77.9878C51.6211 78.2003 51.9475 78.3049 52.2769 78.279C52.6043 78.2436 52.9052 78.083 53.117 77.8309C53.3287 77.5787 53.4348 77.2545 53.413 76.926L53.1809 71.833Z" fill="#FFE1A4"/>
<path d="M49.167 64.795L45 65.605C44.6732 65.6451 44.372 65.8021 44.152 66.047C43.9929 66.2362 43.8935 66.4684 43.8664 66.7142C43.8394 66.9599 43.8859 67.2082 44 67.4275C44.1142 67.6468 44.2908 67.8273 44.5077 67.9462C44.7245 68.065 44.9717 68.1168 45.218 68.095L49.385 67.285C49.7118 67.2452 50.0132 67.0881 50.233 66.843C50.3916 66.6536 50.4906 66.4215 50.5174 66.1759C50.5441 65.9303 50.4976 65.6823 50.3835 65.4632C50.2695 65.2441 50.093 65.0637 49.8765 64.9447C49.66 64.8258 49.4131 64.7737 49.167 64.795Z" fill="#FFE1A4"/>
<path d="M34.1727 72.196C33.872 72.0593 33.5299 72.0455 33.2192 72.1576C32.9085 72.2697 32.6539 72.4988 32.5098 72.796L30.8817 76.844C30.7399 77.1437 30.7231 77.4874 30.8348 77.7995C30.9464 78.1117 31.1775 78.3667 31.4772 78.5085C31.7769 78.6502 32.1206 78.6671 32.4328 78.5554C32.7449 78.4438 33 78.2127 33.1417 77.913L34.7687 73.864C34.9038 73.5631 34.9168 73.2214 34.8049 72.9112C34.6929 72.6009 34.4649 72.3463 34.1687 72.201" fill="#FFE1A4"/>
<path d="M27.4549 107.257C27.426 106.927 27.2672 106.622 27.0133 106.409C26.7595 106.196 26.4315 106.093 26.1015 106.121C25.7714 106.15 25.4663 106.309 25.2534 106.563C25.0404 106.817 24.9371 107.145 24.966 107.475C25.276 109.327 25.5846 111.179 25.8919 113.03C25.9207 113.36 26.0794 113.665 26.3332 113.878C26.5869 114.091 26.9149 114.195 27.245 114.166C27.575 114.137 27.8801 113.978 28.0932 113.725C28.3062 113.471 28.4097 113.143 28.381 112.813L27.4549 107.257Z" fill="#FFE1A4"/>
<path d="M51.937 104.577L46.265 105.85C45.9384 105.892 45.6375 106.048 45.416 106.292C45.2058 106.547 45.1029 106.874 45.1289 107.204C45.2079 107.804 45.799 108.493 46.482 108.34L52.1549 107.063C52.4811 107.021 52.7817 106.864 53.003 106.621C53.214 106.366 53.3169 106.039 53.2899 105.709C53.2109 105.109 52.62 104.42 51.938 104.573" fill="#FFE1A4"/>
<path d="M58.589 101.353C58.5746 101.19 58.5283 101.031 58.4525 100.885C58.3768 100.74 58.2731 100.61 58.1474 100.505C58.0217 100.399 57.8765 100.32 57.72 100.27C57.5635 100.221 57.3989 100.203 57.2355 100.217C57.0721 100.232 56.9131 100.278 56.7675 100.354C56.622 100.43 56.4929 100.533 56.3874 100.659C56.282 100.785 56.2023 100.93 56.153 101.086C56.1037 101.243 56.0856 101.408 56.0999 101.571C56.4479 103.694 56.7953 105.816 57.142 107.937C57.1533 108.103 57.1975 108.264 57.272 108.413C57.3466 108.561 57.45 108.693 57.5761 108.801C57.7023 108.909 57.8488 108.991 58.0069 109.041C58.1651 109.092 58.3317 109.111 58.4971 109.096C58.6625 109.082 58.8234 109.034 58.9703 108.957C59.1172 108.88 59.2472 108.774 59.3527 108.645C59.4582 108.517 59.537 108.369 59.5846 108.21C59.6322 108.051 59.6477 107.884 59.63 107.719L58.589 101.353Z" fill="#FFE1A4"/>
<path d="M62.796 114.284L55.623 112.076C55.2977 112.017 54.9624 112.089 54.6901 112.277C54.4178 112.464 54.2305 112.751 54.169 113.076C54.1185 113.4 54.1938 113.732 54.3797 114.003C54.5656 114.273 54.848 114.463 55.169 114.532L62.342 116.739C62.6673 116.798 63.0028 116.726 63.2753 116.539C63.5478 116.352 63.735 116.064 63.796 115.739C63.8462 115.415 63.7706 115.084 63.5847 114.813C63.3988 114.543 63.1167 114.354 62.796 114.285" fill="#FFE1A4"/>
<path d="M76.0417 100.678C75.9252 100.374 75.6974 100.127 75.4047 99.985C75.104 99.8475 74.7614 99.8333 74.4503 99.9454C74.1392 100.058 73.8845 100.287 73.7408 100.585L72.0047 105.677C71.8726 105.985 71.8577 106.33 71.9627 106.648C72.0486 106.878 72.2003 107.078 72.3989 107.222C72.5975 107.367 72.8343 107.449 73.0796 107.46C73.325 107.471 73.568 107.409 73.7784 107.282C73.9888 107.156 74.1573 106.97 74.2627 106.748L75.9977 101.644C76.1293 101.337 76.1442 100.992 76.0397 100.674" fill="#FFE1A4"/>
<path d="M86.8638 102.036C86.6631 101.784 86.384 101.606 86.0707 101.53L81.9028 100.256C81.7389 100.226 81.5707 100.23 81.4081 100.266C81.2455 100.302 81.0917 100.37 80.9557 100.466C80.8214 100.56 80.707 100.68 80.6191 100.819C80.5313 100.958 80.4717 101.112 80.4438 101.274C80.416 101.436 80.4204 101.602 80.4567 101.762C80.4931 101.922 80.5607 102.073 80.6558 102.207C80.8561 102.459 81.1347 102.638 81.4477 102.715L85.6157 103.988C85.7796 104.018 85.9478 104.014 86.1104 103.978C86.273 103.942 86.4268 103.874 86.5627 103.778C86.697 103.684 86.8113 103.564 86.899 103.425C86.9868 103.286 87.0463 103.132 87.0742 102.97C87.1021 102.808 87.0977 102.642 87.0615 102.482C87.0252 102.322 86.9576 102.171 86.8627 102.037" fill="#FFE1A4"/>
<path d="M85.034 112.421C84.7785 112.212 84.4512 112.111 84.1222 112.139C83.7931 112.168 83.4883 112.324 83.273 112.575L80.149 117.09C79.9444 117.348 79.8418 117.673 79.861 118.002C79.8829 118.248 79.9771 118.482 80.1318 118.674C80.2864 118.866 80.4945 119.008 80.7298 119.082C80.9652 119.157 81.2172 119.159 81.4541 119.09C81.691 119.021 81.9022 118.884 82.061 118.695L85.186 114.181C85.3907 113.923 85.4928 113.598 85.473 113.269C85.4425 112.94 85.2856 112.635 85.034 112.421Z" fill="#FFE1A4"/>
<path d="M74.8679 121.046C74.4813 119.349 74.0953 117.651 73.71 115.953C73.5969 115.647 73.3681 115.398 73.073 115.259C72.7676 115.119 72.4191 115.104 72.1029 115.218C71.7986 115.333 71.5503 115.561 71.4099 115.854C71.2869 116.163 71.2721 116.505 71.3679 116.824L72.526 121.917C72.6397 122.223 72.8683 122.472 73.163 122.611C73.4682 122.752 73.8169 122.767 74.133 122.652C74.4375 122.538 74.6859 122.31 74.8259 122.016C74.9495 121.707 74.9643 121.365 74.8679 121.046Z" fill="#FFE1A4"/>
<path d="M66.3008 120.043L60.1647 120.609C59.8395 120.644 59.5409 120.805 59.3332 121.057C59.1254 121.31 59.025 121.634 59.0536 121.96C59.0821 122.286 59.2373 122.587 59.4859 122.8C59.7344 123.013 60.0564 123.119 60.3827 123.097L66.5187 122.532C66.8488 122.503 67.1539 122.344 67.3668 122.09C67.5797 121.837 67.6831 121.509 67.6542 121.178C67.6253 120.848 67.4665 120.543 67.2127 120.33C66.9589 120.117 66.6308 120.014 66.3008 120.043Z" fill="#FFE1A4"/>
<path d="M67.31 125.274C67.1158 125.007 66.8252 124.826 66.4999 124.77C66.1746 124.714 65.8403 124.787 65.568 124.974C63.9873 126.247 62.4057 127.521 60.823 128.795C60.6844 128.888 60.5658 129.007 60.4742 129.147C60.3825 129.286 60.3197 129.442 60.2894 129.606C60.2592 129.77 60.2621 129.939 60.298 130.102C60.3339 130.265 60.402 130.419 60.4983 130.555C60.5947 130.691 60.7174 130.806 60.8591 130.894C61.0008 130.982 61.1587 131.041 61.3235 131.067C61.4882 131.093 61.6565 131.085 61.8184 131.045C61.9803 131.005 62.1324 130.933 62.266 130.833C63.848 129.561 65.43 128.288 67.012 127.013C67.2778 126.818 67.4576 126.528 67.5135 126.203C67.5695 125.878 67.4973 125.545 67.312 125.272" fill="#FFE1A4"/>
<path d="M54.796 127.612L50.86 123.446C50.7344 123.34 50.5892 123.261 50.4327 123.211C50.2762 123.162 50.1115 123.144 49.948 123.158C49.6187 123.19 49.3147 123.348 49.1 123.6C48.8878 123.854 48.7847 124.182 48.813 124.512C48.8598 124.836 49.0149 125.135 49.253 125.36L53.189 129.527C53.443 129.74 53.7709 129.843 54.101 129.815C54.4303 129.783 54.7343 129.625 54.949 129.373C55.1611 129.119 55.2643 128.791 55.236 128.461C55.1894 128.136 55.0343 127.837 54.796 127.612Z" fill="#FFE1A4"/>
<path d="M43.73 122.242C41.724 122.549 39.7177 122.855 37.711 123.161C37.3854 123.195 37.0862 123.356 36.878 123.609C36.6698 123.862 36.5693 124.186 36.598 124.513C36.6267 124.839 36.7824 125.141 37.0315 125.353C37.2806 125.566 37.6033 125.672 37.93 125.649L43.949 124.73C44.2791 124.701 44.5841 124.542 44.7971 124.288C45.01 124.035 45.1134 123.707 45.0845 123.376C45.0556 123.046 44.8967 122.741 44.6429 122.528C44.3891 122.315 44.061 122.212 43.731 122.241" fill="#FFE1A4"/>
<path d="M37.998 118.863L31.979 116.898C31.6775 116.766 31.337 116.755 31.0276 116.867C30.7181 116.978 30.4631 117.204 30.315 117.498C30.1772 117.799 30.1629 118.141 30.2751 118.453C30.3872 118.764 30.617 119.018 30.915 119.162L36.935 121.126C37.2363 121.258 37.5768 121.269 37.8862 121.158C38.1956 121.046 38.4504 120.82 38.598 120.526C38.7357 120.225 38.75 119.883 38.6378 119.572C38.5256 119.261 38.2959 119.006 37.998 118.863Z" fill="#FFE1A4"/>
<path d="M74.755 82.2919C74.4307 82.2407 74.099 82.3159 73.8285 82.502C73.558 82.688 73.3692 82.9708 73.301 83.2919C72.8003 85.1439 72.3003 86.9959 71.801 88.8479C71.7425 89.1732 71.8147 89.5083 72.0019 89.7806C72.1892 90.0529 72.4764 90.2402 72.801 90.3019C73.1253 90.3532 73.4569 90.278 73.7274 90.0919C73.998 89.9059 74.1868 89.6231 74.255 89.3019C74.7556 87.4499 75.2556 85.5979 75.755 83.7459C75.8129 83.4208 75.7405 83.0859 75.5534 82.8137C75.3662 82.5416 75.0793 82.3541 74.755 82.2919Z" fill="#FFE1A4"/>
<path d="M83.9783 83.022C83.7906 82.7552 83.5053 82.5734 83.1843 82.516L79.8282 82.168C79.4968 82.1168 79.1582 82.1918 78.8793 82.378C78.6162 82.5686 78.4353 82.8521 78.3732 83.171C78.3438 83.335 78.3473 83.5033 78.3834 83.666C78.4194 83.8287 78.4873 83.9827 78.5832 84.119C78.7706 84.386 79.0561 84.568 79.3772 84.625L82.7333 84.973C83.0644 85.0247 83.4029 84.9498 83.6813 84.763C83.9517 84.5717 84.1353 84.281 84.1915 83.9545C84.2478 83.6281 84.1721 83.2927 83.9813 83.022" fill="#FFE1A4"/>
<path d="M79.957 74.186C79.6322 74.1312 79.2989 74.2049 79.0275 74.3916C78.7561 74.5782 78.568 74.8631 78.503 75.186C78.3116 76.5373 78.121 77.888 77.931 79.238C77.8801 79.5601 77.9571 79.8893 78.1455 80.1555C78.3339 80.4216 78.6189 80.6036 78.9396 80.6626C79.2603 80.7215 79.5914 80.6529 79.8622 80.4712C80.1329 80.2895 80.322 80.0091 80.389 79.69C80.579 78.34 80.7693 76.9893 80.96 75.638C81.014 75.3133 80.94 74.9804 80.7535 74.7092C80.567 74.438 80.2825 74.2497 79.96 74.184" fill="#FFE1A4"/>
<g style="mix-blend-mode:multiply">
<mask id="mask5_1_1282" style="mask-type:luminance" maskUnits="userSpaceOnUse" x="39" y="165" width="39" height="39">
<path d="M77.412 165.454H39.103V203.764H77.412V165.454Z" fill="white"/>
</mask>
<g mask="url(#mask5_1_1282)">
<path d="M70.057 203.764H46.462C44.512 203.758 42.6434 202.981 41.2644 201.602C39.8855 200.223 39.108 198.355 39.102 196.405V172.814C39.1078 170.864 39.8851 168.995 41.2641 167.616C42.6431 166.237 44.5118 165.46 46.462 165.454H70.057C72.007 165.46 73.8755 166.237 75.2542 167.616C76.6329 168.995 77.4097 170.864 77.415 172.814V196.405C77.4095 198.355 76.6325 200.223 75.2538 201.602C73.8752 202.981 72.0068 203.758 70.057 203.764Z" fill="#FC6011"/>
</g>
</g>
<path d="M66.616 69.482L64.649 66.357C64.4562 66.0882 64.1655 65.906 63.8395 65.8499C63.5135 65.7937 63.1785 65.8681 62.907 66.057C62.6423 66.2529 62.4635 66.5433 62.4076 66.8678C62.3517 67.1923 62.4231 67.5258 62.607 67.799L64.574 70.923C64.7664 71.1919 65.057 71.3743 65.3829 71.4304C65.7088 71.4866 66.0437 71.412 66.315 71.223C66.5795 71.0272 66.7584 70.737 66.8142 70.4127C66.8701 70.0884 66.7987 69.755 66.615 69.482" fill="#FFE1A4"/>
<path d="M65.5842 73.758C65.3282 73.5499 65.0012 73.4496 64.6725 73.4783C64.3438 73.5071 64.0392 73.6626 63.8232 73.912C62.8939 75.1053 61.9632 76.2977 61.0312 77.489C60.8275 77.744 60.7316 78.0685 60.764 78.3933C60.7964 78.7181 60.9545 79.0173 61.2046 79.227C61.4546 79.4367 61.7768 79.5403 62.1023 79.5156C62.4277 79.491 62.7306 79.34 62.9462 79.095C63.8795 77.9017 64.8102 76.7093 65.7382 75.518C65.9465 75.2622 66.0469 74.9354 66.0182 74.6068C65.9894 74.2782 65.8338 73.9737 65.5842 73.758Z" fill="#FFE1A4"/>
</svg>
