<svg width="224" height="255" viewBox="0 0 224 255" fill="none" xmlns="http://www.w3.org/2000/svg">
<path d="M191.601 206.063C191.601 206.063 191.733 195.417 202.247 195.417C202.247 195.417 191.601 195.285 191.601 184.771C191.601 184.771 191.469 195.417 180.955 195.417C180.95 195.416 191.601 195.548 191.601 206.063Z" fill="#FC6011"/>
<path d="M61.2368 254.279C61.2368 254.279 61.3688 243.633 71.8828 243.633C71.8828 243.633 61.2368 243.503 61.2368 232.988C61.2368 232.988 61.1068 243.633 50.5918 243.633C50.5938 243.633 61.2368 243.765 61.2368 254.279Z" fill="#FC6011"/>
<path d="M125.794 81.199C125.794 81.199 125.926 70.553 136.44 70.553C136.44 70.553 125.794 70.421 125.794 59.907C125.794 59.907 125.662 70.553 115.148 70.553C115.148 70.553 125.794 70.684 125.794 81.199Z" fill="#FC6011"/>
<path d="M165.632 238.144C165.632 238.144 165.709 231.893 171.883 231.893C171.883 231.893 165.632 231.815 165.632 225.641C165.632 225.641 165.555 231.893 159.38 231.893C159.38 231.893 165.632 231.97 165.632 238.144Z" fill="#FC6011"/>
<path d="M29.9776 239.239C29.9776 239.239 30.0546 232.988 36.2296 232.988C36.2296 232.988 29.9776 232.91 29.9776 226.736C29.9776 226.736 29.9006 232.988 23.7266 232.988C23.7266 232.988 29.9776 233.065 29.9776 239.239Z" fill="#FC6011"/>
<path d="M211.337 110.264C208.931 110.264 206.58 109.55 204.58 108.214C202.58 106.877 201.021 104.978 200.1 102.755C199.18 100.533 198.939 98.0872 199.409 95.7279C199.878 93.3686 201.036 91.2014 202.737 89.5005C204.438 87.7995 206.605 86.6411 208.965 86.1718C211.324 85.7024 213.769 85.9432 215.992 86.8636C218.214 87.7841 220.114 89.3429 221.451 91.343C222.787 93.343 223.501 95.6945 223.501 98.1C223.497 101.325 222.214 104.417 219.934 106.697C217.654 108.978 214.562 110.26 211.337 110.264ZM211.337 89.615C209.659 89.615 208.018 90.1126 206.623 91.045C205.227 91.9773 204.14 93.3025 203.498 94.8529C202.855 96.4034 202.687 98.1094 203.015 99.7553C203.342 101.401 204.15 102.913 205.337 104.1C206.524 105.286 208.036 106.095 209.681 106.422C211.327 106.749 213.033 106.581 214.584 105.939C216.134 105.297 217.459 104.209 218.392 102.814C219.324 101.419 219.822 99.7782 219.822 98.1C219.818 95.8508 218.923 93.695 217.332 92.1046C215.742 90.5142 213.586 89.619 211.337 89.615Z" fill="#F9CA24"/>
<path opacity="0.34" d="M28.123 93.362C23.4595 93.362 18.9008 91.9791 15.0233 89.3883C11.1457 86.7974 8.12356 83.115 6.3389 78.8065C4.55423 74.4981 4.08723 69.7572 4.99695 65.1833C5.90667 60.6095 8.15225 56.4081 11.4497 53.1105C14.7472 49.8129 18.9485 47.5671 23.5223 46.6572C28.0961 45.7473 32.837 46.2141 37.1455 47.9986C41.4541 49.783 45.1367 52.8051 47.7277 56.6825C50.3187 60.5599 51.7018 65.1185 51.702 69.782C51.6951 76.0335 49.2087 82.027 44.7883 86.4476C40.3679 90.8682 34.3745 93.3548 28.123 93.362ZM28.123 49.884C24.1871 49.884 20.3396 51.0511 17.0671 53.2378C13.7946 55.4244 11.2439 58.5323 9.73776 62.1686C8.23158 65.8048 7.83747 69.8061 8.60531 73.6663C9.37316 77.5265 11.2684 81.0723 14.0515 83.8554C16.8346 86.6385 20.3804 88.5338 24.2407 89.3016C28.1009 90.0695 32.1021 89.6754 35.7383 88.1692C39.3746 86.663 42.4825 84.1124 44.6692 80.8398C46.8558 77.5673 48.0229 73.7198 48.0229 69.784C48.0174 64.5078 45.919 59.4493 42.1883 55.7184C38.4576 51.9874 33.3991 49.8888 28.123 49.883V49.884Z" fill="#F9CA24"/>
<path opacity="0.38" d="M122.988 244.109C118.325 244.109 113.767 242.726 109.889 240.135C106.012 237.544 102.99 233.862 101.206 229.553C99.4213 225.245 98.9544 220.505 99.8642 215.931C100.774 211.357 103.02 207.156 106.317 203.859C109.614 200.561 113.815 198.316 118.389 197.406C122.963 196.496 127.703 196.963 132.012 198.748C136.32 200.532 140.002 203.554 142.593 207.431C145.184 211.308 146.567 215.867 146.567 220.53C146.56 226.781 144.073 232.775 139.653 237.195C135.233 241.615 129.239 244.102 122.988 244.109ZM122.988 200.632C119.052 200.632 115.205 201.799 111.932 203.986C108.66 206.172 106.109 209.28 104.603 212.917C103.097 216.553 102.703 220.554 103.47 224.414C104.238 228.275 106.134 231.82 108.917 234.603C111.7 237.387 115.246 239.282 119.106 240.05C122.966 240.817 126.967 240.423 130.604 238.917C134.24 237.411 137.348 234.86 139.534 231.588C141.721 228.315 142.888 224.468 142.888 220.532C142.882 215.256 140.783 210.198 137.053 206.467C133.322 202.737 128.264 200.638 122.988 200.632Z" fill="#F9CA24"/>
<path d="M209.049 156.33C209.784 149.981 205.233 144.238 198.884 143.502C192.535 142.767 186.792 147.318 186.057 153.667C185.322 160.016 189.873 165.759 196.222 166.494C202.571 167.23 208.314 162.679 209.049 156.33Z" fill="#FC6011"/>
<path d="M205.782 146.729C207.201 148.526 208.056 150.703 208.238 152.986C208.419 155.268 207.92 157.553 206.803 159.552C205.687 161.551 204.002 163.174 201.963 164.215C199.924 165.257 197.621 165.67 195.347 165.403C193.073 165.136 190.929 164.201 189.187 162.715C187.444 161.23 186.181 159.261 185.558 157.058C184.934 154.855 184.978 152.516 185.683 150.338C186.389 148.159 187.725 146.239 189.522 144.82C191.931 142.917 194.998 142.05 198.047 142.408C201.096 142.766 203.878 144.32 205.782 146.729Z" fill="#F9CA24"/>
<path opacity="0.7" d="M204.421 147.805C205.627 149.333 206.353 151.184 206.508 153.125C206.662 155.065 206.237 157.008 205.287 158.707C204.338 160.407 202.905 161.786 201.171 162.671C199.437 163.557 197.48 163.908 195.546 163.681C193.613 163.453 191.79 162.658 190.309 161.395C188.828 160.132 187.754 158.458 187.224 156.584C186.694 154.711 186.732 152.723 187.332 150.871C187.932 149.019 189.068 147.386 190.596 146.18C191.61 145.379 192.772 144.785 194.016 144.433C195.26 144.081 196.561 143.977 197.845 144.128C199.129 144.279 200.37 144.682 201.498 145.312C202.627 145.943 203.62 146.79 204.421 147.805Z" fill="#FC6011"/>
<path d="M199.954 152.169C199.438 152.075 198.907 152.107 198.406 152.261C197.875 152.43 197.357 152.634 196.853 152.872L196.565 153.004C196.097 153.217 195.711 153.383 195.404 153.504C195.362 153.519 195.32 153.533 195.282 153.548C194.99 153.659 194.68 153.711 194.368 153.7C194.231 153.693 194.097 153.656 193.976 153.591C193.855 153.526 193.75 153.435 193.668 153.325C193.539 153.166 193.453 152.976 193.418 152.775C193.383 152.573 193.4 152.365 193.468 152.172C193.548 151.932 193.673 151.709 193.836 151.515C194.052 151.255 194.297 151.02 194.566 150.815C194.702 150.708 194.843 150.608 194.989 150.515C195.257 150.348 195.538 150.203 195.83 150.083C196.31 149.883 196.814 149.747 197.33 149.677L196.877 148.118C196.297 148.173 195.73 148.325 195.201 148.567C194.776 148.756 194.368 148.983 193.984 149.245L193.03 148.026L191.83 148.971L192.815 150.218C192.5 150.538 192.23 150.9 192.015 151.294C191.71 151.828 191.566 152.439 191.601 153.053C191.646 153.611 191.858 154.142 192.209 154.578C192.55 155.061 193.058 155.4 193.635 155.529C194.148 155.626 194.677 155.596 195.176 155.44C195.635 155.291 196.086 155.118 196.526 154.92C196.689 154.85 196.862 154.772 197.039 154.689C197.396 154.526 197.706 154.392 197.969 154.289C198.098 154.235 198.216 154.189 198.322 154.152C198.614 154.04 198.927 153.99 199.24 154.005C199.378 154.013 199.514 154.051 199.636 154.117C199.758 154.182 199.865 154.274 199.948 154.385C200.072 154.542 200.153 154.729 200.181 154.927C200.209 155.125 200.183 155.327 200.107 155.512C199.991 155.819 199.812 156.098 199.581 156.331C199.395 156.529 199.194 156.713 198.981 156.881C198.794 157.026 198.598 157.16 198.395 157.281C198.053 157.484 197.691 157.651 197.315 157.781C196.755 157.987 196.165 158.097 195.569 158.105L195.977 159.705C196.65 159.712 197.317 159.58 197.937 159.317C198.45 159.116 198.941 158.86 199.4 158.555L200.363 159.775L201.563 158.83L200.593 157.602C200.972 157.245 201.293 156.83 201.544 156.374C201.852 155.841 201.999 155.231 201.968 154.616C201.926 154.061 201.717 153.532 201.368 153.098C201.03 152.622 200.525 152.29 199.954 152.169Z" fill="#F9CA24"/>
<path d="M45.3343 206.263C44.652 208.449 43.3369 210.383 41.5553 211.822C39.7736 213.26 37.6054 214.138 35.3249 214.344C33.0444 214.55 30.754 214.075 28.7434 212.979C26.7327 211.884 25.0922 210.216 24.0292 208.188C22.9662 206.16 22.5285 203.862 22.7714 201.585C23.0143 199.309 23.927 197.155 25.394 195.397C26.861 193.639 28.8165 192.355 31.013 191.708C33.2096 191.061 35.5486 191.08 37.7343 191.763C40.6648 192.678 43.1117 194.72 44.537 197.439C45.9622 200.158 46.249 203.332 45.3343 206.263Z" fill="#FC6011"/>
<path d="M37.2933 212.771C43.5208 211.333 47.403 205.118 45.9644 198.89C44.5258 192.663 38.3112 188.781 32.0836 190.219C25.8561 191.658 21.9738 197.872 23.4124 204.1C24.851 210.328 31.0657 214.21 37.2933 212.771Z" fill="#F9CA24"/>
<path opacity="0.7" d="M44.2944 203.674C45.4987 198.373 42.1776 193.099 36.8765 191.895C31.5754 190.69 26.3018 194.012 25.0975 199.313C23.8933 204.614 27.2144 209.887 32.5154 211.092C37.8165 212.296 43.0901 208.975 44.2944 203.674Z" fill="#FC6011"/>
<path d="M37.968 203.202C37.7534 202.724 37.4273 202.304 37.017 201.977C36.578 201.635 36.117 201.322 35.637 201.04C35.549 200.986 35.459 200.932 35.365 200.877C34.926 200.611 34.57 200.386 34.301 200.198L34.201 200.123C33.9442 199.946 33.7259 199.719 33.559 199.455C33.4865 199.338 33.4409 199.206 33.4255 199.068C33.4101 198.931 33.4253 198.793 33.47 198.662C33.529 198.466 33.6371 198.288 33.7841 198.146C33.9311 198.003 34.1122 197.901 34.31 197.848C34.5538 197.778 34.8087 197.756 35.061 197.781C35.3981 197.812 35.7305 197.881 36.052 197.987C36.2173 198.039 36.3799 198.099 36.539 198.168C36.8281 198.295 37.1064 198.445 37.371 198.617C37.8074 198.901 38.2051 199.24 38.554 199.626L39.585 198.372C39.2119 197.926 38.7672 197.544 38.269 197.244C37.8732 196.999 37.4562 196.791 37.023 196.621L37.481 195.154L36.024 194.698L35.551 196.216C35.1096 196.137 34.6592 196.119 34.213 196.165C33.6 196.214 33.0145 196.441 32.528 196.817C32.0931 197.168 31.7742 197.642 31.613 198.177C31.4065 198.731 31.4128 199.342 31.631 199.892C31.8411 200.37 32.1656 200.79 32.576 201.113C32.9573 201.409 33.3549 201.683 33.767 201.934C33.918 202.034 34.078 202.129 34.247 202.234C34.5804 202.434 34.8657 202.614 35.103 202.775C35.22 202.85 35.324 202.922 35.416 202.988C35.6729 203.167 35.8904 203.397 36.055 203.663C36.1264 203.782 36.171 203.915 36.1859 204.054C36.2007 204.192 36.1854 204.331 36.141 204.463C36.081 204.653 35.9717 204.825 35.8242 204.959C35.6767 205.094 35.4962 205.187 35.301 205.23C34.9823 205.308 34.6508 205.317 34.328 205.259C34.057 205.216 33.7896 205.153 33.528 205.07C33.3015 204.999 33.0797 204.914 32.864 204.815C32.5028 204.647 32.1594 204.444 31.839 204.207C31.3536 203.861 30.9303 203.436 30.587 202.949L29.499 204.187C29.8734 204.747 30.3592 205.223 30.926 205.587C31.3826 205.896 31.8702 206.157 32.381 206.365L31.917 207.848L33.374 208.302L33.839 206.809C34.3485 206.92 34.872 206.951 35.391 206.901C36.0052 206.855 36.5926 206.631 37.082 206.257C37.5172 205.91 37.8358 205.438 37.995 204.904C38.2003 204.353 38.1907 203.746 37.968 203.202Z" fill="#F9CA24"/>
<path d="M143.754 124.632V136.313H70.7542C69.2059 136.314 67.7204 135.701 66.6235 134.608C65.5267 133.515 64.908 132.032 64.9032 130.484C64.8996 130.346 64.907 130.208 64.9252 130.072C65.0264 128.595 65.6847 127.212 66.767 126.202C67.8494 125.192 69.2749 124.631 70.7552 124.632H143.754Z" fill="#171723"/>
<path d="M71.6299 128.578H148.482V148.878H71.6299V128.578Z" fill="#B6B7B7"/>
<path opacity="0.43" d="M77.5621 136.313C77.5621 136.313 80.7141 128.207 71.1621 128.207V143.966H77.2811L77.5621 136.313Z" fill="white"/>
<path d="M131.071 92.544L168.854 98.729C172.764 99.37 175.454 102.772 174.874 106.329L163.308 176.984C162.726 180.538 159.09 182.904 155.18 182.263L117.397 176.077C113.497 175.439 110.803 172.037 111.385 168.483L122.955 97.824C123.534 94.269 127.171 91.903 131.071 92.544Z" fill="#F9CA24"/>
<path d="M131.246 92.5704L117.568 176.106L124.165 177.186L137.843 93.6504L131.246 92.5704Z" fill="#F0932B"/>
<path d="M128.928 164.425L127.494 173.183L129.641 173.534L131.074 164.776L128.928 164.425Z" fill="white"/>
<path d="M131.086 151.241L129.652 159.999L131.799 160.35L133.233 151.592L131.086 151.241Z" fill="white"/>
<path d="M133.245 138.057L131.812 146.815L133.958 147.166L135.392 138.408L133.245 138.057Z" fill="white"/>
<path d="M135.403 124.874L133.969 133.632L136.115 133.983L137.549 125.225L135.403 124.874Z" fill="white"/>
<path d="M137.562 111.69L136.128 120.448L138.274 120.799L139.708 112.041L137.562 111.69Z" fill="white"/>
<path d="M139.724 98.5054L138.286 107.265L140.433 107.617L141.871 98.8577L139.724 98.5054Z" fill="white"/>
<path d="M155.933 102.491L153.27 118.758L164.31 120.566L166.973 104.298L155.933 102.491Z" fill="#F6E58D"/>
<path d="M154.183 132.379H71.5234V152.681H154.183V132.379Z" fill="#E7E7E7"/>
<path d="M159.751 136.314V209.18H70.7514C69.2031 209.181 67.7176 208.568 66.6207 207.475C65.5238 206.382 64.9052 204.899 64.9004 203.351V130.484C64.9052 132.032 65.5238 133.515 66.6207 134.608C67.7176 135.701 69.2031 136.314 70.7514 136.313L159.751 136.314Z" fill="#3C4382"/>
<path d="M159.751 136.314V209.18H70.7514C69.2031 209.181 67.7176 208.568 66.6207 207.475C65.5238 206.382 64.9052 204.899 64.9004 203.351V130.484C64.9052 132.032 65.5238 133.515 66.6207 134.608C67.7176 135.701 69.2031 136.314 70.7514 136.313L159.751 136.314Z" fill="#29293D"/>
<path d="M153.079 0.000149666L119.927 33.2209L178.183 91.3573L211.335 58.1365L153.079 0.000149666Z" fill="#FC6011"/>
<path d="M205.468 60.58L180.616 85.48C179.843 85.1578 179.014 84.9923 178.177 84.9931C177.34 84.994 176.512 85.1612 175.74 85.485L125.801 35.649C126.123 34.8765 126.289 34.0476 126.288 33.2105C126.287 32.3735 126.12 31.5449 125.796 30.773L150.648 5.87305C151.42 6.19611 152.249 6.36247 153.086 6.36247C153.923 6.36247 154.752 6.19611 155.524 5.87305L205.463 55.7091C205.141 56.4809 204.976 57.3089 204.977 58.145C204.978 58.9812 205.145 59.8089 205.468 60.58Z" fill="#F6E58D"/>
<path d="M165.631 63.6349C175.548 63.6349 183.588 55.5953 183.588 45.6779C183.588 35.7606 175.548 27.7209 165.631 27.7209C155.713 27.7209 147.674 35.7606 147.674 45.6779C147.674 55.5953 155.713 63.6349 165.631 63.6349Z" fill="#FC6011"/>
<path d="M169.351 51.068C169.411 50.1429 169.248 49.2169 168.876 48.368C168.472 47.4704 168.01 46.5999 167.494 45.762C167.401 45.606 167.303 45.445 167.203 45.283C166.736 44.505 166.367 43.86 166.103 43.343C166.067 43.272 166.034 43.203 166.003 43.143C165.748 42.6541 165.594 42.1187 165.552 41.569C165.535 41.3257 165.573 41.0818 165.662 40.8549C165.751 40.628 165.89 40.4238 166.068 40.257C166.321 40.0001 166.635 39.812 166.981 39.7105C167.327 39.609 167.693 39.5975 168.045 39.677C168.483 39.7685 168.901 39.9426 169.275 40.19C169.775 40.5178 170.238 40.9009 170.653 41.332C170.868 41.549 171.073 41.7769 171.265 42.015C171.612 42.4517 171.923 42.9163 172.194 43.404C172.641 44.2069 172.982 45.0648 173.208 45.956L175.855 44.847C175.64 43.8411 175.26 42.878 174.73 41.997C174.313 41.2883 173.833 40.6189 173.296 39.997L175.225 38.08L173.325 36.167L171.331 38.149C170.706 37.6607 170.016 37.2622 169.281 36.965C168.282 36.5361 167.181 36.4058 166.11 36.59C165.14 36.7814 164.25 37.2589 163.555 37.961C162.775 38.6588 162.281 39.6206 162.169 40.661C162.102 41.5824 162.263 42.5061 162.637 43.351C162.989 44.1282 163.384 44.885 163.821 45.618C163.977 45.892 164.148 46.179 164.33 46.474C164.688 47.0667 164.985 47.5843 165.222 48.027C165.341 48.241 165.444 48.439 165.534 48.617C165.788 49.1092 165.938 49.6483 165.976 50.201C165.99 50.4459 165.95 50.6909 165.86 50.9189C165.769 51.1469 165.63 51.3524 165.452 51.521C165.201 51.7698 164.888 51.9477 164.546 52.0366C164.204 52.1255 163.845 52.1222 163.505 52.027C162.943 51.884 162.417 51.6251 161.961 51.267C161.574 50.9783 161.211 50.6603 160.874 50.316C160.578 50.0182 160.301 49.7015 160.046 49.368C159.619 48.8083 159.251 48.2069 158.946 47.573C158.473 46.6319 158.162 45.6176 158.028 44.573L155.308 45.608C155.43 46.7914 155.795 47.9368 156.382 48.972C156.838 49.8334 157.384 50.6439 158.012 51.39L156.063 53.326L157.963 55.239L159.925 53.289C160.629 53.8825 161.421 54.3629 162.273 54.713C163.271 55.1472 164.373 55.283 165.447 55.104C166.413 54.9196 167.3 54.4448 167.99 53.743C168.763 53.054 169.249 52.099 169.351 51.068Z" fill="#F6E58D"/>
<path d="M34.7388 81.806L0 151.796L39.9122 171.606L74.651 101.616L34.7388 81.806Z" fill="#FC6011"/>
<path d="M38.7109 86.3511L68.631 101.201C68.5738 101.994 68.6749 102.79 68.9285 103.543C69.182 104.296 69.583 104.991 70.1079 105.588L40.3279 165.588C39.5353 165.531 38.7394 165.633 37.9863 165.886C37.2332 166.14 36.538 166.541 35.9409 167.065L6.02097 152.214C6.07741 151.422 5.9759 150.626 5.72235 149.873C5.4688 149.12 5.06825 148.425 4.54395 147.828L34.3239 87.8281C35.1166 87.885 35.9126 87.7837 36.6658 87.5302C37.4189 87.2766 38.1141 86.8758 38.7109 86.3511Z" fill="#F6E58D"/>
<path d="M37.3253 143.754C46.7407 143.754 54.3733 136.121 54.3733 126.706C54.3733 117.291 46.7407 109.658 37.3253 109.658C27.91 109.658 20.2773 117.291 20.2773 126.706C20.2773 136.121 27.91 143.754 37.3253 143.754Z" fill="#FC6011"/>
<path d="M41.0516 121.731C40.2003 121.955 39.4156 122.381 38.7636 122.973C38.0775 123.607 37.4338 124.286 36.8366 125.004C36.7236 125.134 36.6086 125.272 36.4926 125.41C35.9326 126.065 35.4646 126.592 35.0796 126.987C35.0256 127.04 34.9736 127.087 34.9256 127.141C34.5627 127.518 34.1273 127.818 33.6456 128.023C33.4316 128.112 33.2006 128.151 32.9693 128.139C32.738 128.127 32.5123 128.064 32.3086 127.954C31.9996 127.803 31.7344 127.576 31.5383 127.294C31.3422 127.012 31.2218 126.684 31.1886 126.342C31.1385 125.92 31.1694 125.492 31.2796 125.081C31.4237 124.532 31.6287 124 31.8906 123.496C32.0193 123.241 32.1629 122.989 32.3216 122.74C32.6099 122.295 32.9344 121.875 33.2916 121.484C33.8796 120.839 34.5488 120.272 35.2826 119.799L33.4826 117.752C32.6418 118.249 31.8895 118.883 31.2566 119.627C30.7444 120.216 30.2865 120.85 29.8886 121.521L27.5826 120.362L26.4336 122.651L28.8186 123.851C28.5671 124.56 28.4169 125.3 28.3726 126.051C28.2876 127.079 28.5029 128.111 28.9926 129.019C29.4556 129.833 30.1523 130.489 30.9926 130.903C31.8545 131.395 32.8682 131.549 33.8376 131.337C34.6867 131.119 35.4693 130.696 36.1166 130.105C36.709 129.553 37.2705 128.969 37.7986 128.355C37.9986 128.13 38.2066 127.89 38.4156 127.639C38.8406 127.139 39.2156 126.714 39.5446 126.367C39.7006 126.194 39.8446 126.04 39.9806 125.907C40.3472 125.53 40.7873 125.232 41.2736 125.031C41.4897 124.944 41.7222 124.906 41.9547 124.919C42.1871 124.931 42.414 124.995 42.6196 125.104C42.9192 125.255 43.1736 125.482 43.3568 125.763C43.5399 126.044 43.6454 126.369 43.6626 126.704C43.7039 127.253 43.63 127.804 43.4456 128.323C43.3018 128.757 43.1253 129.18 42.9176 129.588C42.7397 129.944 42.5393 130.288 42.3176 130.619C41.9431 131.172 41.5132 131.686 41.0346 132.152C40.3303 132.862 39.5111 133.448 38.6116 133.885L40.3656 136.02C41.3925 135.552 42.3118 134.877 43.0656 134.037C43.7029 133.365 44.2673 132.628 44.7496 131.837L47.0826 133.011L48.2296 130.722L45.8826 129.545C46.2049 128.732 46.3986 127.874 46.4566 127.002C46.546 125.972 46.3348 124.939 45.8486 124.027C45.3913 123.213 44.6968 122.557 43.8576 122.148C43.0073 121.663 42.0061 121.514 41.0516 121.731Z" fill="#F6E58D"/>
<path d="M107.854 42.327C107.854 35.1624 105.729 28.1587 101.749 22.2017C97.7681 16.2446 92.1104 11.6017 85.4911 8.86013C78.8718 6.11853 71.5881 5.40135 64.5612 6.79929C57.5342 8.19723 51.0797 11.6475 46.0137 16.7138C40.9476 21.7801 37.4977 28.2349 36.1002 35.2619C34.7026 42.2889 35.4202 49.5725 38.1622 56.1917C40.9041 62.8109 45.5473 68.4683 51.5046 72.4486C57.4619 76.4289 64.4657 78.5533 71.6303 78.5531C72.275 78.5531 72.916 78.5357 73.5533 78.5011L88.2383 93.879V74.522C94.1488 71.474 99.1058 66.8574 102.566 61.1783C106.026 55.4993 107.856 48.9772 107.854 42.327Z" fill="#FC6011"/>
<path d="M97.6442 30.3541L66.9322 61.0661L45.6152 39.7491L52.3792 32.9851L66.9322 47.5381L90.8802 23.5901L97.6442 30.3541Z" fill="white"/>
</svg>
