<svg width="102" height="102" viewBox="0 0 102 102" fill="none" xmlns="http://www.w3.org/2000/svg">
<g id="Profile picture">
<g id="Group 6778">
<path id="Intersection 2" opacity="0.26" d="M7.95215 78.015H93.9651C89.328 85.2047 82.9613 91.1162 75.4479 95.2082C67.9345 99.3001 59.5146 101.442 50.9591 101.437C42.4036 101.442 33.9835 99.3003 26.4699 95.2083C18.9564 91.1164 12.5894 85.2048 7.95215 78.015Z" fill="black"/>
<g id="Group 6777" opacity="0.44">
<g id="photo-camera">
<g id="Group 666">
<path id="Path 4211" d="M57.0186 85.47H55.2186C55.0891 85.4639 54.9642 85.4203 54.8591 85.3445C54.754 85.2687 54.6732 85.1639 54.6266 85.043L54.1616 83.643C54.1143 83.5226 54.033 83.4186 53.9278 83.3435C53.8225 83.2684 53.6977 83.2255 53.5686 83.22H48.4686C48.3391 83.226 48.2142 83.2696 48.1091 83.3455C48.004 83.4213 47.9232 83.526 47.8766 83.647L47.4116 85.047C47.3649 85.1679 47.2841 85.2727 47.179 85.3485C47.0739 85.4243 46.949 85.4679 46.8196 85.474H45.0186C44.6214 85.474 44.2405 85.6315 43.9593 85.9119C43.6781 86.1923 43.5196 86.5728 43.5186 86.97V93.72C43.5186 94.1178 43.6766 94.4993 43.9579 94.7806C44.2392 95.0619 44.6207 95.22 45.0186 95.22H57.0186C57.4164 95.22 57.7979 95.0619 58.0792 94.7806C58.3605 94.4993 58.5186 94.1178 58.5186 93.72V86.97C58.5186 86.5721 58.3605 86.1906 58.0792 85.9093C57.7979 85.628 57.4164 85.47 57.0186 85.47ZM51.0186 93.72C50.2769 93.72 49.5519 93.5 48.9352 93.088C48.3185 92.6759 47.8378 92.0903 47.554 91.405C47.2702 90.7198 47.1959 89.9658 47.3406 89.2384C47.4853 88.511 47.8425 87.8428 48.3669 87.3183C48.8914 86.7939 49.5595 86.4367 50.287 86.292C51.0144 86.1473 51.7684 86.2216 52.4536 86.5054C53.1388 86.7893 53.7245 87.2699 54.1366 87.8866C54.5486 88.5033 54.7686 89.2283 54.7686 89.97C54.7686 90.9645 54.3735 91.9184 53.6702 92.6216C52.9669 93.3249 52.0131 93.72 51.0186 93.72ZM56.4936 88.02C56.3897 88.02 56.2882 87.9892 56.2019 87.9315C56.1155 87.8738 56.0483 87.7918 56.0085 87.6959C55.9688 87.5999 55.9584 87.4944 55.9786 87.3925C55.9989 87.2907 56.0489 87.1972 56.1223 87.1237C56.1957 87.0503 56.2893 87.0003 56.3911 86.9801C56.493 86.9598 56.5985 86.9702 56.6945 87.0099C56.7904 87.0497 56.8724 87.117 56.9301 87.2033C56.9878 87.2896 57.0186 87.3911 57.0186 87.495C57.0186 87.564 57.0049 87.6323 56.9785 87.6961C56.952 87.7599 56.9133 87.8178 56.8644 87.8666C56.8156 87.9153 56.7576 87.954 56.6938 87.9803C56.63 88.0066 56.5616 88.0201 56.4926 88.02H56.4936Z" fill="white"/>
</g>
</g>
<path id="Ellipse 29" d="M50.887 92.744C52.4814 92.744 53.774 91.4514 53.774 89.857C53.774 88.2625 52.4814 86.97 50.887 86.97C49.2926 86.97 48 88.2625 48 89.857C48 91.4514 49.2926 92.744 50.887 92.744Z" fill="white"/>
</g>
</g>
</g>
</svg>
