<svg width="13" height="26" viewBox="0 0 13 26" fill="none" xmlns="http://www.w3.org/2000/svg">
<g id="005-info">
<path id="Path 10157" d="M12.0911 23.085L11.7291 24.563C10.6445 24.991 9.77781 25.317 9.12914 25.541C8.40254 25.7782 7.64135 25.8921 6.87714 25.878C5.77272 25.9451 4.68227 25.603 3.81414 24.917C3.4618 24.6171 3.18083 24.2423 2.99174 23.82C2.80265 23.3977 2.71021 22.9385 2.72114 22.476C2.7214 22.0832 2.74847 21.691 2.80214 21.302C2.85748 20.902 2.94548 20.45 3.06614 19.946L4.42214 15.146C4.54281 14.6866 4.64448 14.2513 4.72714 13.84C4.80544 13.4703 4.84665 13.0938 4.85014 12.716C4.87466 12.4878 4.8538 12.2571 4.78875 12.0371C4.72371 11.8171 4.61576 11.6121 4.47114 11.434C4.04691 11.1432 3.53225 11.0147 3.02114 11.072C2.65574 11.0748 2.29267 11.1304 1.94314 11.237C1.57414 11.346 1.25914 11.451 0.994141 11.549L1.36114 10.07C2.24914 9.70863 3.09881 9.39929 3.91014 9.14196C4.65242 8.89574 5.42816 8.76522 6.21014 8.75496C7.29846 8.68413 8.37411 9.02141 9.22714 9.70096C9.57388 10.0069 9.8487 10.3858 10.0319 10.8104C10.2152 11.2349 10.3023 11.6948 10.2871 12.157C10.2871 12.365 10.2641 12.733 10.2141 13.257C10.172 13.7472 10.0809 14.2319 9.94214 14.704L8.59214 19.483C8.46887 19.916 8.36873 20.3553 8.29214 20.799C8.21726 21.167 8.17311 21.5406 8.16014 21.916C8.13114 22.1506 8.15418 22.3887 8.22763 22.6134C8.30109 22.8381 8.42315 23.0438 8.58514 23.216C9.02723 23.4876 9.54546 23.6086 10.0621 23.561C10.4402 23.553 10.8155 23.4949 11.1781 23.388C11.4898 23.3106 11.7951 23.2093 12.0911 23.085ZM12.4331 3.02196C12.4376 3.42362 12.3557 3.82154 12.1928 4.18872C12.0299 4.55589 11.7899 4.88373 11.4891 5.14996C10.8761 5.73051 10.0593 6.0466 9.21514 6.02996C8.36788 6.04574 7.54795 5.72997 6.93014 5.14996C6.62721 4.88498 6.38518 4.5576 6.22068 4.19029C6.05619 3.82297 5.9731 3.42441 5.97714 3.02196C5.97394 2.61862 6.05736 2.21929 6.22178 1.85096C6.38619 1.48263 6.62775 1.15389 6.93014 0.886959C7.55226 0.316558 8.36561 0.00012207 9.20964 0.00012207C10.0537 0.00012207 10.867 0.316558 11.4891 0.886959C11.7898 1.15484 12.0297 1.48394 12.1927 1.85218C12.3557 2.22043 12.438 2.61928 12.4341 3.02196H12.4331Z" fill="#4A4B4D"/>
</g>
</svg>
