<svg width="12" height="11" viewBox="0 0 12 11" fill="none" xmlns="http://www.w3.org/2000/svg">
<path d="M0.998047 10.808L2.17505 10.655L1.15305 9.63599L0.998047 10.808Z" fill="#FC6011"/>
<path d="M1.33389 8.25203L1.21289 9.17703L2.63589 10.6L3.56089 10.479L9.86089 4.17903L7.63389 1.95203L1.33389 8.25203Z" fill="#FC6011"/>
<path d="M10.0304 0.112008C9.99434 0.076185 9.9516 0.0478454 9.90457 0.028623C9.85755 0.00940061 9.80718 -0.000324486 9.75638 8.25869e-06C9.64596 0.000465855 9.54022 0.0447 9.46237 0.123008L7.94238 1.64301L10.1694 3.87001L11.6894 2.35001C11.7276 2.31355 11.7582 2.26989 11.7795 2.22154C11.8007 2.17319 11.8122 2.12111 11.8132 2.0683C11.8143 2.01549 11.8048 1.96301 11.7854 1.91387C11.7661 1.86473 11.7372 1.81991 11.7004 1.78201L10.0304 0.112008Z" fill="#FC6011"/>
</svg>
