<svg width="52" height="52" viewBox="0 0 52 52" fill="none" xmlns="http://www.w3.org/2000/svg">
<g filter="url(#filter0_d_180_5791)">
<path d="M46 23C46 32.5269 20.7368 46.8173 12.3158 42.0538C3.89474 37.2904 3.89474 8.70962 12.3158 3.94616C20.7368 -0.817294 46 13.4731 46 23Z" fill="white"/>
</g>
<path d="M26.913 17.0022C28.2902 17.0085 29.6092 17.5584 30.583 18.5322C31.5568 19.506 32.1067 20.825 32.113 22.2022C32.113 27.4512 22.557 32.6502 22.557 32.6502C22.557 32.6502 13 27.3772 13 22.2002C13 20.821 13.5479 19.4984 14.523 18.5232C15.4982 17.548 16.8209 17.0002 18.2 17.0002C19.0647 16.9934 19.9171 17.2046 20.6786 17.6143C21.4401 18.024 22.0861 18.6189 22.557 19.3442C23.0316 18.6228 23.6783 18.031 24.4387 17.6221C25.1992 17.2133 26.0496 17.0002 26.913 17.0022Z" fill="#FC6011" stroke="#FC6011"/>
<defs>
<filter id="filter0_d_180_5791" x="0" y="0" width="52" height="52" filterUnits="userSpaceOnUse" color-interpolation-filters="sRGB">
<feFlood flood-opacity="0" result="BackgroundImageFix"/>
<feColorMatrix in="SourceAlpha" type="matrix" values="0 0 0 0 0 0 0 0 0 0 0 0 0 0 0 0 0 0 127 0" result="hardAlpha"/>
<feOffset dy="3"/>
<feGaussianBlur stdDeviation="3"/>
<feColorMatrix type="matrix" values="0 0 0 0 0 0 0 0 0 0 0 0 0 0 0 0 0 0 0.22 0"/>
<feBlend mode="normal" in2="BackgroundImageFix" result="effect1_dropShadow_180_5791"/>
<feBlend mode="normal" in="SourceGraphic" in2="effect1_dropShadow_180_5791" result="shape"/>
</filter>
</defs>
</svg>
