<svg width="21" height="18" viewBox="0 0 21 18" fill="none" xmlns="http://www.w3.org/2000/svg">
<path d="M14.913 1.00216C16.2902 1.00847 17.6092 1.55835 18.583 2.53218C19.5568 3.506 20.1067 4.82498 20.113 6.20216C20.113 11.4512 10.557 16.6502 10.557 16.6502C10.557 16.6502 1 11.3772 1 6.20016C1 4.82103 1.54786 3.49839 2.52304 2.5232C3.49823 1.54801 4.82087 1.00016 6.2 1.00016C7.06468 0.99342 7.91711 1.20464 8.67861 1.61431C9.44011 2.02399 10.0861 2.61891 10.557 3.34416C11.0316 2.62283 11.6783 2.03102 12.4387 1.62214C13.1992 1.21327 14.0496 1.0002 14.913 1.00216Z" fill="#FC6011" stroke="#FC6011"/>
</svg>
