<svg width="20" height="13" viewBox="0 0 20 13" fill="none" xmlns="http://www.w3.org/2000/svg">
    <path
        d="M16.8148 4.80299V2.403H15.6148V4.80299H13.2148V6.00301H15.6148V8.403H16.8148V6.00301H19.2148V4.80299H16.8148Z"
        fill="white" stroke="white" stroke-width="0.3" />
    <path
        d="M6.007 4.805V7.20501H9.407C9.18627 7.82641 8.79909 8.37524 8.28773 8.79162C7.77636 9.208 7.16045 9.47592 6.5072 9.56614C5.85396 9.65637 5.18848 9.56543 4.5834 9.30325C3.97831 9.04107 3.45686 8.61773 3.07596 8.07942C2.69505 7.54111 2.46932 6.90851 2.4234 6.25067C2.37748 5.59282 2.51314 4.935 2.81557 4.349C3.118 3.76299 3.57558 3.27131 4.13837 2.92762C4.70117 2.58392 5.34756 2.40141 6.007 2.40001C6.86453 2.39867 7.69357 2.7077 8.341 3.27L9.92 1.461C8.83494 0.517383 7.44498 -0.00158394 6.007 3.63163e-06C4.81893 3.63163e-06 3.65754 0.352306 2.66969 1.01236C1.68185 1.67242 0.911914 2.61059 0.457258 3.70823C0.00260276 4.80586 -0.116356 6.01367 0.115426 7.17891C0.347207 8.34416 0.919318 9.4145 1.75941 10.2546C2.59951 11.0947 3.66985 11.6668 4.8351 11.8986C6.00034 12.1304 7.20815 12.0114 8.30578 11.5568C9.40342 11.1021 10.3416 10.3322 11.0016 9.34431C11.6617 8.35646 12.014 7.19508 12.014 6.00701V4.807L6.007 4.805Z"
        fill="white" />
</svg>
