<svg width="31" height="30" viewBox="0 0 31 30" fill="none" xmlns="http://www.w3.org/2000/svg">
<path d="M29.973 13.653L16.3 1.18997C16.0129 0.926023 15.637 0.779541 15.247 0.779541C14.857 0.779541 14.4812 0.926023 14.194 1.18997L0.512011 13.653C0.278673 13.8653 0.115056 14.1433 0.0426713 14.4504C-0.029713 14.7574 -0.00747539 15.0792 0.10646 15.3734C0.220396 15.6676 0.420696 15.9205 0.681024 16.0987C0.941352 16.2769 1.24952 16.3722 1.56501 16.372H3.74901V28.859C3.74901 29.0977 3.84383 29.3266 4.01261 29.4954C4.1814 29.6642 4.41032 29.759 4.64901 29.759H12.149C12.3877 29.759 12.6166 29.6642 12.7854 29.4954C12.9542 29.3266 13.049 29.0977 13.049 28.859V21.277H17.455V28.859C17.455 29.0977 17.5498 29.3266 17.7186 29.4954C17.8874 29.6642 18.1163 29.759 18.355 29.759H25.855C26.0937 29.759 26.3226 29.6642 26.4914 29.4954C26.6602 29.3266 26.755 29.0977 26.755 28.859V16.372H28.94C29.2555 16.3722 29.5637 16.2769 29.824 16.0987C30.0843 15.9205 30.2846 15.6676 30.3986 15.3734C30.5125 15.0792 30.5347 14.7574 30.4624 14.4504C30.39 14.1433 30.2263 13.8653 29.993 13.653H29.973Z" fill="#B6B7B7"/>
<path d="M26.502 2.56797H20.481L27.398 8.85797V3.46397C27.3969 3.22666 27.3022 2.99937 27.1344 2.83157C26.9666 2.66376 26.7393 2.56902 26.502 2.56797Z" fill="#B6B7B7"/>
</svg>
