<svg width="11" height="14" viewBox="0 0 11 14" fill="none" xmlns="http://www.w3.org/2000/svg">
<path id="location-pin" d="M5.97998 0.613037C4.64431 0.619389 3.36569 1.15526 2.42459 2.1031C1.4835 3.05094 0.956783 4.33336 0.959975 5.66904C0.959975 9.63104 5.50798 13.722 5.70198 13.894C5.77869 13.9623 5.8778 14 5.98048 14C6.08316 14 6.18226 13.9623 6.25898 13.894C6.45298 13.722 11.001 9.63104 11.001 5.66904C11.0042 4.33318 10.4773 3.05062 9.536 2.10275C8.59469 1.15488 7.31582 0.619125 5.97998 0.613037ZM5.97998 8.42204C5.42836 8.42204 4.88914 8.25847 4.43049 7.95201C3.97184 7.64555 3.61437 7.20996 3.40328 6.70034C3.19218 6.19072 3.13695 5.62994 3.24457 5.08893C3.35218 4.54792 3.61781 4.05097 4.00785 3.66092C4.3979 3.27087 4.89486 3.00524 5.43587 2.89763C5.97688 2.79001 6.53766 2.84524 7.04728 3.05634C7.5569 3.26743 7.99248 3.6249 8.29894 4.08355C8.6054 4.5422 8.76898 5.08143 8.76898 5.63304C8.76818 6.37248 8.47409 7.08141 7.95122 7.60428C7.42835 8.12715 6.71942 8.42124 5.97998 8.42204Z" fill="#FC6011"/>
</svg>
