<svg width="217" height="184" viewBox="0 0 217 184" fill="none" xmlns="http://www.w3.org/2000/svg">
<path d="M99.587 45.572C99.587 44.63 99.3077 43.7091 98.7843 42.9258C98.261 42.1425 97.5171 41.532 96.6468 41.1715C95.7764 40.811 94.8187 40.7167 93.8948 40.9005C92.9709 41.0843 92.1222 41.5379 91.4561 42.204C90.79 42.8701 90.3363 43.7189 90.1526 44.6428C89.9688 45.5667 90.0631 46.5244 90.4236 47.3947C90.7841 48.265 91.3946 49.0089 92.1778 49.5323C92.9611 50.0556 93.882 50.335 94.824 50.335C96.0872 50.335 97.2987 49.8331 98.192 48.9399C99.0852 48.0467 99.587 46.8352 99.587 45.572ZM93.287 46.44C92.8553 46.44 92.4332 46.312 92.0742 46.0721C91.7152 45.8322 91.4354 45.4913 91.2702 45.0924C91.1049 44.6935 91.0617 44.2545 91.146 43.8311C91.2302 43.4076 91.4381 43.0186 91.7434 42.7133C92.0487 42.408 92.4376 42.2002 92.8611 42.1159C93.2846 42.0317 93.7235 42.0749 94.1224 42.2401C94.5213 42.4054 94.8623 42.6852 95.1021 43.0442C95.342 43.4031 95.47 43.8252 95.47 44.257C95.4701 44.5437 95.4138 44.8275 95.3042 45.0924C95.1946 45.3573 95.0339 45.5981 94.8313 45.8009C94.6287 46.0037 94.3881 46.1646 94.1233 46.2744C93.8585 46.3843 93.5747 46.4409 93.288 46.441L93.287 46.44Z" fill="#4A4B4D"/>
<path d="M124.282 40.809C123.34 40.809 122.419 41.0883 121.636 41.6117C120.853 42.1351 120.242 42.8789 119.882 43.7493C119.521 44.6196 119.427 45.5772 119.611 46.5012C119.794 47.4251 120.248 48.2738 120.914 48.9399C121.58 49.606 122.429 50.0597 123.353 50.2435C124.277 50.4273 125.234 50.3329 126.105 49.9724C126.975 49.6119 127.719 49.0014 128.242 48.2181C128.766 47.4349 129.045 46.514 129.045 45.572C129.045 44.3087 128.543 43.0972 127.65 42.204C126.757 41.3107 125.545 40.809 124.282 40.809ZM122.746 46.441C122.314 46.441 121.892 46.3129 121.533 46.0731C121.174 45.8332 120.894 45.4923 120.729 45.0934C120.564 44.6945 120.521 44.2556 120.605 43.8321C120.689 43.4086 120.897 43.0197 121.202 42.7144C121.508 42.4091 121.897 42.2011 122.32 42.1169C122.744 42.0327 123.183 42.0759 123.581 42.2411C123.98 42.4064 124.321 42.6862 124.561 43.0452C124.801 43.4042 124.929 43.8262 124.929 44.2579C124.929 44.8369 124.699 45.3922 124.29 45.8016C123.88 46.211 123.325 46.441 122.746 46.441Z" fill="#4A4B4D"/>
<path d="M116.265 71.834C116.265 68.127 113.26 62.734 109.553 62.734C105.846 62.734 102.841 68.128 102.841 71.834C102.841 75.54 105.841 75.689 109.553 75.689C113.265 75.689 116.265 75.541 116.265 71.834Z" fill="#4A4B4D"/>
<path d="M110.282 92.3879C121.361 92.3879 130.342 87.631 130.342 81.762C130.342 79.503 129.008 77.41 126.742 75.689C127.57 76.7771 128.03 78.1007 128.056 79.468C128.056 85.336 119.075 90.093 107.995 90.093C101.181 90.093 95.1638 88.293 91.5378 85.541C94.4148 89.545 101.72 92.3879 110.282 92.3879Z" fill="#4A4B4D"/>
<path d="M74.687 45.404C75.087 49.237 76.387 52.175 78.081 52.749C80.2824 53.3994 82.5645 53.736 84.86 53.749C84.5364 53.0134 84.2611 52.2575 84.036 51.486C82.336 45.626 83.722 39.738 87.16 36.073C85.683 35.939 84.191 35.864 82.737 35.864C80.9763 35.7293 79.2064 35.944 77.529 36.496C77.0301 36.7712 76.6003 37.1563 76.272 37.622C76.9415 37.8693 77.5694 38.2173 78.134 38.654C78.093 38.728 78.047 38.798 78.002 38.873C76.7671 40.9815 75.6601 43.1625 74.687 45.404Z" fill="#4A4B4D"/>
<path d="M134.938 51.156C134.691 52.0452 134.376 52.9143 133.998 53.756C136.375 53.7566 138.74 53.4162 141.021 52.745C142.709 52.171 144.011 49.245 144.413 45.413C143.397 43.1058 142.239 40.8635 140.946 38.699C141.522 38.2539 142.156 37.8899 142.831 37.617C142.502 37.1506 142.072 36.7649 141.573 36.489C139.895 35.9376 138.125 35.7231 136.365 35.858C134.897 35.858 133.392 35.935 131.903 36.071C135.188 39.716 136.521 45.436 134.938 51.156Z" fill="#4A4B4D"/>
<path d="M159.842 43.5499C158.784 40.4614 157.043 37.6516 154.748 35.33C154.695 35.567 154.628 35.8007 154.548 36.03C154.122 37.0716 153.32 37.9148 152.301 38.392C151.613 38.786 151.521 38.8619 151.451 39.2919L151.37 39.7919C152.981 41.2999 154.196 43.1813 154.908 45.27C156.948 51.112 154.908 57.1429 150.345 58.7339C149.803 58.9232 149.239 59.0438 148.667 59.093C148.651 59.01 148.639 58.9279 148.622 58.8409C148.303 57.1349 147.901 55.4269 147.422 53.7289C146.475 55.4939 144.929 56.8626 143.062 57.588C139.547 58.6521 135.886 59.1583 132.214 59.088C131.58 59.088 130.948 59.0739 130.321 59.0499C130.266 59.1029 130.216 59.16 130.161 59.212C136.261 63.454 140.108 69.5709 140.154 76.3979C140.236 89.334 126.654 99.908 109.805 100.02C92.9559 100.132 79.2379 89.7299 79.1509 76.7939C79.1099 69.9669 82.8739 63.801 88.9169 59.481C88.7709 59.346 88.6319 59.2 88.4899 59.059C87.9599 59.077 87.4269 59.0889 86.8899 59.0889C83.2181 59.1592 79.5579 58.653 76.0429 57.5889C74.1927 56.8719 72.6572 55.5214 71.7099 53.778C71.2009 55.629 70.7769 57.492 70.4539 59.353C70.0698 61.5269 69.8233 63.723 69.7159 65.928C69.6659 66.823 69.6499 67.713 69.6539 68.595C69.8019 91.577 86.8539 105.242 109.835 105.095C132.816 104.948 149.686 91.0589 149.535 68.0759C149.535 67.2759 149.502 66.476 149.453 65.665C150.51 65.6117 151.554 65.4076 152.553 65.059C159.837 62.517 163.102 52.8869 159.842 43.5499Z" fill="#4A4B4D"/>
<path d="M101.036 33.049C101.493 33.2127 101.941 33.402 102.377 33.616C106.869 34.4899 111.484 34.5285 115.99 33.73C117.087 33.1241 118.266 32.6802 119.49 32.412C123.92 30.623 128.549 29.3744 133.277 28.693C133.126 28.54 132.977 28.383 132.826 28.232C130.759 26.185 122.71 19.888 121.841 19.132C118.83 16.514 110.741 9.905 108.848 0C107.249 2.06148 106.37 4.59094 106.348 7.19995C106.314 9.95457 106.962 12.6748 108.235 15.118C106.053 13.829 102.235 7.36298 101.435 2.74298C98.6771 6.75698 99.511 15.243 100.686 17.608C97.472 16.275 94.8721 10.521 94.8171 8.13098C93.2031 10.156 91.2991 16.886 94.2551 21.931C91.1177 23.7845 88.2457 26.0541 85.717 28.678C91.0035 29.4076 96.1606 30.879 101.036 33.049Z" fill="#4A4B4D"/>
<path d="M70.4689 59.0989C69.8868 59.0517 69.3131 58.9301 68.762 58.7369C64.199 57.1459 62.162 51.1149 64.199 45.2729C64.9106 43.1842 66.1257 41.3028 67.7369 39.795L67.657 39.295C67.587 38.864 67.4949 38.789 66.8069 38.395C65.7878 37.9178 64.9856 37.0746 64.5599 36.033C64.4795 35.8038 64.4127 35.57 64.36 35.3329C62.0645 37.6543 60.3231 40.4643 59.2659 43.553C56.0049 52.89 59.266 62.52 66.554 65.064C67.5646 65.418 68.6213 65.6235 69.691 65.674C69.8118 63.4681 70.0716 61.2721 70.4689 59.0989Z" fill="#4A4B4D"/>
<path d="M151.701 29.836C149.001 28.825 136.539 30.168 136.539 30.168C129.377 30.798 121.757 33.089 117.745 35.294C117.563 35.33 117.352 35.373 117.095 35.422C112.092 36.3995 106.947 36.3995 101.944 35.422C101.732 35.381 101.544 35.345 101.388 35.313C97.3881 33.103 89.7441 30.8 82.5611 30.169C82.5611 30.169 70.1031 28.826 67.3981 29.837C65.6261 30.5 65.8231 34.111 66.2981 35.395C66.9051 37.051 69.0981 36.633 69.4841 38.995C70.2641 43.782 71.6061 54.122 76.6401 55.835C79.9629 56.8338 83.4211 57.3079 86.8901 57.24C91.1561 57.3074 95.403 56.6566 99.4531 55.315C104.953 53.265 106.294 47.477 106.208 43.143C106.201 42.6978 106.351 42.2643 106.633 41.9193C106.914 41.5743 107.308 41.3401 107.746 41.258C108.329 41.1313 108.923 41.0593 109.519 41.043C110.136 41.061 110.749 41.1374 111.351 41.271C111.789 41.3529 112.184 41.587 112.466 41.932C112.748 42.277 112.898 42.7105 112.891 43.156C112.808 47.489 114.147 53.268 119.647 55.316C123.697 56.6577 127.945 57.3084 132.211 57.241C135.68 57.3088 139.138 56.8348 142.461 55.836C147.495 54.123 148.836 43.782 149.617 38.996C150.002 36.631 152.196 37.05 152.803 35.396C153.276 34.11 153.474 30.499 151.701 29.836ZM98.5681 53.843C92.9301 55.792 82.8371 56.326 77.4831 54.504C74.3831 53.45 72.7021 48.529 72.7021 42.904C72.7021 38.779 74.9881 35.587 76.7781 34.796C78.6887 34.1258 80.7169 33.8569 82.736 34.006C89.307 34.006 97.0501 35.426 100.73 37.688C101.539 38.1319 102.234 38.7569 102.762 39.5141C103.289 40.2714 103.634 41.1403 103.769 42.053C103.95 44.675 104.286 51.866 98.5681 53.843ZM141.622 54.504C136.269 56.325 126.175 55.791 120.537 53.843C114.819 51.866 115.155 44.675 115.337 42.056C115.473 41.1433 115.818 40.2744 116.345 39.5172C116.872 38.7599 117.567 38.1349 118.376 37.691C122.056 35.429 129.799 34.009 136.37 34.009C138.389 33.86 140.418 34.1289 142.328 34.799C144.118 35.59 146.403 38.782 146.403 42.907C146.403 48.53 144.722 53.45 141.622 54.504Z" fill="#FC6011"/>
<path d="M2.97019 130.273H9.41764L16.2273 146.886H16.5171L23.3267 130.273H29.7742V155H24.7031V138.906H24.4979L18.0987 154.879H14.6456L8.24647 138.845H8.04122V155H2.97019V130.273ZM42.4366 155.362C40.529 155.362 38.8869 154.976 37.5105 154.203C36.1421 153.422 35.0877 152.32 34.3471 150.895C33.6066 149.462 33.2364 147.768 33.2364 145.812C33.2364 143.904 33.6066 142.23 34.3471 140.789C35.0877 139.348 36.1301 138.225 37.4743 137.42C38.8265 136.616 40.4123 136.213 42.2314 136.213C43.4549 136.213 44.5938 136.41 45.6483 136.805C46.7108 137.191 47.6364 137.775 48.4253 138.555C49.2221 139.336 49.8419 140.318 50.2846 141.501C50.7274 142.677 50.9487 144.053 50.9487 145.631V147.043H35.2889V143.856H46.1071C46.1071 143.115 45.9461 142.459 45.6241 141.888C45.3022 141.316 44.8554 140.87 44.2839 140.548C43.7205 140.218 43.0645 140.053 42.3159 140.053C41.5351 140.053 40.8429 140.234 40.2392 140.596C39.6435 140.95 39.1767 141.429 38.8386 142.033C38.5006 142.628 38.3275 143.292 38.3194 144.025V147.055C38.3194 147.973 38.4885 148.766 38.8265 149.434C39.1727 150.102 39.6596 150.617 40.2875 150.979C40.9153 151.342 41.6599 151.523 42.5212 151.523C43.0926 151.523 43.6158 151.442 44.0908 151.281C44.5657 151.12 44.9721 150.879 45.3102 150.557C45.6483 150.235 45.9059 149.84 46.0829 149.374L50.84 149.688C50.5986 150.83 50.1035 151.829 49.355 152.682C48.6144 153.527 47.6566 154.187 46.4814 154.662C45.3142 155.129 43.966 155.362 42.4366 155.362ZM59.5936 155.35C58.4104 155.35 57.3559 155.145 56.4302 154.734C55.5046 154.316 54.7721 153.7 54.2328 152.887C53.7015 152.066 53.4359 151.044 53.4359 149.82C53.4359 148.79 53.6251 147.925 54.0034 147.224C54.3817 146.524 54.8969 145.961 55.5489 145.534C56.2008 145.107 56.9414 144.786 57.7704 144.568C58.6076 144.351 59.4849 144.198 60.4025 144.109C61.4811 143.997 62.3505 143.892 63.0105 143.795C63.6705 143.691 64.1495 143.538 64.4473 143.337C64.7451 143.135 64.894 142.838 64.894 142.443V142.371C64.894 141.606 64.6525 141.014 64.1696 140.596C63.6947 140.177 63.0185 139.968 62.1412 139.968C61.2155 139.968 60.479 140.173 59.9317 140.584C59.3843 140.986 59.0221 141.493 58.845 142.105L54.0879 141.719C54.3294 140.592 54.8043 139.618 55.5126 138.797C56.221 137.968 57.1346 137.332 58.2534 136.889C59.3803 136.438 60.6843 136.213 62.1653 136.213C63.1956 136.213 64.1817 136.334 65.1234 136.575C66.0732 136.817 66.9144 137.191 67.6469 137.698C68.3874 138.205 68.971 138.857 69.3976 139.654C69.8242 140.443 70.0375 141.389 70.0375 142.491V155H65.1596V152.428H65.0148C64.7169 153.008 64.3185 153.519 63.8194 153.962C63.3204 154.396 62.7207 154.738 62.0204 154.988C61.3202 155.229 60.5112 155.35 59.5936 155.35ZM61.0666 151.8C61.8232 151.8 62.4913 151.652 63.0709 151.354C63.6504 151.048 64.1052 150.637 64.4352 150.122C64.7652 149.607 64.9302 149.023 64.9302 148.371V146.403C64.7693 146.508 64.5479 146.605 64.2662 146.693C63.9925 146.774 63.6826 146.85 63.3365 146.923C62.9904 146.987 62.6443 147.047 62.2981 147.104C61.952 147.152 61.6381 147.196 61.3564 147.237C60.7527 147.325 60.2255 147.466 59.7747 147.659C59.3239 147.852 58.9738 148.114 58.7243 148.444C58.4748 148.766 58.35 149.168 58.35 149.651C58.35 150.352 58.6035 150.887 59.1106 151.257C59.6258 151.619 60.2778 151.8 61.0666 151.8ZM79.1714 130.273V155H74.0279V130.273H79.1714Z" fill="#FC6011"/>
<path d="M86.7041 130.273H93.1515L99.9612 146.886H100.251L107.061 130.273H113.508V155H108.437V138.906H108.232L101.833 154.879H98.3795L91.9804 138.845H91.7751V155H86.7041V130.273ZM126.098 155.362C124.223 155.362 122.601 154.964 121.232 154.167C119.872 153.362 118.822 152.243 118.081 150.81C117.341 149.37 116.97 147.699 116.97 145.8C116.97 143.884 117.341 142.21 118.081 140.777C118.822 139.336 119.872 138.217 121.232 137.42C122.601 136.616 124.223 136.213 126.098 136.213C127.974 136.213 129.591 136.616 130.952 137.42C132.32 138.217 133.375 139.336 134.115 140.777C134.856 142.21 135.226 143.884 135.226 145.8C135.226 147.699 134.856 149.37 134.115 150.81C133.375 152.243 132.32 153.362 130.952 154.167C129.591 154.964 127.974 155.362 126.098 155.362ZM126.122 151.378C126.975 151.378 127.688 151.136 128.259 150.653C128.831 150.162 129.261 149.494 129.551 148.649C129.849 147.804 129.998 146.842 129.998 145.763C129.998 144.685 129.849 143.723 129.551 142.878C129.261 142.033 128.831 141.365 128.259 140.874C127.688 140.383 126.975 140.137 126.122 140.137C125.261 140.137 124.537 140.383 123.949 140.874C123.369 141.365 122.931 142.033 122.633 142.878C122.343 143.723 122.198 144.685 122.198 145.763C122.198 146.842 122.343 147.804 122.633 148.649C122.931 149.494 123.369 150.162 123.949 150.653C124.537 151.136 125.261 151.378 126.122 151.378ZM143.714 144.278V155H138.57V136.455H143.472V139.727H143.69C144.1 138.648 144.788 137.795 145.754 137.167C146.72 136.531 147.891 136.213 149.268 136.213C150.556 136.213 151.679 136.495 152.636 137.058C153.594 137.622 154.339 138.427 154.87 139.473C155.401 140.511 155.667 141.751 155.667 143.192V155H150.524V144.109C150.532 142.974 150.242 142.089 149.654 141.453C149.067 140.809 148.258 140.487 147.227 140.487C146.535 140.487 145.923 140.636 145.392 140.934C144.869 141.232 144.458 141.666 144.161 142.238C143.871 142.801 143.722 143.482 143.714 144.278ZM164.381 149.663L164.393 143.494H165.142L171.082 136.455H176.986L169.006 145.776H167.786L164.381 149.663ZM159.721 155V130.273H164.864V155H159.721ZM171.312 155L165.854 146.923L169.283 143.288L177.337 155H171.312ZM187.198 155.362C185.29 155.362 183.648 154.976 182.272 154.203C180.903 153.422 179.849 152.32 179.108 150.895C178.368 149.462 177.998 147.768 177.998 145.812C177.998 143.904 178.368 142.23 179.108 140.789C179.849 139.348 180.891 138.225 182.236 137.42C183.588 136.616 185.173 136.213 186.993 136.213C188.216 136.213 189.355 136.41 190.41 136.805C191.472 137.191 192.398 137.775 193.187 138.555C193.983 139.336 194.603 140.318 195.046 141.501C195.489 142.677 195.71 144.053 195.71 145.631V147.043H180.05V143.856H190.868C190.868 143.115 190.707 142.459 190.385 141.888C190.063 141.316 189.617 140.87 189.045 140.548C188.482 140.218 187.826 140.053 187.077 140.053C186.296 140.053 185.604 140.234 185 140.596C184.405 140.95 183.938 141.429 183.6 142.033C183.262 142.628 183.089 143.292 183.081 144.025V147.055C183.081 147.973 183.25 148.766 183.588 149.434C183.934 150.102 184.421 150.617 185.049 150.979C185.677 151.342 186.421 151.523 187.282 151.523C187.854 151.523 188.377 151.442 188.852 151.281C189.327 151.12 189.733 150.879 190.071 150.557C190.41 150.235 190.667 149.84 190.844 149.374L195.601 149.688C195.36 150.83 194.865 151.829 194.116 152.682C193.376 153.527 192.418 154.187 191.243 154.662C190.075 155.129 188.727 155.362 187.198 155.362ZM201.744 161.955C201.092 161.955 200.48 161.902 199.909 161.798C199.345 161.701 198.878 161.576 198.508 161.423L199.667 157.584C200.271 157.769 200.814 157.87 201.297 157.886C201.788 157.902 202.211 157.789 202.565 157.548C202.927 157.306 203.221 156.896 203.446 156.316L203.748 155.531L197.095 136.455H202.505L206.344 150.074H206.537L210.413 136.455H215.858L208.65 157.004C208.304 158.002 207.833 158.872 207.237 159.612C206.65 160.361 205.905 160.936 205.004 161.339C204.102 161.749 203.016 161.955 201.744 161.955Z" fill="#4A4B4D"/>
<path d="M55.8516 182V174.727H60.2124V175.509H56.7323V177.966H59.8857V178.747H56.7323V182H55.8516ZM67.8571 178.364C67.8571 179.131 67.7186 179.794 67.4417 180.352C67.1647 180.911 66.7847 181.342 66.3017 181.645C65.8188 181.948 65.2672 182.099 64.6469 182.099C64.0266 182.099 63.475 181.948 62.9921 181.645C62.5091 181.342 62.1292 180.911 61.8522 180.352C61.5752 179.794 61.4367 179.131 61.4367 178.364C61.4367 177.597 61.5752 176.934 61.8522 176.375C62.1292 175.816 62.5091 175.385 62.9921 175.082C63.475 174.779 64.0266 174.628 64.6469 174.628C65.2672 174.628 65.8188 174.779 66.3017 175.082C66.7847 175.385 67.1647 175.816 67.4417 176.375C67.7186 176.934 67.8571 177.597 67.8571 178.364ZM67.0049 178.364C67.0049 177.734 66.8995 177.202 66.6888 176.769C66.4805 176.336 66.1976 176.008 65.8401 175.786C65.485 175.563 65.0872 175.452 64.6469 175.452C64.2066 175.452 63.8077 175.563 63.4502 175.786C63.0951 176.008 62.8122 176.336 62.6015 176.769C62.3931 177.202 62.289 177.734 62.289 178.364C62.289 178.993 62.3931 179.525 62.6015 179.958C62.8122 180.391 63.0951 180.719 63.4502 180.942C63.8077 181.164 64.2066 181.276 64.6469 181.276C65.0872 181.276 65.485 181.164 65.8401 180.942C66.1976 180.719 66.4805 180.391 66.6888 179.958C66.8995 179.525 67.0049 178.993 67.0049 178.364ZM75.4743 178.364C75.4743 179.131 75.3358 179.794 75.0588 180.352C74.7818 180.911 74.4019 181.342 73.9189 181.645C73.436 181.948 72.8844 182.099 72.2641 182.099C71.6438 182.099 71.0922 181.948 70.6093 181.645C70.1263 181.342 69.7463 180.911 69.4693 180.352C69.1924 179.794 69.0539 179.131 69.0539 178.364C69.0539 177.597 69.1924 176.934 69.4693 176.375C69.7463 175.816 70.1263 175.385 70.6093 175.082C71.0922 174.779 71.6438 174.628 72.2641 174.628C72.8844 174.628 73.436 174.779 73.9189 175.082C74.4019 175.385 74.7818 175.816 75.0588 176.375C75.3358 176.934 75.4743 177.597 75.4743 178.364ZM74.622 178.364C74.622 177.734 74.5167 177.202 74.306 176.769C74.0977 176.336 73.8148 176.008 73.4573 175.786C73.1022 175.563 72.7044 175.452 72.2641 175.452C71.8238 175.452 71.4248 175.563 71.0674 175.786C70.7122 176.008 70.4293 176.336 70.2186 176.769C70.0103 177.202 69.9061 177.734 69.9061 178.364C69.9061 178.993 70.0103 179.525 70.2186 179.958C70.4293 180.391 70.7122 180.719 71.0674 180.942C71.4248 181.164 71.8238 181.276 72.2641 181.276C72.7044 181.276 73.1022 181.164 73.4573 180.942C73.8148 180.719 74.0977 180.391 74.306 179.958C74.5167 179.525 74.622 178.993 74.622 178.364ZM79.1995 182H76.9551V174.727H79.2989C80.0044 174.727 80.6081 174.873 81.11 175.164C81.6119 175.453 81.9966 175.868 82.2641 176.411C82.5316 176.95 82.6654 177.597 82.6654 178.349C82.6654 179.107 82.5304 179.759 82.2605 180.306C81.9907 180.851 81.5977 181.27 81.0816 181.563C80.5655 181.854 79.9381 182 79.1995 182ZM77.8358 181.219H79.1426C79.744 181.219 80.2423 181.103 80.6377 180.871C81.033 180.639 81.3278 180.308 81.5219 179.88C81.716 179.451 81.8131 178.941 81.8131 178.349C81.8131 177.762 81.7172 177.257 81.5255 176.833C81.3337 176.407 81.0472 176.08 80.6661 175.853C80.2849 175.623 79.8103 175.509 79.2421 175.509H77.8358V181.219ZM89.1995 182H86.9551V174.727H89.2989C90.0044 174.727 90.6081 174.873 91.11 175.164C91.6119 175.453 91.9966 175.868 92.2641 176.411C92.5316 176.95 92.6654 177.597 92.6654 178.349C92.6654 179.107 92.5304 179.759 92.2605 180.306C91.9907 180.851 91.5977 181.27 91.0816 181.563C90.5655 181.854 89.9381 182 89.1995 182ZM87.8358 181.219H89.1426C89.744 181.219 90.2423 181.103 90.6377 180.871C91.033 180.639 91.3278 180.308 91.5219 179.88C91.716 179.451 91.8131 178.941 91.8131 178.349C91.8131 177.762 91.7172 177.257 91.5255 176.833C91.3337 176.407 91.0472 176.08 90.6661 175.853C90.2849 175.623 89.8103 175.509 89.2421 175.509H87.8358V181.219ZM94.1426 182V174.727H98.5318V175.509H95.0233V177.966H98.3046V178.747H95.0233V181.219H98.5887V182H94.1426ZM100.119 182V174.727H101V181.219H104.381V182H100.119ZM106.625 174.727V182H105.744V174.727H106.625ZM108.689 174.727L110.848 180.849H110.933L113.092 174.727H114.016L111.345 182H110.436L107.766 174.727H108.689ZM115.149 182V174.727H119.538V175.509H116.029V177.966H119.31V178.747H116.029V181.219H119.595V182H115.149ZM121.125 182V174.727H123.582C124.151 174.727 124.617 174.824 124.982 175.018C125.346 175.21 125.616 175.474 125.791 175.81C125.966 176.147 126.054 176.529 126.054 176.957C126.054 177.386 125.966 177.766 125.791 178.097C125.616 178.429 125.347 178.689 124.985 178.879C124.623 179.066 124.16 179.159 123.597 179.159H121.608V178.364H123.568C123.957 178.364 124.269 178.307 124.506 178.193C124.745 178.08 124.918 177.919 125.024 177.71C125.133 177.5 125.188 177.249 125.188 176.957C125.188 176.666 125.133 176.412 125.024 176.194C124.915 175.976 124.741 175.808 124.502 175.69C124.263 175.569 123.947 175.509 123.554 175.509H122.006V182H121.125ZM124.548 178.733L126.338 182H125.315L123.554 178.733H124.548ZM126.652 174.727H127.661L129.678 178.122H129.763L131.78 174.727H132.789L130.161 179.003V182H129.28V179.003L126.652 174.727Z" fill="#4A4B4D"/>
</svg>
