<svg width="15" height="14" viewBox="0 0 15 14" fill="none" xmlns="http://www.w3.org/2000/svg">
<path d="M5.71387 0H1.71387C1.16158 0 0.713867 0.447715 0.713867 1V5C0.713867 5.55228 1.16158 6 1.71387 6H5.71387C6.26615 6 6.71387 5.55228 6.71387 5V1C6.71387 0.447715 6.26615 0 5.71387 0Z" fill="#B6B7B7"/>
<path d="M5.71387 8H1.71387C1.16158 8 0.713867 8.44772 0.713867 9V13C0.713867 13.5523 1.16158 14 1.71387 14H5.71387C6.26615 14 6.71387 13.5523 6.71387 13V9C6.71387 8.44772 6.26615 8 5.71387 8Z" fill="#B6B7B7"/>
<path d="M13.7139 0H9.71387C9.16158 0 8.71387 0.447715 8.71387 1V5C8.71387 5.55228 9.16158 6 9.71387 6H13.7139C14.2662 6 14.7139 5.55228 14.7139 5V1C14.7139 0.447715 14.2662 0 13.7139 0Z" fill="#B6B7B7"/>
<path d="M13.7139 8H9.71387C9.16158 8 8.71387 8.44772 8.71387 9V13C8.71387 13.5523 9.16158 14 9.71387 14H13.7139C14.2662 14 14.7139 13.5523 14.7139 13V9C14.7139 8.44772 14.2662 8 13.7139 8Z" fill="#B6B7B7"/>
</svg>
