<svg width="17" height="16" viewBox="0 0 17 16" fill="none" xmlns="http://www.w3.org/2000/svg">
<path d="M15.6449 0H1.48489C1.28015 0 1.08377 0.0813357 0.938995 0.226114C0.794217 0.370892 0.712891 0.567253 0.712891 0.772V1.484C0.712891 1.68875 0.794217 1.88511 0.938995 2.02989C1.08377 2.17466 1.28015 2.256 1.48489 2.256H15.6449C15.8497 2.256 16.0462 2.1747 16.1911 2.02995C16.3361 1.8852 16.4176 1.68884 16.4179 1.484V0.773C16.4176 0.568161 16.3361 0.371802 16.1911 0.227053C16.0462 0.0823033 15.8497 0.000999995 15.6449 0.00100017V0Z" fill="#B6B7B7"/>
<path d="M15.6449 13.548H1.48489C1.38348 13.5479 1.28302 13.5678 1.1893 13.6065C1.09558 13.6453 1.01043 13.7021 0.938721 13.7738C0.867008 13.8455 0.810143 13.9307 0.771393 14.0244C0.732643 14.1181 0.71276 14.2186 0.712891 14.32V15.033C0.712891 15.2378 0.794218 15.4341 0.938996 15.5789C1.08377 15.7237 1.28015 15.805 1.48489 15.805H15.6449C15.8497 15.805 16.0462 15.7237 16.1911 15.579C16.3361 15.4342 16.4176 15.2378 16.4179 15.033V14.322C16.4176 14.1172 16.3361 13.9208 16.1911 13.7761C16.0462 13.6313 15.8497 13.55 15.6449 13.55V13.548Z" fill="#B6B7B7"/>
<path d="M16.4222 9.80401C16.4219 9.59917 16.3403 9.40281 16.1954 9.25807C16.0505 9.11332 15.854 9.03201 15.6492 9.03201H6.84918C6.64434 9.03201 6.44788 9.11332 6.30295 9.25807C6.15801 9.40281 6.07644 9.59917 6.07617 9.80401V10.516C6.07617 10.6175 6.09618 10.7179 6.13504 10.8117C6.1739 10.9054 6.23085 10.9906 6.30264 11.0623C6.37444 11.134 6.45966 11.1908 6.55344 11.2295C6.64722 11.2683 6.74772 11.2881 6.84918 11.288H15.6492C15.854 11.288 16.0505 11.2067 16.1954 11.062C16.3403 10.9172 16.4219 10.7209 16.4222 10.516V9.80401Z" fill="#B6B7B7"/>
<path d="M16.4222 5.31298C16.4219 5.10815 16.3404 4.91179 16.1954 4.76704C16.0505 4.62229 15.854 4.54098 15.6492 4.54099H6.8492C6.64436 4.54098 6.4479 4.62229 6.30296 4.76704C6.15802 4.91179 6.07645 5.10815 6.07619 5.31298V6.02499C6.07557 6.12793 6.09563 6.22994 6.13518 6.32498C6.19359 6.46625 6.29264 6.58699 6.41975 6.67191C6.54686 6.75683 6.69633 6.8021 6.8492 6.80198H15.6492C15.854 6.80199 16.0505 6.72068 16.1954 6.57593C16.3404 6.43118 16.4219 6.23482 16.4222 6.02998V5.31298Z" fill="#B6B7B7"/>
<path d="M0.842889 9.68601C0.860047 9.68596 0.877018 9.68256 0.892877 9.67601C0.908655 9.66922 0.922953 9.65936 0.934899 9.64701L3.75189 8.02101V8.01601C3.77166 8.00517 3.78822 7.9893 3.79989 7.97001C3.81091 7.95042 3.81708 7.92847 3.8179 7.90601C3.81706 7.88111 3.80945 7.85691 3.79589 7.83601C3.7825 7.81534 3.7634 7.79901 3.7409 7.78901L0.935876 6.16901C0.917889 6.15172 0.895336 6.13992 0.870874 6.13501C0.846384 6.13005 0.820977 6.13249 0.797876 6.14201C0.774612 6.15114 0.754739 6.1672 0.740899 6.18801C0.726235 6.2085 0.717874 6.23283 0.716882 6.25801V9.55801C0.716233 9.57481 0.719309 9.59154 0.725885 9.60701C0.735799 9.63059 0.752491 9.6507 0.773858 9.66476C0.795226 9.67883 0.820299 9.68623 0.84588 9.68601H0.842889Z" fill="#B6B7B7"/>
</svg>
