<svg width="18" height="23" viewBox="0 0 18 23" fill="none" xmlns="http://www.w3.org/2000/svg">
<g id="Group 8081">
<g id="003-bell">
<path id="Path 10149" d="M5.7666 20.349C6.03079 20.949 6.46384 21.4592 7.01294 21.8174C7.56204 22.1756 8.20349 22.3663 8.8591 22.3663C9.51471 22.3663 10.1562 22.1756 10.7053 21.8174C11.2544 21.4592 11.6874 20.949 11.9516 20.349H5.7666Z" fill="#4A4B4D"/>
<path id="Path 10150" d="M8.86356 2.137C9.75013 2.13586 10.6301 2.28985 11.4636 2.592V2.492C11.4633 2.1644 11.3985 1.84006 11.2729 1.53751C11.1472 1.23496 10.9632 0.960126 10.7313 0.728709C10.4994 0.497292 10.2242 0.313827 9.92143 0.188793C9.61863 0.0637597 9.29417 -0.000392367 8.96657 1.80546e-06H8.76056C8.0998 0.000531471 7.46626 0.263251 6.99904 0.730477C6.53181 1.1977 6.26908 1.83125 6.26855 2.492V2.592C7.10055 2.29072 7.97869 2.13675 8.86356 2.137Z" fill="#4A4B4D"/>
<path id="Path 10151" d="M17.0543 19.037H0.674324C0.522842 19.0389 0.375205 18.9893 0.255642 18.8963C0.136079 18.8032 0.0516902 18.6723 0.0163233 18.525C-0.0176494 18.3822 -0.00127254 18.2321 0.0626833 18.1C0.126639 17.9679 0.234252 17.8619 0.367325 17.8C0.83917 17.421 1.20386 16.9253 1.42532 16.362C2.23242 14.2672 2.60661 12.0305 2.52532 9.78701C2.52368 8.95482 2.68597 8.13047 3.00291 7.361C3.31986 6.59153 3.78527 5.89202 4.37255 5.30241C5.55862 4.11165 7.16915 3.44083 8.84982 3.43751C10.5305 3.4342 12.1437 4.09866 13.3344 5.28473C13.924 5.87202 14.3922 6.56968 14.7122 7.3379C15.0321 8.10611 15.1977 8.92983 15.1993 9.76201C15.1993 9.77001 15.1993 9.77901 15.1993 9.78701C15.118 12.0305 15.4922 14.2672 16.2993 16.362C16.5207 16.9253 16.8854 17.421 17.3573 17.8C17.4902 17.8621 17.5976 17.9681 17.6614 18.1002C17.7251 18.2323 17.7414 18.3823 17.7073 18.525C17.6721 18.6715 17.5885 18.8018 17.47 18.8947C17.3514 18.9876 17.205 19.0378 17.0543 19.037Z" fill="#4A4B4D"/>
</g>
</g>
</svg>
