<svg width="17" height="17" viewBox="0 0 17 17" fill="none" xmlns="http://www.w3.org/2000/svg">
<path d="M16.9279 16.277L15.7549 5.79305C15.7419 5.67698 15.6865 5.56977 15.5995 5.49193C15.5124 5.41408 15.3997 5.37106 15.2829 5.37105H2.3599C2.24311 5.37106 2.13041 5.41408 2.04334 5.49193C1.95627 5.56977 1.90094 5.67698 1.8879 5.79305L0.713904 16.277C0.706445 16.3435 0.713092 16.4107 0.733409 16.4744C0.753726 16.5381 0.787256 16.5968 0.831808 16.6466C0.876359 16.6964 0.930927 16.7363 0.991945 16.7636C1.05296 16.7909 1.11906 16.805 1.1859 16.805H16.4559C16.5227 16.805 16.5888 16.7909 16.6499 16.7636C16.7109 16.7363 16.7654 16.6964 16.81 16.6466C16.8546 16.5968 16.8881 16.5381 16.9084 16.4744C16.9287 16.4107 16.9354 16.3435 16.9279 16.277Z" fill="#B6B7B7"/>
<path d="M16.9288 16.277L15.7568 5.79305C15.7437 5.67698 15.6884 5.56977 15.6013 5.49193C15.5143 5.41408 15.4016 5.37106 15.2848 5.37105H8.82178V16.805H16.4548C16.5216 16.805 16.5877 16.7909 16.6487 16.7636C16.7098 16.7363 16.7643 16.6964 16.8089 16.6466C16.8534 16.5968 16.8869 16.5381 16.9073 16.4744C16.9276 16.4107 16.9342 16.3435 16.9268 16.277H16.9288Z" fill="#B6B7B7"/>
<path d="M5.76592 8.80704C6.29059 8.80704 6.71592 8.38171 6.71592 7.85704C6.71592 7.33237 6.29059 6.90704 5.76592 6.90704C5.24125 6.90704 4.81592 7.33237 4.81592 7.85704C4.81592 8.38171 5.24125 8.80704 5.76592 8.80704Z" fill="#B6B7B7"/>
<path d="M11.8787 8.80704C12.4034 8.80704 12.8287 8.38171 12.8287 7.85704C12.8287 7.33237 12.4034 6.90704 11.8787 6.90704C11.354 6.90704 10.9287 7.33237 10.9287 7.85704C10.9287 8.38171 11.354 8.80704 11.8787 8.80704Z" fill="#B6B7B7"/>
<path d="M11.879 8.17404C11.753 8.17404 11.6322 8.124 11.5431 8.03492C11.4541 7.94584 11.404 7.82502 11.404 7.69904V4.53204C11.404 3.84739 11.132 3.19077 10.6479 2.70665C10.1638 2.22252 9.50718 1.95054 8.82252 1.95054C8.13787 1.95054 7.48125 2.22252 6.99713 2.70665C6.513 3.19077 6.24102 3.84739 6.24102 4.53204V7.69904C6.24102 7.76142 6.22873 7.82319 6.20486 7.88082C6.18099 7.93845 6.146 7.99081 6.10189 8.03492C6.05779 8.07902 6.00543 8.11401 5.9478 8.13788C5.89017 8.16176 5.8284 8.17404 5.76602 8.17404C5.70364 8.17404 5.64187 8.16176 5.58424 8.13788C5.52661 8.11401 5.47425 8.07902 5.43014 8.03492C5.38603 7.99081 5.35105 7.93845 5.32718 7.88082C5.3033 7.82319 5.29103 7.76142 5.29103 7.69904V4.53204C5.28314 4.06328 5.36865 3.59763 5.54258 3.16226C5.71652 2.72689 5.97538 2.3305 6.30409 1.99621C6.6328 1.66192 7.02478 1.39642 7.45717 1.21519C7.88955 1.03395 8.35369 0.940613 8.82252 0.940613C9.29135 0.940613 9.75549 1.03395 10.1879 1.21519C10.6203 1.39642 11.0122 1.66192 11.3409 1.99621C11.6697 2.3305 11.9285 2.72689 12.1025 3.16226C12.2764 3.59763 12.3619 4.06328 12.354 4.53204V7.69904C12.354 7.76142 12.3417 7.82319 12.3179 7.88082C12.294 7.93845 12.259 7.99081 12.2149 8.03492C12.1708 8.07902 12.1184 8.11401 12.0608 8.13788C12.0032 8.16176 11.9414 8.17404 11.879 8.17404Z" fill="#B6B7B7"/>
<path d="M8.82178 0.999043V1.94904C9.50606 1.94984 10.1621 2.22202 10.6459 2.70588C11.1298 3.18974 11.402 3.84576 11.4028 4.53004V7.69904C11.4028 7.82502 11.4528 7.94584 11.5419 8.03492C11.631 8.124 11.7518 8.17404 11.8778 8.17404C12.0038 8.17404 12.1246 8.124 12.2137 8.03492C12.3027 7.94584 12.3528 7.82502 12.3528 7.69904V4.53204C12.352 3.59562 11.9798 2.69775 11.3178 2.03542C10.6558 1.37308 9.7582 1.00037 8.82178 0.999043Z" fill="#B6B7B7"/>
</svg>
