<svg width="15" height="15" viewBox="0 0 15 15" fill="none" xmlns="http://www.w3.org/2000/svg">
<path id="Path 8560" d="M11.7287 14.1909C11.6175 14.1913 11.508 14.163 11.4107 14.1089L7.88573 12.1149L4.36073 14.1089C4.24797 14.1736 4.11835 14.2029 3.98873 14.1929C3.85828 14.1821 3.73402 14.1326 3.63173 14.0509C3.52575 13.966 3.44515 13.8536 3.39873 13.7259C3.35035 13.5953 3.3369 13.4544 3.35973 13.3169L4.05073 9.11695L1.19973 6.12595C1.10993 6.02807 1.0472 5.90847 1.01773 5.77895C0.987129 5.64692 0.99057 5.50928 1.02773 5.37895C1.06663 5.24842 1.14025 5.1309 1.24073 5.03895C1.3375 4.95043 1.45818 4.89234 1.58773 4.87195L5.52773 4.25195L7.26273 0.420948C7.31761 0.296943 7.4059 0.190645 7.51773 0.113945C7.62573 0.0397292 7.75369 0 7.88473 0C8.01577 0 8.14373 0.0397292 8.25173 0.113945C8.3636 0.190606 8.4519 0.296915 8.50673 0.420948L10.2617 4.24395L14.2017 4.86395C14.3313 4.88434 14.452 4.94242 14.5487 5.03094C14.6492 5.12293 14.7228 5.24043 14.7617 5.37094C14.7989 5.50128 14.8023 5.63892 14.7717 5.77095C14.7423 5.90047 14.6795 6.02007 14.5897 6.11795L11.7417 9.10495L12.4327 13.3049C12.4576 13.4448 12.4449 13.5887 12.3957 13.7219C12.3485 13.8521 12.2657 13.9664 12.1567 14.0519C12.035 14.1474 11.8833 14.1966 11.7287 14.1909Z" fill="#FC6011"/>
</svg>
