<svg width="19" height="22" viewBox="0 0 19 22" fill="none" xmlns="http://www.w3.org/2000/svg">
<g id="shopping-bag">
<g id="Group 8094">
<path id="Path 10159" d="M17.3675 5.889C17.3642 5.84664 17.3451 5.80707 17.3139 5.77816C17.2828 5.74925 17.2419 5.73313 17.1995 5.733H14.1645V4.89C14.1645 3.59309 13.6493 2.3493 12.7322 1.43225C11.8152 0.515195 10.5714 0 9.27445 0C7.97754 0 6.73375 0.515195 5.8167 1.43225C4.89965 2.3493 4.38445 3.59309 4.38445 4.89V5.733H1.34845C1.30596 5.73313 1.26509 5.74925 1.23395 5.77816C1.20282 5.80707 1.18372 5.84664 1.18045 5.889L-0.000549954 21.4C-0.00219431 21.4231 0.000926194 21.4463 0.00861676 21.4681C0.0163073 21.49 0.0284052 21.51 0.0441583 21.527C0.0599114 21.5439 0.0789832 21.5575 0.100192 21.5668C0.121402 21.5761 0.144293 21.5809 0.167449 21.581H18.3795C18.4026 21.5809 18.4255 21.5761 18.4467 21.5668C18.4679 21.5575 18.487 21.5439 18.5027 21.527C18.5185 21.51 18.5306 21.49 18.5383 21.4681C18.546 21.4463 18.5491 21.4231 18.5475 21.4L17.3675 5.889ZM5.73345 4.889C5.73345 3.94987 6.10652 3.0492 6.77058 2.38513C7.43465 1.72107 8.33532 1.348 9.27445 1.348C10.2136 1.348 11.1142 1.72107 11.7783 2.38513C12.4424 3.0492 12.8155 3.94987 12.8155 4.889V5.732H5.73345V4.889ZM5.05945 10.454C4.61246 10.4535 4.18393 10.2757 3.86785 9.9596C3.55178 9.64353 3.37398 9.21499 3.37345 8.768C3.36057 8.43722 3.45112 8.11066 3.6325 7.83375C3.81388 7.55683 4.07708 7.34335 4.38545 7.223V8.768C4.38545 8.94689 4.45651 9.11845 4.58301 9.24494C4.7095 9.37144 4.88106 9.4425 5.05995 9.4425C5.23884 9.4425 5.4104 9.37144 5.5369 9.24494C5.66339 9.11845 5.73445 8.94689 5.73445 8.768V7.224C6.04197 7.34529 6.30437 7.55885 6.48559 7.83533C6.6668 8.1118 6.75794 8.43762 6.74645 8.768C6.74619 9.21551 6.56823 9.6446 6.25169 9.96095C5.93516 10.2773 5.50596 10.455 5.05845 10.455L5.05945 10.454ZM13.4905 10.454C13.2687 10.4544 13.049 10.4111 12.844 10.3266C12.639 10.242 12.4527 10.1179 12.2956 9.96136C12.1386 9.80479 12.0139 9.61881 11.9288 9.41405C11.8437 9.20929 11.7997 8.98976 11.7994 8.768C11.7866 8.43722 11.8771 8.11066 12.0585 7.83375C12.2399 7.55683 12.5031 7.34335 12.8115 7.223V8.768C12.8115 8.94689 12.8825 9.11845 13.009 9.24494C13.1355 9.37144 13.3071 9.4425 13.4859 9.4425C13.6648 9.4425 13.8364 9.37144 13.9629 9.24494C14.0894 9.11845 14.1604 8.94689 14.1604 8.768V7.224C14.468 7.34529 14.7304 7.55885 14.9116 7.83533C15.0928 8.1118 15.1839 8.43762 15.1725 8.768C15.1722 9.21465 14.9949 9.64298 14.6795 9.95919C14.364 10.2754 13.9361 10.4537 13.4895 10.455L13.4905 10.454Z" fill="#4A4B4D"/>
</g>
</g>
</svg>
