<svg width="30" height="30" viewBox="0 0 30 30" fill="none" xmlns="http://www.w3.org/2000/svg">
<g id="002-income">
<path id="Path 10146" d="M17.4554 14.648C18.9039 14.648 20.3199 14.2185 21.5244 13.4137C22.7288 12.6089 23.6675 11.4651 24.2218 10.1268C24.7762 8.78849 24.9212 7.31588 24.6386 5.89516C24.356 4.47444 23.6585 3.16943 22.6342 2.14515C21.6099 1.12087 20.3049 0.42333 18.8842 0.140732C17.4635 -0.141866 15.9909 0.00317335 14.6526 0.55751C13.3143 1.11185 12.1704 2.05058 11.3657 3.25501C10.5609 4.45943 10.1313 5.87545 10.1313 7.324C10.1335 9.2658 10.9058 11.1275 12.2788 12.5005C13.6519 13.8736 15.5136 14.6459 17.4554 14.648ZM16.5883 3.019V2.819C16.5883 2.58893 16.6797 2.36828 16.8424 2.20559C17.0051 2.0429 17.2258 1.9515 17.4559 1.9515C17.6859 1.9515 17.9066 2.0429 18.0693 2.20559C18.232 2.36828 18.3233 2.58893 18.3233 2.819V3.019C18.835 3.12967 19.2934 3.41198 19.6224 3.81908C19.9515 4.22617 20.1314 4.73355 20.1324 5.257C20.1324 5.37092 20.1099 5.48373 20.0663 5.58898C20.0227 5.69423 19.9588 5.78986 19.8783 5.87042C19.7977 5.95097 19.7021 6.01487 19.5968 6.05847C19.4916 6.10206 19.3788 6.1245 19.2649 6.1245C19.1509 6.1245 19.0381 6.10206 18.9329 6.05847C18.8276 6.01487 18.732 5.95097 18.6514 5.87042C18.5709 5.78986 18.507 5.69423 18.4634 5.58898C18.4198 5.48373 18.3974 5.37092 18.3974 5.257C18.3971 5.10989 18.3385 4.96888 18.2345 4.86485C18.1305 4.76083 17.9895 4.70227 17.8424 4.702H17.0644C16.9479 4.70235 16.8345 4.73934 16.7402 4.80774C16.6459 4.87613 16.5755 4.97246 16.539 5.08308C16.5025 5.1937 16.5017 5.31299 16.5368 5.42408C16.5718 5.53516 16.641 5.63239 16.7344 5.702L17.4564 6.236L19.2094 7.536C19.4943 7.74799 19.7262 8.02307 19.8871 8.33969C20.0479 8.65632 20.1332 9.00589 20.1364 9.361V9.37C20.1399 9.89724 19.9615 10.4096 19.6312 10.8205C19.3009 11.2315 18.839 11.516 18.3233 11.626V11.826C18.3233 12.0561 18.232 12.2767 18.0693 12.4394C17.9066 12.6021 17.6859 12.6935 17.4559 12.6935C17.2258 12.6935 17.0051 12.6021 16.8424 12.4394C16.6797 12.2767 16.5883 12.0561 16.5883 11.826V11.626C16.0789 11.5159 15.6224 11.2352 15.294 10.8305C14.9656 10.4258 14.7851 9.92117 14.7823 9.4C14.7816 9.28606 14.8032 9.17308 14.8461 9.06753C14.8891 8.96197 14.9523 8.86591 15.0324 8.78483C15.1125 8.70375 15.2077 8.63924 15.3127 8.595C15.4177 8.55077 15.5304 8.52766 15.6443 8.527H15.6504C15.8794 8.52726 16.099 8.618 16.2614 8.77946C16.4238 8.94092 16.5158 9.16001 16.5173 9.389C16.5176 9.46192 16.5323 9.53408 16.5605 9.60132C16.5887 9.66857 16.6299 9.72958 16.6817 9.78087C16.7336 9.83215 16.795 9.87269 16.8626 9.90018C16.9301 9.92766 17.0024 9.94153 17.0753 9.941H17.8524C17.9253 9.94061 17.9975 9.92583 18.0647 9.89752C18.132 9.8692 18.193 9.8279 18.2443 9.77598C18.2955 9.72405 18.3361 9.66253 18.3635 9.59493C18.391 9.52733 18.4049 9.45497 18.4044 9.382V9.373C18.4035 9.28695 18.3828 9.20227 18.3438 9.12558C18.3047 9.04889 18.2484 8.98229 18.1794 8.931L17.4584 8.397L15.7044 7.097C15.3501 6.83462 15.0791 6.47555 14.9239 6.06292C14.7687 5.65028 14.7359 5.20163 14.8295 4.77082C14.923 4.34001 15.139 3.94536 15.4513 3.63426C15.7637 3.32315 16.1592 3.10882 16.5903 3.017L16.5883 3.019Z" fill="#4A4B4D"/>
<path id="Path 10147" d="M5.58815 18.816C5.48173 18.6307 5.30624 18.4951 5.10009 18.4389C4.89394 18.3826 4.67391 18.4104 4.48815 18.516L0.408153 20.871C0.22306 20.9776 0.0876397 21.1531 0.0314376 21.3592C-0.0247644 21.5652 0.0028128 21.7852 0.108153 21.971L4.27815 29.194C4.38476 29.3791 4.56025 29.5145 4.76632 29.5707C4.9724 29.6269 5.19233 29.5993 5.37815 29.494L9.45815 27.138C9.64345 27.0316 9.77904 26.8561 9.83526 26.6499C9.89149 26.4438 9.86376 26.2238 9.75815 26.038L5.58815 18.816Z" fill="#4A4B4D"/>
<path id="Path 10148" d="M28.9667 17.376C28.8734 17.246 28.7554 17.1356 28.6193 17.0513C28.4833 16.967 28.332 16.9104 28.174 16.8848C28.016 16.8592 27.8546 16.865 27.6989 16.9019C27.5432 16.9388 27.3963 17.0062 27.2667 17.1L22.1887 20.759C22.0738 20.8573 21.9518 20.9469 21.8237 21.027C21.3199 21.3435 20.7366 21.5106 20.1417 21.509H15.9867C15.7566 21.509 15.5359 21.4176 15.3732 21.2549C15.2106 21.0923 15.1192 20.8716 15.1192 20.6415C15.1192 20.4115 15.2106 20.1908 15.3732 20.0281C15.5359 19.8654 15.7566 19.774 15.9867 19.774H20.4297C20.5848 19.7739 20.7383 19.7424 20.881 19.6814C21.0236 19.6204 21.1525 19.5311 21.2597 19.419C21.367 19.3069 21.4504 19.1742 21.5051 19.029C21.5597 18.8838 21.5844 18.729 21.5777 18.574C21.5598 18.276 21.4285 17.9962 21.2107 17.792C20.9929 17.5878 20.7052 17.4747 20.4067 17.476H17.0247C16.7952 17.2332 16.5445 17.0113 16.2757 16.813C15.3202 16.1074 14.1634 15.7271 12.9757 15.728C11.8848 15.7464 10.8187 16.0559 9.88777 16.6247C8.9568 17.1935 8.1948 18.0008 7.68066 18.963L11.2287 25.108H17.8847C19.1919 25.1111 20.477 24.7711 21.6117 24.122C22.0483 23.869 22.4719 23.594 22.8807 23.298C24.7897 21.926 28.6937 19.077 28.6967 19.075C28.826 18.9813 28.9356 18.8629 29.0191 18.7267C29.1027 18.5906 29.1586 18.4393 29.1837 18.2815C29.2088 18.1237 29.2025 17.9625 29.1653 17.8072C29.128 17.6518 29.0605 17.5053 28.9667 17.376Z" fill="#4A4B4D"/>
</g>
</svg>
