<svg width="15" height="18" viewBox="0 0 15 18" fill="none" xmlns="http://www.w3.org/2000/svg">
<path d="M7.60107 8.48997C9.53107 8.48997 11.1011 6.58997 11.1011 4.24497C11.1011 1.89997 10.5821 -3.05176e-05 7.60107 -3.05176e-05C4.62007 -3.05176e-05 4.10107 1.89997 4.10107 4.24497C4.10107 6.58997 5.67107 8.48997 7.60107 8.48997Z" fill="#B6B7B7"/>
<path d="M14.1921 14.801C14.1271 10.717 13.5921 9.55298 9.51209 8.81598C8.98612 9.2876 8.30455 9.54843 7.59809 9.54843C6.89164 9.54843 6.21006 9.2876 5.68409 8.81598C1.64709 9.54498 1.0841 10.691 1.0061 14.668C1.0001 14.993 0.997094 15.01 0.996094 14.968C0.996094 15.039 0.996094 15.168 0.996094 15.397C0.996094 15.397 1.9681 17.356 7.5961 17.356C13.2241 17.356 14.1961 15.397 14.1961 15.397C14.1961 15.251 14.1961 15.149 14.1961 15.08C14.1898 14.9871 14.1885 14.894 14.1921 14.801Z" fill="#B6B7B7"/>
</svg>
