<svg width="23" height="20" viewBox="0 0 23 20" fill="none" xmlns="http://www.w3.org/2000/svg">
<path d="M7.37806 13.333H19.4221C19.5671 13.3332 19.7082 13.2861 19.8239 13.1987C19.9396 13.1113 20.0236 12.9885 20.0631 12.849L22.7301 3.516C22.7586 3.41677 22.7636 3.31226 22.7448 3.21073C22.726 3.1092 22.6839 3.01344 22.6217 2.931C22.5596 2.84856 22.4791 2.7817 22.3866 2.73571C22.2942 2.68972 22.1923 2.66586 22.0891 2.666H5.83906L5.36206 0.522C5.32908 0.373931 5.24661 0.241526 5.12826 0.146629C5.00992 0.0517314 4.86275 1.10044e-05 4.71106 0L0.667057 0C0.494758 0.00667521 0.331738 0.079816 0.212196 0.204079C0.0926539 0.328342 0.0258789 0.494071 0.0258789 0.6665C0.0258789 0.838929 0.0926539 1.00466 0.212196 1.12892C0.331738 1.25318 0.494758 1.32632 0.667057 1.333H4.17606L6.58306 12.167C6.16234 12.3506 5.8176 12.6734 5.6067 13.0811C5.3958 13.4888 5.33156 13.9567 5.42479 14.4062C5.51802 14.8557 5.76302 15.2594 6.11868 15.5496C6.47435 15.8398 6.91902 15.9988 7.37806 16H19.4221C19.5944 15.9933 19.7574 15.9202 19.8769 15.7959C19.9965 15.6717 20.0632 15.5059 20.0632 15.3335C20.0632 15.1611 19.9965 14.9953 19.8769 14.8711C19.7574 14.7468 19.5944 14.6737 19.4221 14.667H7.37806C7.28836 14.6705 7.19888 14.6558 7.11499 14.6239C7.03109 14.592 6.95451 14.5434 6.88981 14.4812C6.82512 14.419 6.77366 14.3443 6.73851 14.2617C6.70335 14.1791 6.68524 14.0903 6.68524 14.0005C6.68524 13.9107 6.70335 13.8219 6.73851 13.7393C6.77366 13.6567 6.82512 13.5821 6.88981 13.5198C6.95451 13.4576 7.03109 13.409 7.11499 13.3771C7.19888 13.3452 7.28836 13.3295 7.37806 13.333Z" fill="#4A4B4D"/>
<path d="M6.71094 17.996C6.71094 18.3916 6.82824 18.7782 7.048 19.1071C7.26777 19.436 7.58012 19.6924 7.94557 19.8438C8.31102 19.9951 8.71316 20.0348 9.10112 19.9576C9.48908 19.8804 9.84545 19.6899 10.1252 19.4102C10.4049 19.1305 10.5953 18.7741 10.6725 18.3862C10.7497 17.9982 10.7101 17.5961 10.5587 17.2306C10.4073 16.8652 10.151 16.5528 9.82208 16.3331C9.49318 16.1133 9.1065 15.996 8.71094 15.996C8.1805 15.996 7.6718 16.2067 7.29672 16.5818C6.92165 16.9569 6.71094 17.4656 6.71094 17.996Z" fill="#4A4B4D"/>
<path d="M16.085 17.996C16.085 18.3916 16.2023 18.7782 16.422 19.1071C16.6418 19.436 16.9541 19.6924 17.3196 19.8438C17.685 19.9951 18.0872 20.0348 18.4751 19.9576C18.8631 19.8804 19.2195 19.6899 19.4992 19.4102C19.7789 19.1305 19.9694 18.7741 20.0465 18.3862C20.1237 17.9982 20.0841 17.5961 19.9327 17.2306C19.7813 16.8652 19.525 16.5528 19.1961 16.3331C18.8672 16.1133 18.4805 15.996 18.085 15.996C17.5545 15.996 17.0458 16.2067 16.6707 16.5818C16.2957 16.9569 16.085 17.4656 16.085 17.996Z" fill="#4A4B4D"/>
</svg>
