<svg width="23" height="20" viewBox="0 0 23 20" fill="none" xmlns="http://www.w3.org/2000/svg">
<path d="M7.37757 13.333H19.4216C19.5666 13.3332 19.7077 13.2861 19.8234 13.1987C19.9391 13.1113 20.0231 12.9885 20.0626 12.849L22.7296 3.516C22.7581 3.41677 22.7632 3.31226 22.7444 3.21073C22.7256 3.1092 22.6834 3.01344 22.6212 2.931C22.5591 2.84856 22.4786 2.7817 22.3861 2.73571C22.2937 2.68972 22.1918 2.66586 22.0886 2.666H5.83857L5.36157 0.522C5.32859 0.373931 5.24613 0.241526 5.12778 0.146629C5.00943 0.0517314 4.86227 1.10044e-05 4.71057 0L0.666569 0C0.49427 0.00667521 0.33125 0.079816 0.211708 0.204079C0.0921656 0.328342 0.0253906 0.494071 0.0253906 0.6665C0.0253906 0.838929 0.0921656 1.00466 0.211708 1.12892C0.33125 1.25318 0.49427 1.32632 0.666569 1.333H4.17557L6.58257 12.167C6.16186 12.3506 5.81712 12.6734 5.60621 13.0811C5.39531 13.4888 5.33108 13.9567 5.4243 14.4062C5.51753 14.8557 5.76253 15.2594 6.1182 15.5496C6.47386 15.8398 6.91853 15.9988 7.37757 16H19.4216C19.5939 15.9933 19.7569 15.9202 19.8764 15.7959C19.996 15.6717 20.0627 15.5059 20.0627 15.3335C20.0627 15.1611 19.996 14.9953 19.8764 14.8711C19.7569 14.7468 19.5939 14.6737 19.4216 14.667H7.37757C7.28787 14.6705 7.19839 14.6558 7.1145 14.6239C7.0306 14.592 6.95402 14.5434 6.88933 14.4812C6.82464 14.419 6.77317 14.3443 6.73802 14.2617C6.70287 14.1791 6.68475 14.0903 6.68475 14.0005C6.68475 13.9107 6.70287 13.8219 6.73802 13.7393C6.77317 13.6567 6.82464 13.5821 6.88933 13.5198C6.95402 13.4576 7.0306 13.409 7.1145 13.3771C7.19839 13.3452 7.28787 13.3295 7.37757 13.333Z" fill="#FC6011"/>
<path d="M6.71094 17.996C6.71094 18.3915 6.82824 18.7782 7.048 19.1071C7.26777 19.436 7.58012 19.6923 7.94557 19.8437C8.31102 19.9951 8.71316 20.0347 9.10112 19.9576C9.48908 19.8804 9.84545 19.6899 10.1252 19.4102C10.4049 19.1305 10.5953 18.7741 10.6725 18.3861C10.7497 17.9982 10.7101 17.596 10.5587 17.2306C10.4073 16.8651 10.151 16.5528 9.82208 16.333C9.49318 16.1133 9.1065 15.996 8.71094 15.996C8.1805 15.996 7.6718 16.2067 7.29672 16.5818C6.92165 16.9568 6.71094 17.4655 6.71094 17.996Z" fill="#FC6011"/>
<path d="M16.085 17.996C16.085 18.3915 16.2023 18.7782 16.422 19.1071C16.6418 19.436 16.9541 19.6923 17.3196 19.8437C17.685 19.9951 18.0872 20.0347 18.4751 19.9576C18.8631 19.8804 19.2195 19.6899 19.4992 19.4102C19.7789 19.1305 19.9694 18.7741 20.0465 18.3861C20.1237 17.9982 20.0841 17.596 19.9327 17.2306C19.7813 16.8651 19.525 16.5528 19.1961 16.333C18.8672 16.1133 18.4805 15.996 18.085 15.996C17.5545 15.996 17.0458 16.2067 16.6707 16.5818C16.2957 16.9568 16.085 17.4655 16.085 17.996Z" fill="#FC6011"/>
</svg>
