<svg width="15" height="15" viewBox="0 0 15 15" fill="none" xmlns="http://www.w3.org/2000/svg">
<path d="M13.9646 5.72893C13.9226 5.59922 13.8433 5.48478 13.7365 5.39993C13.6298 5.31508 13.5004 5.2636 13.3646 5.25193L9.59459 4.90993L8.10759 1.42193C8.05427 1.29673 7.96531 1.18997 7.85178 1.11493C7.73826 1.03989 7.60518 0.999878 7.46909 0.999878C7.333 0.999878 7.19992 1.03989 7.0864 1.11493C6.97287 1.18997 6.88391 1.29673 6.83059 1.42193L5.33959 4.90993L1.57059 5.25193C1.43632 5.26635 1.30909 5.31929 1.20423 5.40439C1.09937 5.48948 1.02136 5.60309 0.979609 5.73151C0.937857 5.85994 0.934145 5.9977 0.968918 6.12818C1.00369 6.25867 1.07547 6.37632 1.17559 6.46693L4.02559 8.96693L3.18559 12.6669C3.15506 12.7996 3.1642 12.9383 3.2119 13.0658C3.25959 13.1933 3.34371 13.3039 3.45381 13.3839C3.56391 13.464 3.69511 13.5099 3.83109 13.5159C3.96707 13.522 4.10183 13.4879 4.21859 13.4179L7.46959 11.4729L10.7196 13.4169C10.8364 13.4864 10.971 13.5201 11.1068 13.5138C11.2426 13.5076 11.3735 13.4616 11.4835 13.3817C11.5934 13.3018 11.6775 13.1914 11.7253 13.0642C11.7731 12.9369 11.7826 12.7985 11.7526 12.6659L10.9126 8.96593L13.7626 6.46593C13.8639 6.37556 13.9367 6.25769 13.9723 6.12665C14.0078 5.99562 14.0044 5.85709 13.9626 5.72793L13.9646 5.72893Z" stroke="#EE5A30"/>
</svg>
