<svg width="111" height="17" viewBox="0 0 111 17" fill="none" xmlns="http://www.w3.org/2000/svg">
<path d="M16.193 6.91793C16.1439 6.76673 16.0513 6.63335 15.9268 6.53447C15.8023 6.43558 15.6514 6.37557 15.493 6.36193L11.093 5.96193L9.36102 1.89393C9.29871 1.74794 9.19489 1.62346 9.06244 1.53598C8.92999 1.44849 8.77475 1.40186 8.61602 1.40186C8.45728 1.40186 8.30205 1.44849 8.1696 1.53598C8.03715 1.62346 7.93332 1.74794 7.87102 1.89393L6.13402 5.96293L1.73402 6.36293C1.57621 6.37759 1.42615 6.43818 1.3024 6.53719C1.17864 6.6362 1.08661 6.7693 1.03767 6.92004C0.988738 7.07079 0.985044 7.23257 1.02705 7.38539C1.06905 7.53821 1.15491 7.67537 1.27402 7.77993L4.60002 10.6929L3.61902 15.0059C3.58474 15.1599 3.59614 15.3204 3.65181 15.468C3.70748 15.6155 3.80501 15.7436 3.93242 15.8365C4.05984 15.9294 4.2116 15.9831 4.36909 15.991C4.52658 15.9989 4.68295 15.9606 4.81902 15.8809L8.61102 13.6139L12.402 15.8809C12.5382 15.9622 12.6952 16.0017 12.8536 15.9946C13.012 15.9875 13.1648 15.934 13.2931 15.8408C13.4214 15.7477 13.5195 15.6189 13.5753 15.4705C13.6311 15.3221 13.6421 15.1605 13.607 15.0059L12.627 10.6889L15.951 7.77393C16.0703 7.66925 16.1562 7.53187 16.1982 7.37883C16.2401 7.22579 16.2362 7.0638 16.187 6.91293L16.193 6.91793Z" fill="#EE5A30"/>
<path d="M39.525 6.91793C39.4759 6.76673 39.3833 6.63335 39.2588 6.53447C39.1343 6.43558 38.9834 6.37557 38.825 6.36193L34.425 5.96193L32.693 1.89393C32.6307 1.74794 32.5269 1.62346 32.3945 1.53598C32.262 1.44849 32.1068 1.40186 31.948 1.40186C31.7893 1.40186 31.6341 1.44849 31.5016 1.53598C31.3692 1.62346 31.2654 1.74794 31.203 1.89393L29.466 5.96293L25.066 6.36293C24.9082 6.37759 24.7582 6.43818 24.6344 6.53719C24.5107 6.6362 24.4186 6.7693 24.3697 6.92004C24.3208 7.07079 24.3171 7.23257 24.3591 7.38539C24.4011 7.53821 24.4869 7.67537 24.606 7.77993L27.932 10.6929L26.951 15.0059C26.9168 15.1599 26.9282 15.3204 26.9838 15.468C27.0395 15.6155 27.137 15.7436 27.2645 15.8365C27.3919 15.9294 27.5436 15.9831 27.7011 15.991C27.8586 15.9989 28.015 15.9606 28.151 15.8809L31.943 13.6139L35.734 15.8809C35.8702 15.9622 36.0272 16.0017 36.1856 15.9946C36.344 15.9875 36.4968 15.934 36.6251 15.8408C36.7534 15.7477 36.8515 15.6189 36.9074 15.4705C36.9632 15.3221 36.9742 15.1605 36.939 15.0059L35.959 10.6889L39.283 7.77393C39.4023 7.66925 39.4882 7.53187 39.5302 7.37883C39.5721 7.22579 39.5683 7.0638 39.519 6.91293L39.525 6.91793Z" fill="#EE5A30"/>
<path d="M62.8561 6.91793C62.807 6.76673 62.7144 6.63335 62.5899 6.53447C62.4654 6.43558 62.3145 6.37557 62.1561 6.36193L57.7561 5.96193L56.0241 1.89393C55.9618 1.74794 55.858 1.62346 55.7255 1.53598C55.5931 1.44849 55.4378 1.40186 55.2791 1.40186C55.1204 1.40186 54.9651 1.44849 54.8327 1.53598C54.7002 1.62346 54.5964 1.74794 54.5341 1.89393L52.7971 5.96293L48.3971 6.36293C48.2393 6.37759 48.0892 6.43818 47.9655 6.53719C47.8417 6.6362 47.7497 6.7693 47.7008 6.92004C47.6518 7.07079 47.6481 7.23257 47.6901 7.38539C47.7321 7.53821 47.818 7.67537 47.9371 7.77993L51.2631 10.6929L50.2821 15.0059C50.2478 15.1599 50.2592 15.3204 50.3149 15.468C50.3706 15.6155 50.4681 15.7436 50.5955 15.8365C50.7229 15.9294 50.8747 15.9831 51.0322 15.991C51.1897 15.9989 51.346 15.9606 51.4821 15.8809L55.2741 13.6139L59.0651 15.8809C59.2013 15.9622 59.3583 16.0017 59.5167 15.9946C59.675 15.9875 59.8279 15.934 59.9562 15.8408C60.0845 15.7477 60.1826 15.6189 60.2384 15.4705C60.2942 15.3221 60.3052 15.1605 60.2701 15.0059L59.2901 10.6889L62.6141 7.77393C62.7334 7.66925 62.8193 7.53187 62.8612 7.37883C62.9032 7.22579 62.8993 7.0638 62.8501 6.91293L62.8561 6.91793Z" fill="#EE5A30"/>
<path d="M86.1881 6.91793C86.139 6.76673 86.0464 6.63335 85.9219 6.53447C85.7974 6.43558 85.6465 6.37557 85.4881 6.36193L81.0881 5.96193L79.3561 1.89393C79.2938 1.74794 79.19 1.62346 79.0576 1.53598C78.9251 1.44849 78.7699 1.40186 78.6111 1.40186C78.4524 1.40186 78.2972 1.44849 78.1647 1.53598C78.0323 1.62346 77.9284 1.74794 77.8661 1.89393L76.1291 5.96293L71.7291 6.36293C71.5713 6.37759 71.4213 6.43818 71.2975 6.53719C71.1738 6.6362 71.0817 6.7693 71.0328 6.92004C70.9839 7.07079 70.9802 7.23257 71.0222 7.38539C71.0642 7.53821 71.15 7.67537 71.2691 7.77993L74.5951 10.6929L73.6141 15.0059C73.5799 15.1599 73.5913 15.3204 73.6469 15.468C73.7026 15.6155 73.8001 15.7436 73.9275 15.8365C74.055 15.9294 74.2067 15.9831 74.3642 15.991C74.5217 15.9989 74.6781 15.9606 74.8141 15.8809L78.6061 13.6139L82.3971 15.8809C82.5333 15.9622 82.6903 16.0017 82.8487 15.9946C83.0071 15.9875 83.1599 15.934 83.2882 15.8408C83.4165 15.7477 83.5146 15.6189 83.5704 15.4705C83.6262 15.3221 83.6373 15.1605 83.6021 15.0059L82.6221 10.6889L85.9461 7.77393C86.0654 7.66925 86.1513 7.53187 86.1933 7.37883C86.2352 7.22579 86.2313 7.0638 86.1821 6.91293L86.1881 6.91793Z" fill="#EE5A30"/>
<path d="M109.52 6.51595C109.471 6.36475 109.378 6.23137 109.254 6.13249C109.129 6.0336 108.978 5.97359 108.82 5.95995L104.42 5.55996L102.688 1.49195C102.626 1.34596 102.522 1.22149 102.389 1.134C102.257 1.04652 102.102 0.999878 101.943 0.999878C101.784 0.999878 101.629 1.04652 101.497 1.134C101.364 1.22149 101.26 1.34596 101.198 1.49195L99.4609 5.56096L95.0609 5.96095C94.9031 5.97562 94.7531 6.0362 94.6293 6.13521C94.5055 6.23422 94.4135 6.36732 94.3646 6.51807C94.3156 6.66881 94.3119 6.83059 94.354 6.98341C94.396 7.13623 94.4818 7.2734 94.6009 7.37795L97.9269 10.291L96.9459 14.604C96.9116 14.7579 96.923 14.9184 96.9787 15.066C97.0344 15.2135 97.1319 15.3416 97.2593 15.4345C97.3867 15.5274 97.5385 15.5811 97.696 15.589C97.8535 15.5969 98.0099 15.5586 98.1459 15.479L101.938 13.212L105.729 15.479C105.865 15.5602 106.022 15.5997 106.18 15.5926C106.339 15.5855 106.492 15.532 106.62 15.4389C106.748 15.3457 106.846 15.2169 106.902 15.0685C106.958 14.9201 106.969 14.7586 106.934 14.604L105.954 10.287L109.278 7.37195C109.397 7.26727 109.483 7.12989 109.525 6.97685C109.567 6.82381 109.563 6.66182 109.514 6.51095L109.52 6.51595Z" stroke="#EE5A30"/>
</svg>
