<svg width="21" height="18" viewBox="0 0 21 18" fill="none" xmlns="http://www.w3.org/2000/svg">
<path d="M14.413 1.49996C15.7902 1.50627 17.1092 2.05616 18.083 3.02998C19.0568 4.0038 19.6067 5.32278 19.613 6.69996C19.613 11.949 10.057 17.148 10.057 17.148C10.057 17.148 0.5 11.875 0.5 6.69796C0.5 5.31883 1.04786 3.99619 2.02304 3.021C2.99823 2.04581 4.32087 1.49796 5.7 1.49796C6.56468 1.49122 7.41711 1.70244 8.17861 2.11212C8.94011 2.52179 9.58612 3.11672 10.057 3.84196C10.5316 3.12063 11.1783 2.52882 11.9387 2.11995C12.6992 1.71107 13.5496 1.498 14.413 1.49996Z" stroke="#FC6011"/>
</svg>
